<?xml version="1.0" encoding="UTF-8"?>
<svg id="a" xmlns="http://www.w3.org/2000/svg" width="500" height="500" version="1.1" xmlns:xlink="http://www.w3.org/1999/xlink" viewBox="0 0 500 500">
  <defs>
    <style>
      .cls-1 {
        opacity: .6;
      }

      .cls-1, .cls-2, .cls-3, .cls-4, .cls-5, .cls-6 {
        stroke-width: 0px;
      }

      .cls-1, .cls-4 {
        fill: #fff5dc;
        isolation: isolate;
      }

      .cls-2 {
        fill: url(#linear-gradient);
      }

      .cls-3 {
        fill: #e3b46a;
      }

      .cls-4 {
        opacity: .4;
      }

      .cls-5 {
        fill: url(#linear-gradient-2);
      }

      .cls-6 {
        fill: #f45900;
      }
    </style>
    <linearGradient id="linear-gradient" x1="-14542.4" y1="-959.9" x2="-14542.4" y2="-1346.3" gradientTransform="translate(-14326.1 1441.1) rotate(-180) scale(1 -1)" gradientUnits="userSpaceOnUse">
      <stop offset="0" stop-color="#a10815"/>
      <stop offset="1" stop-color="#fd7531"/>
    </linearGradient>
    <linearGradient id="linear-gradient-2" x1="-14542.4" y1="3347.2" x2="-14542.4" y2="3748.9" gradientTransform="translate(-14326.1 3862) rotate(-180)" gradientUnits="userSpaceOnUse">
      <stop offset="0" stop-color="#fd7531"/>
      <stop offset="1" stop-color="#a10815"/>
    </linearGradient>
  </defs>
  <path class="cls-3" d="M429.3,126v245.9l-213,123L3.4,371.9V126L216.3,3.1l213,122.9Z"/>
  <path class="cls-3" d="M216.3,484.3L12.6,366.6v-235.3L216.3,13.7l203.8,117.7v235.3l-203.8,117.6M216.3,499l8.9-5.2,198.6-114.7,8.9-5.2V124l-8.9-5.2L225.3,4.1l-9-5.1-8.9,5.2L8.8,118.8-.1,124v250l8.9,5.2,198.6,114.7,8.9,5.1h0Z"/>
  <path class="cls-2" d="M420.1,363.4v-228.8c0-2-1.1-3.9-2.8-4.9L219.1,15.3c-1.7-1-3.9-1-5.6,0L15.4,129.7c-1.7,1-2.8,2.9-2.8,4.9v228.8c0,2,1.1,3.9,2.8,4.9l198.2,114.4c1.7,1,3.9,1,5.6,0l198.2-114.4c1.6-1.1,2.7-2.9,2.7-4.9Z"/>
  <path class="cls-5" d="M399,148.5v208.4c0,.8-.4,1.5-1.1,1.9l-180.5,104.2c-.7.4-1.5.4-2.1,0l-180.5-104.2c-.7-.4-1.1-1.1-1.1-1.9v-208.4c0-.8.4-1.5,1.1-1.9L215.3,42.5c.7-.4,1.5-.4,2.1,0l180.5,104.2c.7.4,1.1,1.1,1.1,1.8h0Z"/>
  <path class="cls-6" d="M391,348.8l.4-198.8c0-.4-.6-.4-1-.6,0,0-173.8-99.8-174.1-99.6L42.2,149.5c-.3.2-.6.6-.6,1v196.7c0,.4.2.8.5,1l173.6,103.6c.3.2.8.2,1.1,0l173.5-101.9c.5-.3.7-.7.7-1.1h0Z"/>
  <path class="cls-6" d="M117.1,167.9v20.8h-46v-20.8h46M121.2,163.8h-54.2v29h54.3v-29h-.1Z"/>
  <path class="cls-6" d="M182.6,167.9v20.8h-46.1v-20.8h46.1M186.7,163.8h-54.3v29h54.3v-29Z"/>
  <path class="cls-6" d="M234.7,167.9v20.8h-46.1v-20.8h46.1M238.8,163.8h-54.3v29h54.3v-29Z"/>
  <path class="cls-6" d="M361.6,167.9v20.8h-46.1v-20.8h46.1M365.7,163.8h-54.3v29h54.3v-29Z"/>
  <path class="cls-6" d="M140.2,141.3v20.8h-46.1v-20.8h46.1M144.2,137.3h-54.2v29h54.3v-29h-.1Z"/>
  <path class="cls-6" d="M213.2,141.3v20.8h-46.1v-20.8h46.1M217.3,137.3h-54.3v29h54.3v-29h0Z"/>
  <path class="cls-6" d="M264.5,141.3v20.8h-46.1v-20.8h46.1M268.6,137.3h-54.3v29h54.3v-29Z"/>
  <path class="cls-6" d="M238.9,114.7v20.8h-46.1v-20.8h46.1M243,110.7h-54.3v29h54.3v-29Z"/>
  <path class="cls-6" d="M290.2,114.7v20.8h-46.1v-20.8h46.1M294.3,110.7h-54.3v29h54.3v-29h0Z"/>
  <path class="cls-1" d="M209.1,181.6h-17.7l-9.4-.9-3.2.9h-20.2c-1.5,0-2.7-1.2-2.7-2.7v-28.5c0-1.4.6-2.7,1.5-3.7l1.4-1.4c1-1,2.3-1.5,3.7-1.5h46.5c1.5,0,2.7,1.2,2.7,2.7v7.6l-.9,8.6.9,6.1v10.2c0,1.5-1.2,2.7-2.7,2.7h0Z"/>
  <path class="cls-1" d="M276.2,179v-32.6c0-1.5-1.2-2.7-2.7-2.7h-32.7l-10.2.9-7.6-.9c-1.5,0-2.7,1.2-2.7,2.7v32.6c0,1.5,1.2,2.7,2.7,2.7h50.5c1.5,0,2.7-1.2,2.7-2.7h0Z"/>
  <path class="cls-1" d="M247.4,133.5v-27.9c0-1.5-1.2-2.7-2.7-2.7h-56.1c-1.5,0-2.7,1.2-2.7,2.7v6.4l1.8,9.5-1.8,2.7v9.3c0,1.5,1.2,2.7,2.7,2.7h56.1c1.5,0,2.7-1.2,2.7-2.7h0Z"/>
  <path class="cls-4" d="M80.7,183.6l1.9-7.1c.2-.6,0-1.2-.7-1.4l-4.5-1.5-3.9-.9-1.6-.9-11.6-3.8c-.6-.2-1.2.1-1.4.7l-.8,2.5-1.6,7.5-.8,1.1v3.8c0,.6.5,1.1,1.1,1.1h22.7c.6,0,1.1-.5,1.1-1.1h0Z"/>
  <path class="cls-4" d="M83.6,170.3l-6.8-2.3-3.5-1.6h-1.4l-7.7-2.7c-.6-.2-.9-.8-.7-1.4l11.4-15.3,2.6.3,12.1,15.6c.4.5.3,1.1-.2,1.5l-.6.6-1.7,1.9-1.1,2.2-1,.6c-.2.6-.8.9-1.4.7h0Z"/>
  <path class="cls-4" d="M102.1,154.9l-6.2-21.9c-.2-.6-.8-.9-1.3-.8l-3.6,1-.8,1-6.8,3.6-2.2,1.5c-.5.3-.6,1-.3,1.5l6.8,10.1,1.3,1.3,1.9,3.5,2.6,3.9c.3.5,1,.6,1.5.3l6.3-3.8c.6-.2.9-.8.8-1.3h0Z"/>
  <path class="cls-4" d="M351.9,184.7h22.7c.6,0,1.1-.5,1.1-1.1v-3.8l-.8-1.1-1.6-7.5-.8-2.5c-.2-.6-.8-.9-1.4-.7l-11.6,3.8-1.6.9-3.9.9-4.5,1.5c-.6.2-.9.8-.7,1.4l2,7.1c0,.6.5,1.1,1.1,1.1h0Z"/>
  <path class="cls-4" d="M347.9,170.3c-.6.2-1.2-.1-1.4-.7l-1-.6-1.1-2.2-1.7-1.9-.6-.6c-.5-.4-.5-1-.2-1.5l12.1-15.6,2.6-.3,11.4,15.3c.2.6-.1,1.2-.7,1.4l-7.7,2.6h-1.4l-3.5,1.7-6.8,2.3h0Z"/>
  <path class="cls-4" d="M330.1,156.2l6.3,3.8c.5.3,1.2.2,1.5-.3l2.6-3.9,1.9-3.5,1.3-1.3,6.8-10.1c.3-.5.2-1.2-.3-1.5l-2.2-1.5-6.8-3.6-.8-1-3.6-1c-.6-.2-1.2.2-1.3.8l-6.1,21.9c-.2.6.2,1.2.8,1.3h0Z"/>
</svg>