<svg viewBox="0 0 433 500" xmlns:xlink="http://www.w3.org/1999/xlink" version="1.1" xmlns="http://www.w3.org/2000/svg" data-name="Layer 1" id="Layer_1" style="max-height: 500px" width="433" height="500">
  <defs>
    <style>
      .cls-1 {
        fill: url(#linear-gradient);
      }

      .cls-1, .cls-2, .cls-3, .cls-4, .cls-5, .cls-6 {
        stroke-width: 0px;
      }

      .cls-2 {
        fill: #e3b46a;
      }

      .cls-3, .cls-6 {
        fill: #fff3d9;
      }

      .cls-7 {
        opacity: .4;
      }

      .cls-4 {
        fill: url(#linear-gradient-2);
      }

      .cls-5 {
        fill: #d5ce88;
      }

      .cls-6 {
        opacity: .7;
      }
    </style>
    <linearGradient gradientUnits="userSpaceOnUse" gradientTransform="translate(-14118 2523) rotate(-180)" y2="2420.4" x2="-14334.4" y1="2034.1" x1="-14334.4" id="linear-gradient">
      <stop stop-color="#787411" offset="0"/>
      <stop stop-color="#d1cb4e" offset="1"/>
    </linearGradient>
    <linearGradient gradientUnits="userSpaceOnUse" gradientTransform="translate(-14118 3358) rotate(-180) scale(1 -1)" y2="-3241" x2="-14334.4" y1="-2839.4" x1="-14334.4" id="linear-gradient-2">
      <stop stop-color="#d1cb4e" offset="0"/>
      <stop stop-color="#787411" offset="1"/>
    </linearGradient>
  </defs>
  <path d="M429.3,126v245.9l-213,123L3.4,371.9V126L216.3,3.1l213,122.9Z" class="cls-2"/>
  <path d="M216.3,484.3L12.6,366.6v-235.3L216.3,13.7l203.8,117.7v235.3l-203.8,117.6M216.3,499l8.9-5.2,198.6-114.7,8.9-5.2V124l-8.9-5.2L225.3,4.1l-9-5.1-8.9,5.2L8.8,118.8-.1,124v250l8.9,5.2,198.6,114.7,8.9,5.1h0Z" class="cls-2"/>
  <path d="M420.1,363.4v-228.8c0-2-1.1-3.9-2.8-4.9L219.1,15.3c-1.7-1-3.9-1-5.6,0L15.4,129.7c-1.7,1-2.8,2.9-2.8,4.9v228.8c0,2,1.1,3.9,2.8,4.9l198.2,114.4c1.7,1,3.9,1,5.6,0l198.2-114.4c1.6-1.1,2.7-2.9,2.7-4.9Z" class="cls-1"/>
  <path d="M399,148.5v208.4c0,.8-.4,1.5-1.1,1.9l-180.5,104.2c-.7.4-1.5.4-2.1,0l-180.5-104.2c-.7-.4-1.1-1.1-1.1-1.9v-208.4c0-.8.4-1.5,1.1-1.9L215.3,42.5c.7-.4,1.5-.4,2.1,0l180.5,104.2c.7.4,1.1,1.1,1.1,1.8h0Z" class="cls-4"/>
  <path d="M391,348.8l.4-198.8c0-.4-.6-.4-1-.6,0,0-173.8-99.8-174.1-99.6L42.2,149.5c-.3.2-.6.6-.6,1v196.7c0,.4.2.8.5,1l173.6,103.6c.3.2.8.2,1.1,0l173.5-101.9c.5-.3.7-.7.7-1.1h0Z" class="cls-5"/>
  <path d="M249.3,123.8h-3.7l3.9-5.5,3.4-9.7,3.7-12.4,4.2-3.4-5.7,1.8-5.6,14.7-3.3-7.5,2.3-4.5-3.2-3.6,1.4,3.6-2.6,4.3,3.5,12.1-12.3,21.2-14.6,6.8-.2-12.9v-7.7c.1,0,5.2-12,5.2-12l5.1-5.5,9-3.7-9.9,2.1-5.7,3.6-4.5-5.9-.2-4.1-1,4.3,3.6,8.9-6.5,12.3-7.8-13.3-4.5-6.3,2-10.2,3.1-7.1,6.2-7.3-7.8,5.5-5.1,8.4-2.6,10.6-4.9-3.7-8.8-8.7-4.2,2,4.3-.3,6.8,8.8,6,5.6,7.4,7.3h-5.6l-2.8-.2-5.4-3-1.2,1.2,1.5-.4,4.2,3.1-7.7,1.9h16.6l4.1,10.3.2,8.7-9.6-1.2-7.8-3.6-6.3-5.1-3.4-6.8,1.3,7.4,4.3,4.7h-3.9c0,.1-12.2-9.2-12.2-9.2l12.5,13.2,10.8,1.1v2.2c.1,0-5.9,2.5-5.9,2.5l7.6-1.2,2-2,10.3,3.2-.9,11.6-14.2.6-12.9-7.8-6.6-5.3-5.1-8.7,2.5,9-18.3-6.3,18.6,9.7,6.9,4.3-9,2.6,11.2-.3,12,7.4-10.1,6.3,12.5-5.4,11.3,2.1v32.1c.1.7,4,1.2,8.8,1.2s8.7-.5,8.7-1.2v-24.2c-.1,0,10.8-10.8,10.8-10.8l7-1.8,2.3-4.1,5.9-3.1-7.1,1.9-2.6,3.8-4.4.6-2.9.4-.4-4.1-.7,5.6-8.7,5.9v-6.4c.1,0,.4-7.4.4-7.4l4.7-3,9.9-7.5,6.1-10.1,4.7-1.2,6-3.9,3.3.2-3.3-2-6.6,3.9h0Z" class="cls-6"/>
  <g class="cls-7">
    <path d="M343.7,185.8c-5.8,2.8-12.1,4.3-18.5,4.4-1.3,0-2.7-.1-3.5-1.1-.9-1.2-.5-2.8.1-4.2,1.1-2.9,2.6-5.6,4.3-8.2.6-.9,1.3-1.9,2.4-2.2,1.4-.4,2.8.4,3.9,1.3s2.2,1.9,3.6,2.2c1.7.3,3.4-.6,5.1-.7,1.8,0,3.6,1,4.4,2.6.6,1.6,1,4.5-1.8,5.9Z" class="cls-3"/>
    <path d="M358.5,159.2c-.6-1.7-2.4-2.8-4.2-2.8s-3.5.8-4.9,2c-1.7,1.4-3.1,3.2-4.9,4.6-2.2,1.7-4.9,2.6-7.3,4.1-1.7,1.1-3.4,2.6-4.1,4.4.8.2,1.6.7,2.3,1.3,1.1.9,2.2,1.9,3.6,2.2,1.7.3,3.4-.6,5.1-.7,1.8,0,3.6,1,4.4,2.6.3.7.5,1.6.4,2.6.6,0,1.3-.2,1.9-.4,2.3-.6,4.6-2,5.7-4.1.9-1.6,1.1-3.4,1.3-5.2.3-2.5.6-5.1.8-7.6.1-1,.2-2,0-3Z" class="cls-3"/>
    <g>
      <path d="M328.8,168.8c0,0-.1,0-.2,0,0,0,.1,0,.2,0Z" class="cls-3"/>
      <path d="M319.8,178.9c1.1-2.9,2.6-5.6,4.3-8.2.6-.9,1.3-1.9,2.4-2.2.5-.2,4-3.3,5.7-4.4,2-1.3,4.2-2.1,6.2-3.3-1-.8-2.3-1.3-3.6-1.3-2.2,0-4.2,1.7-6.4,1.6-1.6,0-3.3-1.1-4.7-1.1s-2.8.7-3.8,1.7-1.8,2.2-2.5,3.4c-1.6,2.7-3.5,6-5.1,8.8-1.5,2.6.8,5.8,3.3,5.8s2.6,0,3.9,0c0-.3.2-.6.3-.8Z" class="cls-3"/>
    </g>
    <g>
      <path d="M82.6,179.9c.8-1.6,2.6-2.6,4.4-2.6,1.7,0,3.4,1,5.1.7,1.4-.3,2.5-1.3,3.6-2.2s2.5-1.7,3.9-1.3c1.1.3,1.8,1.3,2.4,2.2,1.7,2.6,3.2,5.3,4.3,8.2.6,1.4,1,3,.1,4.2-.8,1-2.2,1.1-3.5,1.1-6.4,0-12.7-1.6-18.5-4.4-2.8-1.4-2.4-4.3-1.8-5.9Z" class="cls-3"/>
      <path d="M69.6,159.2c.6-1.7,2.4-2.8,4.2-2.8s3.5.8,4.9,2c1.7,1.4,3.1,3.2,4.9,4.6,2.2,1.7,4.9,2.6,7.3,4.1,1.7,1.1,3.4,2.6,4.1,4.4-.8.2-1.6.7-2.3,1.3-1.1.9-2.2,1.9-3.6,2.2-1.7.3-3.4-.6-5.1-.7-1.8,0-3.6,1-4.4,2.6-.3.7-.5,1.6-.4,2.6-.6,0-1.3-.2-1.9-.4-2.3-.6-4.6-2-5.7-4.1-.9-1.6-1.1-3.4-1.3-5.2-.3-2.5-.6-5.1-.8-7.6-.1-1-.2-2,0-3Z" class="cls-3"/>
      <g>
        <path d="M99.3,168.8c0,0,.1,0,.2,0,0,0-.1,0-.2,0Z" class="cls-3"/>
        <path d="M108.3,178.9c-1.1-2.9-2.6-5.6-4.3-8.2-.6-.9-1.3-1.9-2.4-2.2-.5-.2-4-3.3-5.7-4.4-2-1.3-4.2-2.1-6.2-3.3,1-.8,2.3-1.3,3.6-1.3,2.2,0,4.2,1.7,6.4,1.6,1.6,0,3.3-1.1,4.7-1.1s2.8.7,3.8,1.7,1.8,2.2,2.5,3.4c1.6,2.7,3.5,6,5.1,8.8,1.5,2.6-.8,5.8-3.3,5.8s-2.6,0-3.9,0c0-.3-.2-.6-.3-.8Z" class="cls-3"/>
      </g>
    </g>
  </g>
</svg>