<svg viewBox="0 0 433 500" xmlns:xlink="http://www.w3.org/1999/xlink" version="1.1" xmlns="http://www.w3.org/2000/svg" id="a" style="max-height: 500px" width="433" height="500">
  <defs>
    <style>
      .cls-1 {
        fill: url(#linear-gradient);
      }

      .cls-1, .cls-2, .cls-3, .cls-4, .cls-5, .cls-6 {
        stroke-width: 0px;
      }

      .cls-2 {
        fill: #e3b46a;
      }

      .cls-3 {
        opacity: .4;
      }

      .cls-3, .cls-5 {
        fill: #fffbe6;
        isolation: isolate;
      }

      .cls-4 {
        fill: #a3a3a5;
      }

      .cls-5 {
        opacity: .7;
      }

      .cls-6 {
        fill: url(#linear-gradient-2);
      }
    </style>
    <linearGradient gradientUnits="userSpaceOnUse" gradientTransform="translate(-18207.2 1944.9) rotate(-180)" y2="1853.9" x2="-18423.5" y1="1467.6" x1="-18423.5" id="linear-gradient">
      <stop stop-color="#544e48" offset="0"/>
      <stop stop-color="#bebaaf" offset="1"/>
    </linearGradient>
    <linearGradient gradientUnits="userSpaceOnUse" gradientTransform="translate(-18207.2 2780.1) rotate(-180) scale(1 -1)" y2="-2674.5" x2="-18423.5" y1="-2272.9" x1="-18423.5" id="linear-gradient-2">
      <stop stop-color="#bfbbb0" offset="0"/>
      <stop stop-color="#544e48" offset="1"/>
    </linearGradient>
  </defs>
  <path d="M429.3,126v245.9l-213,123L3.4,371.9V126L216.3,3.1l213,122.9Z" class="cls-2"/>
  <path d="M216.3,484.3L12.6,366.6v-235.3L216.3,13.7l203.8,117.7v235.3l-203.8,117.6M216.3,499l8.9-5.2,198.6-114.7,8.9-5.2V124l-8.9-5.2L225.3,4.1l-9-5.1-8.9,5.2L8.8,118.8-.1,124v250l8.9,5.2,198.6,114.7,8.9,5.1h0Z" class="cls-2"/>
  <path d="M420.1,363.4v-228.8c0-2-1.1-3.9-2.8-4.9L219.1,15.3c-1.7-1-3.9-1-5.6,0L15.4,129.7c-1.7,1-2.8,2.9-2.8,4.9v228.8c0,2,1.1,3.9,2.8,4.9l198.2,114.4c1.7,1,3.9,1,5.6,0l198.2-114.4c1.6-1.1,2.7-2.9,2.7-4.9Z" class="cls-1"/>
  <path d="M399,148.5v208.4c0,.8-.4,1.5-1.1,1.9l-180.5,104.2c-.7.4-1.5.4-2.1,0l-180.5-104.2c-.7-.4-1.1-1.1-1.1-1.9v-208.4c0-.8.4-1.5,1.1-1.9L215.3,42.5c.7-.4,1.5-.4,2.1,0l180.5,104.2c.7.4,1.1,1.1,1.1,1.8h0Z" class="cls-6"/>
  <path d="M391,348.8l.4-198.8c0-.4-.6-.4-1-.6,0,0-173.8-99.8-174.1-99.6L42.2,149.5c-.3.2-.6.6-.6,1v196.7c0,.4.2.8.5,1l173.6,103.6c.3.2.8.2,1.1,0l173.5-101.9c.5-.3.7-.7.7-1.1h0Z" class="cls-4"/>
  <path d="M322.7,161.9l-11.4,21.4c-.1.2,0,.5.3.6l12.1,3.2c.2.1.4,0,.5-.2l9.8-15.8c.1-.2.1-.4-.1-.6l-10.5-8.8c-.2-.1-.5-.1-.7.2h0ZM348,165.3l-15.8,14.5c-.1.1-.2.3-.1.4l1.4,4.8c.1.2.3.3.5.3l28.5-3.8c.2,0,.3-.2.4-.3l3.2-16.9c.1-.3-.2-.5-.4-.5l-17.3,1.3c-.2.1-.3.1-.4.2h0ZM345.9,153.1l-5.9,12.9c-.1.2-.3.3-.5.2l-8.5-1.9c-.3-.1-.4-.3-.3-.6l2.4-5.8h0c0-.1,1.2-11.4,1.2-11.4,0-.3.4-.5.6-.3l10.7,6.5c.3-.1.4.2.3.4h0ZM109.9,161.9l11.4,21.4c0,.2,0,.5-.3.6l-12.1,3.2c-.2.1-.4,0-.5-.2l-9.8-15.8v-.6l10.5-8.8c.3-.1.6-.1.7.2h.1ZM84.6,165.3l15.8,14.5c0,.1.2.3,0,.4l-1.4,4.8c0,.2-.3.3-.5.3l-28.5-3.8c-.2,0-.3-.2-.4-.3l-3.2-16.9c0-.3.2-.5.4-.5l17.3,1.3c.3.1.4.1.4.2h0ZM86.7,153.1l5.9,12.9c0,.2.3.3.5.2l8.5-1.9c.3-.1.4-.3.3-.6l-2.4-5.8h0c0-.1-1.2-11.4-1.2-11.4,0-.3-.4-.5-.6-.3l-10.7,6.5c-.3-.1-.3.2-.3.4h0Z" class="cls-3"/>
  <path d="M163.1,185.8c-1.1-.1-2.5-.9-3.2-1.8-5.1-6.5-7.6-16.8-7.6-23.4s12.5-31.7,17.4-45.7c1-2.9,3.1-5.3,5.8-6.9,10.8-6.1,25.1-15.7,33.7-14.9,12.2,7.4,15,23.1,24.1,44.6,1.1,2.6,2.7,4.9,4.6,6.9,3.1,3.2,5.6,6.2,7.4,9.7-1.2,11.8-5.1,18.4-9,31.4-15.7,1.1-31.4,1.2-42.9.9-1.4,0-2.5-1.2-2.5-2.6.2-9.2.3-14.8.3-17.9s-1.8-3.6-3.8-3.2c-6.2,1.2-13.6,6.7-20.3,12.5-.8.7-1,1.8-.5,2.8,2.1,3.6,7.5,7.6,5.9,8-2.8.8-5.2.2-9.2-.3h-.2ZM234.3,117.9c.5,5.9,4.6,15,8.1,20.6.4.7.9,1.3,1.5,1.8,4.8,4,8,3.6,10.4,5.8.8.8,1.3,1.9,1.1,3.1-1,8.6-5.5,24.7-7.4,34.9-.3,1.5.9,2.9,2.4,2.9,4.4,0,10,.2,14.7,0,1.4,0,2.8-.7,3.8-1.7,7.4-7.6,13.4-18.9,17.7-27.3.3-.6.5-1.3.6-2,.4-5.4.6-9.8-1.9-15-5.8-12.2-12.9-20.1-18.6-27.2-1.6-2-4.1-3-6.7-2.8-9.8.8-18.8,2.3-23.9,4.2-1.1.4-1.9,1.5-1.8,2.7h0Z" class="cls-5"/>
</svg>