<svg viewBox="0 0 433 500" xmlns:xlink="http://www.w3.org/1999/xlink" version="1.1" xmlns="http://www.w3.org/2000/svg" id="a" style="max-height: 500px" width="433" height="500">
  <defs>
    <style>
      .cls-1 {
        fill: url(#linear-gradient);
      }

      .cls-1, .cls-2, .cls-3, .cls-4, .cls-5 {
        stroke-width: 0px;
      }

      .cls-2 {
        opacity: .7;
      }

      .cls-2, .cls-6, .cls-7 {
        fill: #fefff3;
      }

      .cls-6, .cls-7 {
        stroke: #85b500;
        stroke-miterlimit: 10.2;
      }

      .cls-3 {
        fill: #e3b46a;
      }

      .cls-8 {
        opacity: .4;
      }

      .cls-7 {
        stroke-width: 1.2px;
      }

      .cls-4 {
        fill: url(#linear-gradient-2);
      }

      .cls-5 {
        fill: #85b500;
      }
    </style>
    <linearGradient gradientUnits="userSpaceOnUse" gradientTransform="translate(-12084.8 1944.9) rotate(-180)" y2="1853.9" x2="-12301.1" y1="1467.6" x1="-12301.1" id="linear-gradient">
      <stop stop-color="#7a8420" offset="0"/>
      <stop stop-color="#bac900" offset="1"/>
    </linearGradient>
    <linearGradient gradientUnits="userSpaceOnUse" gradientTransform="translate(-12084.8 2780.1) rotate(-180) scale(1 -1)" y2="-2674.5" x2="-12301.1" y1="-2272.9" x1="-12301.1" id="linear-gradient-2">
      <stop stop-color="#bac900" offset="0"/>
      <stop stop-color="#7a8420" offset="1"/>
    </linearGradient>
  </defs>
  <path d="M429.3,126v245.9l-213,123L3.4,371.9V126L216.3,3.1l213,122.9Z" class="cls-3"/>
  <path d="M216.3,484.3L12.6,366.6v-235.3L216.3,13.7l203.8,117.7v235.3l-203.8,117.6M216.3,499l8.9-5.2,198.6-114.7,8.9-5.2V124l-8.9-5.2L225.3,4.1l-9-5.1-8.9,5.2L8.8,118.8-.1,124v250l8.9,5.2,198.6,114.7,8.9,5.1h0Z" class="cls-3"/>
  <path d="M420.1,363.4v-228.8c0-2-1.1-3.9-2.8-4.9L219.1,15.3c-1.7-1-3.9-1-5.6,0L15.4,129.7c-1.7,1-2.8,2.9-2.8,4.9v228.8c0,2,1.1,3.9,2.8,4.9l198.2,114.4c1.7,1,3.9,1,5.6,0l198.2-114.4c1.6-1.1,2.7-2.9,2.7-4.9Z" class="cls-1"/>
  <path d="M399,148.5v208.4c0,.8-.4,1.5-1.1,1.9l-180.5,104.2c-.7.4-1.5.4-2.1,0l-180.5-104.2c-.7-.4-1.1-1.1-1.1-1.9v-208.4c0-.8.4-1.5,1.1-1.9L215.3,42.5c.7-.4,1.5-.4,2.1,0l180.5,104.2c.7.4,1.1,1.1,1.1,1.8h0Z" class="cls-4"/>
  <path d="M391,348.8l.4-198.8c0-.4-.6-.4-1-.6,0,0-173.8-99.8-174.1-99.6L42.2,149.5c-.3.2-.6.6-.6,1v196.7c0,.4.2.8.5,1l173.6,103.6c.3.2.8.2,1.1,0l173.5-101.9c.5-.3.7-.7.7-1.1h0Z" class="cls-5"/>
  <g class="cls-8">
    <path d="M84.9,188.8h-9.4c-2.2-7.9-5.4-15.6-9.5-22.7-.7-1.3.9-2.7,2.1-1.8,3.4,2.7,6.4,6.1,8.9,9.7,2,3,3.8,6.1,5.4,9.4.9,1.7,1.7,3.5,2.5,5.3h0Z" class="cls-7"/>
    <path d="M102.1,171.7c-3.7,5.4-6.6,11.2-8.7,17.1h-8.7v-.2c1.7-3,3.5-6.1,5.6-8.9.5-.7,1-1.3,1.5-2,2.3-2.8,5-5.4,8.2-7.4,1.2-.7,2.7.4,2,1.4h0Z" class="cls-6"/>
    <path d="M92.5,188.8h-9.4c-.2-1.7-.4-3.5-.8-5.4-1.5-9.2-4.5-20-7.9-27.5-.6-1.4,1.1-2.9,2.1-1.8,7.8,8.8,11.4,16.6,13.9,25.6.8,2.9,1.5,5.9,2.1,9.1h0Z" class="cls-7"/>
    <path d="M347.7,188.8h9.4c2.2-7.9,5.4-15.6,9.5-22.7.7-1.3-.9-2.7-2.1-1.8-3.4,2.7-6.4,6.1-8.9,9.7-2,3-3.8,6.1-5.4,9.4-.9,1.7-1.7,3.5-2.5,5.3.1,0,0,.1,0,.1Z" class="cls-7"/>
    <path d="M330.6,171.7c3.7,5.4,6.6,11.2,8.7,17.1h8.7c0-.1-.1-.1-.1-.2-1.7-3-3.5-6.1-5.6-8.9-.5-.7-1-1.3-1.5-2-2.3-2.8-5-5.4-8.2-7.4-1.2-.7-2.7.4-2,1.4h0Z" class="cls-6"/>
    <path d="M340.1,188.8h9.4c.2-1.7.4-3.5.8-5.4,1.5-9.2,4.5-20,7.9-27.5.6-1.4-1.1-2.9-2.1-1.8-7.8,8.8-11.4,16.6-13.9,25.6-.8,2.9-1.4,5.9-2.1,9.1h0Z" class="cls-7"/>
  </g>
  <path d="M273.1,138.8c0-37.4-43.1-28.7-66.6-28.9,3.5-4.3-.6-9.3-4.2-12.1,12.5.6,10.6-7.5-.8-7.7-9.2.9-15.6-5.3-23.3,1.6-11.1-5.4-31.1,8-6.4,6.8.8,10.2-.9,10.1-6,18.2-2.3,3.8.4,9.1,6.3,10.4,3.8.8,8.7-3.8,11.8-5.9,8.9,1.1,15-9.3,15.4-9.5.7,3.7-.7,10.2-10.3,14.8-6.8,5.7-2.2,19.5-.6,27.1,3,7.3,9.5,12.4,17.1,13.7.3,6.9,2.2,18.1-3.2,23.8-1.3,2.7,7.4.9,8.2,1.4,3.2-3.9,1.8-20.1,2.4-24.8h5.2c.4,6.9,2.2,17.8-3.2,23.4-1.3,2.7,7.4.9,8.2,1.4,3.2-3.9,1.9-20,2.4-24.8h-3.8c3.6-.2,23.4.3,26.6-.4-.1,4.9,2,16.1-1.2,20.3-.2.9-3.8,4.6-1.2,4.8h7.4l.9-1.8c1.7-2.6,1.7-22.5,2.2-25.8,2.2-1,4.2-2.3,6-3.9-.3,5.2,2.5,22.2-1.1,26.6-.2.9-3.8,4.6-1.2,4.8h7.4l.9-1.8c2.5-10,4.4-14.5,4.4-51.9h0l.3.2Z" class="cls-2"/>
</svg>