<?xml version="1.0" encoding="UTF-8"?>
<svg id="a" xmlns="http://www.w3.org/2000/svg" width="500" height="500" version="1.1" xmlns:xlink="http://www.w3.org/1999/xlink" viewBox="0 0 500 500">
  <defs>
    <style>
      .cls-1 {
        fill: url(#linear-gradient);
      }

      .cls-1, .cls-2, .cls-3, .cls-4, .cls-5 {
        stroke-width: 0px;
      }

      .cls-2 {
        fill: #e3b46a;
      }

      .cls-6 {
        opacity: .4;
      }

      .cls-3 {
        opacity: .7;
      }

      .cls-3, .cls-7, .cls-8 {
        fill: #fff;
      }

      .cls-7 {
        stroke-width: 1.1px;
      }

      .cls-7, .cls-8 {
        stroke: #fcb800;
        stroke-miterlimit: 10.2;
      }

      .cls-4 {
        fill: url(#linear-gradient-2);
      }

      .cls-5 {
        fill: #fcb800;
      }

      .cls-8 {
        stroke-width: 1.2px;
      }
    </style>
    <linearGradient id="linear-gradient" x1="-13525.6" y1="1467.6" x2="-13525.6" y2="1853.9" gradientTransform="translate(-13309.3 1944.9) rotate(-180)" gradientUnits="userSpaceOnUse">
      <stop offset="0" stop-color="#c75d27"/>
      <stop offset="1" stop-color="#ffcc12"/>
    </linearGradient>
    <linearGradient id="linear-gradient-2" x1="-13525.6" y1="-2272.9" x2="-13525.6" y2="-2674.5" gradientTransform="translate(-13309.3 2780.1) rotate(-180) scale(1 -1)" gradientUnits="userSpaceOnUse">
      <stop offset="0" stop-color="#ffcc12"/>
      <stop offset="1" stop-color="#c75d27"/>
    </linearGradient>
  </defs>
  <path class="cls-2" d="M429.3,126v245.9l-213,123L3.4,371.9V126L216.3,3.1l213,122.9Z"/>
  <path class="cls-2" d="M216.3,484.3L12.6,366.6v-235.3L216.3,13.7l203.8,117.7v235.3l-203.8,117.6M216.3,499l8.9-5.2,198.6-114.7,8.9-5.2V124l-8.9-5.2L225.3,4.1l-9-5.1-8.9,5.2L8.8,118.8-.1,124v250l8.9,5.2,198.6,114.7,8.9,5.1h0Z"/>
  <path class="cls-1" d="M420.1,363.4v-228.8c0-2-1.1-3.9-2.8-4.9L219.1,15.3c-1.7-1-3.9-1-5.6,0L15.4,129.7c-1.7,1-2.8,2.9-2.8,4.9v228.8c0,2,1.1,3.9,2.8,4.9l198.2,114.4c1.7,1,3.9,1,5.6,0l198.2-114.4c1.6-1.1,2.7-2.9,2.7-4.9Z"/>
  <path class="cls-4" d="M399,148.5v208.4c0,.8-.4,1.5-1.1,1.9l-180.5,104.2c-.7.4-1.5.4-2.1,0l-180.5-104.2c-.7-.4-1.1-1.1-1.1-1.9v-208.4c0-.8.4-1.5,1.1-1.9L215.3,42.5c.7-.4,1.5-.4,2.1,0l180.5,104.2c.7.4,1.1,1.1,1.1,1.8h0Z"/>
  <path class="cls-5" d="M391,348.8l.4-198.8c0-.4-.6-.4-1-.6,0,0-173.8-99.8-174.1-99.6L42.2,149.5c-.3.2-.6.6-.6,1v196.7c0,.4.2.8.5,1l173.6,103.6c.3.2.8.2,1.1,0l173.5-101.9c.5-.3.7-.7.7-1.1h0Z"/>
  <g class="cls-6">
    <path class="cls-7" d="M97.5,176.2c-.8.8-.9,2.2,0,3.1,2.4,2.8,5.7,4.8,9.2,5.6,1.6.4,3.3.5,4.9-.1,2.4-.9,3.8-3.7,3.5-6.3s-2.2-4.8-4.6-5.8-5.2-.9-7.6,0c-1.9.8-3.6,1.9-5.3,3.5h0Z"/>
    <path class="cls-8" d="M89.5,180.2c.4,1.3-.2,2.6-1.5,3-4,1.2-8.4,1.2-12.6-.1-1.9-.6-3.8-1.4-5-2.9-2-2.3-2.1-5.8-.4-8s4.9-3.2,7.9-2.8,5.9,2.2,7.9,4.4c1.6,1.9,2.8,3.9,3.7,6.4h0Z"/>
    <path class="cls-7" d="M95.5,172.3c-.5,1.1-1.7,1.7-2.8,1.2-3.5-1.5-6.5-4.1-8.6-7.4-.9-1.5-1.7-3.2-1.7-4.9,0-2.7,2.1-5.1,4.6-5.6s5.3.6,7.1,2.7c1.8,2,2.7,4.9,2.7,7.6s-.4,4.2-1.3,6.4Z"/>
    <path class="cls-7" d="M335.5,176.2c.8.8.9,2.2.1,3.1-2.4,2.8-5.7,4.8-9.2,5.6-1.6.4-3.3.5-4.9-.1-2.4-.9-3.8-3.7-3.5-6.3s2.2-4.8,4.6-5.8,5.2-.9,7.6,0c2,.7,3.7,1.9,5.3,3.5Z"/>
    <path class="cls-8" d="M343.6,180.2c-.4,1.3.2,2.6,1.5,3,4,1.2,8.4,1.2,12.6-.1,1.9-.6,3.8-1.4,5-2.9,2-2.3,2.1-5.8.4-8s-4.9-3.2-7.9-2.8-5.9,2.2-7.9,4.4c-1.7,1.9-2.8,3.9-3.7,6.4h0Z"/>
    <path class="cls-7" d="M337.6,172.3c.5,1.1,1.7,1.7,2.8,1.2,3.5-1.5,6.5-4.1,8.6-7.4.9-1.5,1.7-3.2,1.7-4.9,0-2.7-2.1-5.1-4.6-5.6s-5.3.6-7.1,2.7c-1.8,2-2.7,4.9-2.7,7.6-.1,2.1.3,4.2,1.3,6.4h0Z"/>
  </g>
  <path id="d" class="cls-3" d="M206.8,123.6c-1,8-4.4,11.4-8,11s-5.9-4.7-5-12.6c.9-7.9,6.2-16.4,8.7-16.2s5.3,9.8,4.3,17.8h0ZM224.9,92.8c-2.8-1-10.7,6.5-13.6,14.8-2.9,8.2-.9,13.5,3.2,15.1s8.9-1.2,11.7-9.4c2.9-8.2,1.4-19.4-1.4-20.6h.1ZM250.5,84.5c-2.3-1.8-12.2,2.9-17.4,9.9s-3.2,14.2-1.5,15.4c2,1.5,9.7,1.5,14-5.3,2.8-4.3,7.3-18,4.9-20h.1ZM186.5,123.2c-2.3,0-6.4,7.4-6.6,14.1s2.3,10,5.7,10.2,6.1-3,6.5-9.7-3.2-14.4-5.5-14.6h0ZM171.9,140c-2.2.7-4,7.2-2.5,11.9s4.9,6.2,8,5.2,5.1-4.2,3.5-8.9c-1.5-4.7-6.8-8.9-9-8.2h.1ZM266.8,88.2c-1.4-1.4-8.1.6-12.7,5.1-4.6,4.5-6.2,9-4.2,11.1s6.8.9,11.4-3.5c4.7-4.5,6.8-11.2,5.5-12.7h-.1ZM165.3,189.4c19.1-30.7,58.4-61.8,76.2-75.4.6-.5,0-1.4-.7-1-18.7,10.5-68.1,40.9-80.5,75.7,2.1.9,3.7,1.2,5,.9h0ZM242.2,142c0-3-9.1-8.9-17.1-8.1-4.9.5-10.9,2.3-11.9,8-.6,3.2,3.8,8,11.9,8.1s17.1-5,17.1-8h0ZM254.7,125.6c-.2-2.4-8.2-5.8-14.8-5.1s-9.6,3.8-9.2,7.4c.3,3.6,3.8,6.1,10.5,5.5,6.7-.7,13.7-5.4,13.5-7.9h0ZM266,109.9c-.7-2-8.1-3.1-13.6-1.3s-7.5,5.1-6.5,8c.9,2.9,4.4,4.4,10,2.5,5.5-1.8,10.7-7.2,10.2-9.1h-.1ZM217.1,154.2c-.2-2.4-3.9-6.2-10.5-5.5s-9.5,3.9-10.3,7.5c-.8,3.5,3.8,6.1,10.5,5.5s10.6-5.1,10.4-7.5h-.1ZM199.4,169.3c.6-1.5-2.4-5.7-6-7s-6-.1-6.8,2.2.1,4.9,3.7,6.1,8.5.2,9.1-1.3h0Z"/>
</svg>