<?xml version="1.0" encoding="UTF-8"?>
<svg id="a" xmlns="http://www.w3.org/2000/svg" width="500" height="500" version="1.1" xmlns:xlink="http://www.w3.org/1999/xlink" viewBox="0 0 500 500">
  <defs>
    <style>
      .cls-1 {
        fill: url(#linear-gradient);
      }

      .cls-1, .cls-2, .cls-3, .cls-4, .cls-5, .cls-6 {
        stroke-width: 0px;
      }

      .cls-2 {
        fill: #009a24;
      }

      .cls-7 {
        stroke: #009a24;
        stroke-miterlimit: 10.2;
        stroke-width: 1.1px;
      }

      .cls-7, .cls-6 {
        fill: #fff;
      }

      .cls-3 {
        fill: #feffeb;
        opacity: .6;
      }

      .cls-4 {
        fill: #e3b46a;
      }

      .cls-5 {
        fill: url(#linear-gradient-2);
      }

      .cls-8 {
        opacity: .3;
      }
    </style>
    <linearGradient id="linear-gradient" x1="-11076.6" y1="1467.6" x2="-11076.6" y2="1853.9" gradientTransform="translate(-10860.3 1944.9) rotate(-180)" gradientUnits="userSpaceOnUse">
      <stop offset="0" stop-color="#1e5612"/>
      <stop offset="1" stop-color="#1ebd31"/>
    </linearGradient>
    <linearGradient id="linear-gradient-2" x1="-11076.6" y1="-2272.9" x2="-11076.6" y2="-2674.5" gradientTransform="translate(-10860.3 2780.1) rotate(-180) scale(1 -1)" gradientUnits="userSpaceOnUse">
      <stop offset="0" stop-color="#1ebd31"/>
      <stop offset="1" stop-color="#1e5612"/>
    </linearGradient>
  </defs>
  <path class="cls-4" d="M429.3,126v245.9l-213,123L3.4,371.9V126L216.3,3.1l213,122.9Z"/>
  <path class="cls-4" d="M216.3,484.3L12.6,366.6v-235.3L216.3,13.7l203.8,117.7v235.3l-203.8,117.6M216.3,499l8.9-5.2,198.6-114.7,8.9-5.2V124l-8.9-5.2L225.3,4.1l-9-5.1-8.9,5.2L8.8,118.8-.1,124v250l8.9,5.2,198.6,114.7,8.9,5.1h0Z"/>
  <path class="cls-1" d="M420.1,363.4v-228.8c0-2-1.1-3.9-2.8-4.9L219.1,15.3c-1.7-1-3.9-1-5.6,0L15.4,129.7c-1.7,1-2.8,2.9-2.8,4.9v228.8c0,2,1.1,3.9,2.8,4.9l198.2,114.4c1.7,1,3.9,1,5.6,0l198.2-114.4c1.6-1.1,2.7-2.9,2.7-4.9Z"/>
  <path class="cls-5" d="M399,148.5v208.4c0,.8-.4,1.5-1.1,1.9l-180.5,104.2c-.7.4-1.5.4-2.1,0l-180.5-104.2c-.7-.4-1.1-1.1-1.1-1.9v-208.4c0-.8.4-1.5,1.1-1.9L215.3,42.5c.7-.4,1.5-.4,2.1,0l180.5,104.2c.7.4,1.1,1.1,1.1,1.8h0Z"/>
  <path class="cls-2" d="M391,348.8l.4-198.8c0-.4-.6-.4-1-.6,0,0-173.8-99.8-174.1-99.6L42.2,149.5c-.3.2-.6.6-.6,1v196.7c0,.4.2.8.5,1l173.6,103.6c.3.2.8.2,1.1,0l173.5-101.9c.5-.3.7-.7.7-1.1h0Z"/>
  <path class="cls-2" d="M215.6,85.7c7.2,0,13.6,3.5,17.6,8.8,8.1,1.2,14.7,6.8,17.4,14.2,8.8,2.9,15.2,11.1,15.2,20.9s-5.6,17-13.6,20.3c-.9,1.1-1.8,2.2-2.9,3.1-.9.8-1.9,1.5-2.9,2.2-3.4,2.1-7.3,3.3-11.6,3.3s-4.4-.3-6.5-1c-.8.8-1.7,1.6-2.7,2.3-3.6,2.6-8.1,4.2-12.9,4.2s-2.4-.1-3.6-.3c-5.6-.9-10.5-3.9-13.8-8.2-2.1.7-4.4,1-6.7,1-12.1,0-22-9.8-22-22s5.9-17.4,14.1-20.5c2-7.1,7.5-12.7,14.4-14.9,3.7-7.9,11.5-13.4,20.5-13.4M215.6,81.6c-9.8,0-18.8,5.5-23.2,14.2-6.9,2.7-12.2,8.2-14.8,15.2-9,4.3-14.9,13.5-14.9,23.5,0,14.4,11.7,26.1,26.1,26.1s3.5-.2,5.3-.5c3.9,4.1,9,6.8,14.6,7.7,1.4.2,2.8.3,4.2.3,5.5,0,10.8-1.7,15.2-4.9.5-.3.9-.7,1.4-1.1,1.8.4,3.6.6,5.4.6,4.9,0,9.6-1.4,13.7-3.9,1.2-.7,2.3-1.6,3.4-2.6.9-.8,1.9-1.8,2.7-2.8,9.2-4.3,15.1-13.4,15.1-23.7s-6.4-20.1-16.1-24.1c-3.4-7.6-10.2-13.1-18.3-14.8-4.9-5.9-12-9.2-19.8-9.2h0Z"/>
  <g class="cls-8">
    <path class="cls-6" d="M94.2,180.7c1.7-7,4.9-13.7,10.2-19.6.4-.5,1.3-.1,1.1.6-1.6,7.5-2.3,15.1-2.3,22.5-3.1-.8-6.1-1.8-9-3.5Z"/>
    <path class="cls-7" d="M103.9,183.1c-4-13.2-12.4-24.9-23.6-33-.9-.7-2.1.5-1.4,1.4,6.8,9.2,11.4,20.1,13.3,31.6h11.7Z"/>
    <path class="cls-6" d="M338.4,180.7c-1.7-7-4.9-13.7-10.2-19.6-.4-.5-1.3-.1-1.1.6,1.6,7.5,2.3,15.1,2.3,22.5,3.2-.8,6.2-1.8,9-3.5h0Z"/>
    <path class="cls-7" d="M328.8,183.1c4-13.2,12.4-24.9,23.6-33,.9-.7,2.1.5,1.4,1.4-6.8,9.2-11.4,20.1-13.3,31.6h-11.7Z"/>
  </g>
  <path class="cls-3" d="M219.9,175.1v-8.6c10.6,8.5,49.5,8.7,49.5,8.7l-29.8-22.8,19.6,2.6-27.4-25,19.5,4.6-25.8-28.2,15.2,3-17.6-20.3,8.9,1.8-16.8-19.3-16.8,19.3,9.4-1.9-18.1,20.4,15.2-3-25.8,28.2,19.5-4.6-27.4,25,19.6-2.6-29.8,22.8s31.8.9,48.5-8.4c0,4.4-.3,7.2-.3,7.2,0,10.4-1.8,12-5.7,15.4l-4.2,2.6h30.5l-5.4-3.1c-4-2.5-4.3-7-4.3-13.9h-.2Z"/>
</svg>