<svg width="250" height="250" viewBox="0 0 250 250" fill="none" xmlns="http://www.w3.org/2000/svg">
<path d="M189.795 194.659C167.295 194.659 149.025 183.679 149.025 170.179C149.025 152.539 166.575 139.309 189.705 139.309C213.375 139.309 230.565 152.269 230.565 170.179C230.565 181.879 214.995 194.659 189.705 194.659H189.795Z" fill="#BABABA"/>
<path d="M189.787 140.21C213.187 140.21 229.657 152.81 229.657 170.18C229.657 182.15 213.277 193.76 189.697 193.76C166.207 193.76 149.917 182.15 149.917 170.18C149.917 153.71 166.117 140.21 189.697 140.21M189.697 138.41C166.027 138.41 148.117 152.09 148.117 170.18C148.117 176.75 152.437 183.23 159.997 188C169.01 193.212 179.289 195.828 189.697 195.56C212.737 195.56 231.457 184.22 231.457 170.18C231.457 161.18 227.227 153.08 219.577 147.23C210.832 141.218 200.394 138.16 189.787 138.5L189.697 138.41Z" fill="#414042"/>
<path d="M229.023 164.959C229.833 171.439 231.723 178.999 214.623 188.539C213.723 189.079 219.843 186.739 219.303 179.449C218.943 175.759 216.693 172.609 215.613 172.789C212.013 173.509 203.553 178.729 189.693 178.639C171.243 178.369 156.303 170.719 156.303 161.089C156.303 151.459 171.243 143.629 189.693 143.629C208.143 143.629 227.313 151.279 229.023 164.959Z" fill="#7A7A7A"/>
<path d="M189.795 170.629C178.095 170.629 163.605 167.029 158.295 159.919C151.995 151.729 149.025 139.039 149.025 121.219C149.025 105.919 153.795 93.4094 162.885 85.2194C170.085 78.5594 179.895 74.7794 189.885 74.7794C197.355 74.7794 208.425 75.6794 217.065 82.6994C226.065 90.1694 230.565 103.129 230.565 121.219C230.565 139.939 226.515 154.519 219.585 161.359C213.555 167.029 202.125 170.629 189.705 170.629H189.795Z" fill="#BABABA"/>
<path d="M189.803 75.6798C207.803 75.6798 229.673 81.0798 229.673 121.22C229.673 138.77 226.073 153.8 218.873 160.64C213.023 166.4 201.683 169.73 189.713 169.73C178.103 169.73 164.063 166.13 159.023 159.38C152.813 151.28 150.023 138.41 150.023 121.22C150.023 87.4698 172.703 75.6798 189.803 75.6798ZM189.803 73.8798C179.627 73.899 169.817 77.6817 162.263 84.4998C157.455 89.2806 153.711 95.0229 151.276 101.351C148.841 107.679 147.77 114.449 148.133 121.22C148.133 139.22 151.283 152.09 157.583 160.46C163.343 168.11 178.283 171.53 189.713 171.53C202.313 171.53 214.013 167.93 220.223 161.99C227.423 155.06 231.473 140.21 231.473 121.22C231.473 102.86 226.793 89.7198 217.613 82.0698C208.793 74.7798 197.543 73.9698 189.803 73.9698V73.8798Z" fill="#414042"/>
<path d="M229.661 121.22C230.561 149.12 218.861 160.64 218.861 160.64C218.861 160.64 224.441 140.21 224.441 128.6C224.441 114.65 218.141 98.7197 214.091 101.78C202.031 110.87 187.721 108.53 178.451 107.54C168.191 106.37 157.931 92.2397 159.281 90.1697C169.181 75.0497 172.781 75.7697 189.881 75.7697C207.701 75.7697 228.401 78.1997 229.661 121.22Z" fill="#7A7A7A"/>
<path d="M189.802 100.428C164.692 100.428 155.422 79.3676 155.422 66.0476C155.422 48.7676 161.362 28.1576 189.802 28.1576C212.572 28.1576 224.002 40.9376 224.002 66.0476C224.002 78.8276 216.802 100.428 189.802 100.428Z" fill="#BABABA"/>
<path d="M189.798 29.0596C208.248 29.0596 223.098 37.2496 223.098 66.0496C223.098 80.0896 214.998 99.5296 189.798 99.5296C164.508 99.5296 156.318 77.9296 156.318 66.0496C156.318 37.8796 171.348 29.0596 189.798 29.0596ZM189.798 27.2596C160.638 27.2596 154.518 48.3196 154.518 66.0496C154.518 79.7296 164.058 101.33 189.708 101.33C201.498 101.33 211.038 97.0996 217.338 89.1796C222.371 82.5251 225.061 74.3926 224.988 66.0496C224.988 40.3096 213.108 27.2596 189.888 27.2596H189.798Z" fill="#414042"/>
<path d="M223.079 66.0494C223.079 73.9694 220.559 83.5094 213.719 90.4394C208.499 95.8394 228.299 67.3094 210.839 47.3294C192.479 26.4494 165.119 37.9694 165.119 37.9694C165.119 37.9694 172.319 28.9694 189.779 28.9694C208.229 28.9694 223.079 37.2494 223.079 66.0494Z" fill="#7A7A7A"/>
<path d="M60.0167 194.658C37.6067 194.658 19.3367 183.678 19.3367 170.178C19.3367 152.538 36.8867 139.308 60.0167 139.308C83.6867 139.308 100.877 152.268 100.877 170.178C100.877 181.878 85.3067 194.658 60.0167 194.658Z" fill="#BABABA"/>
<path d="M60.0356 140.208C83.6156 140.208 99.9956 152.808 99.9956 170.178C99.9956 182.148 83.6156 193.758 60.0356 193.758C36.5456 193.758 20.2556 182.148 20.2556 170.178C20.2556 153.708 36.4556 140.208 60.0356 140.208ZM60.0356 138.408C36.3656 138.408 18.4556 152.088 18.4556 170.178C18.4556 176.748 22.8656 183.228 30.4256 187.998C39.4386 193.21 49.7177 195.826 60.1256 195.558C83.0756 195.558 101.796 184.218 101.796 170.178C101.796 161.178 97.5656 153.078 89.9156 147.228C81.1561 141.167 70.6828 138.075 60.0356 138.408Z" fill="#414042"/>
<path d="M99.3581 164.958C100.258 171.438 102.058 178.998 84.9581 188.538C84.0581 189.078 90.1781 186.738 89.6381 179.448C89.2781 175.758 87.0281 172.608 85.9481 172.788C82.3481 173.508 73.8881 178.728 60.0281 178.638C41.5781 178.368 26.6381 170.718 26.6381 161.088C26.6381 151.458 41.5781 143.628 60.0281 143.628C78.4781 143.628 97.6481 151.278 99.3581 164.958Z" fill="#7A7A7A"/>
<path d="M60.0167 170.628C48.4067 170.628 33.9167 167.028 28.6067 159.918C22.3967 151.728 19.3367 139.038 19.3367 121.218C19.3367 105.918 24.1067 93.4078 33.1967 85.2178C40.3967 78.5578 50.2067 74.7778 60.1967 74.7778C67.6667 74.7778 78.7367 75.6778 87.3767 82.6978C96.3767 90.1678 100.877 103.128 100.877 121.218C100.877 139.938 96.9167 154.518 89.8967 161.358C83.8667 167.028 72.4367 170.628 60.0167 170.628Z" fill="#BABABA"/>
<path d="M60.2006 75.6783C78.0206 75.6783 99.9806 81.0783 99.9806 121.218C99.9806 138.768 96.3806 153.798 89.1806 160.638C83.3306 166.398 71.9906 169.728 60.0206 169.728C48.4106 169.728 34.3706 166.128 29.4206 159.378C23.1206 151.278 20.2406 138.408 20.2406 121.218C20.2406 87.4683 43.1006 75.6783 60.2006 75.6783ZM60.2006 73.8783C49.9934 73.8752 40.148 77.6594 32.5706 84.4983C27.7628 89.2791 24.0188 95.0213 21.5838 101.349C19.1488 107.677 18.0777 114.448 18.4406 121.218C18.4406 139.218 21.5906 152.088 27.8906 160.458C33.6506 168.108 48.5906 171.528 60.0206 171.528C72.6206 171.528 84.3206 167.928 90.5306 161.988C97.7306 155.058 101.781 140.208 101.781 121.218C101.781 102.858 97.1006 89.7183 87.9206 82.0683C79.1006 74.7783 67.8506 73.9683 60.1106 73.9683L60.2006 73.8783Z" fill="#414042"/>
<path d="M99.9954 121.218C100.895 149.118 89.1954 160.638 89.1954 160.638C89.1954 160.638 94.7754 140.208 94.7754 128.598C94.7754 114.648 88.4754 98.7182 84.4254 101.778C72.3654 110.868 58.0554 108.528 48.7854 107.538C38.5254 106.368 28.2654 92.2382 29.6154 90.1682C39.5154 75.0482 43.1154 75.7682 60.2154 75.7682C78.0354 75.7682 98.7354 78.1982 99.9954 121.218Z" fill="#7A7A7A"/>
<path d="M60.024 100.427C35.004 100.427 25.734 79.3672 25.734 66.0472C25.734 48.7672 31.674 28.1572 60.114 28.1572C82.884 28.1572 94.314 40.9372 94.314 66.0472C94.314 78.8272 87.114 100.427 60.114 100.427H60.024Z" fill="#BABABA"/>
<path d="M60.1998 29.0582C78.5598 29.0582 93.4998 37.2482 93.4998 66.0482C93.4998 80.0882 85.2198 99.5282 60.0198 99.5282C34.8198 99.5282 26.6298 77.9282 26.6298 66.0482C26.6298 37.8782 41.6598 29.0582 60.1098 29.0582M60.1098 27.2582C30.9498 27.2582 24.8298 48.3182 24.8298 66.0482C24.8298 79.7282 34.3698 101.328 60.0198 101.328C71.8098 101.328 81.3498 97.0982 87.6498 89.1782C92.6826 82.5237 95.3724 74.3912 95.2998 66.0482C95.2998 40.3982 83.4198 27.2582 60.1998 27.2582H60.1098Z" fill="#414042"/>
<path d="M93.5015 66.0479C93.5015 73.9679 90.8015 83.5079 84.1415 90.4379C78.8315 95.8379 98.6315 67.3079 81.1715 47.3279C62.9015 26.4479 35.5415 37.9679 35.5415 37.9679C35.5415 37.9679 42.6515 28.9679 60.1115 28.9679C78.5615 28.9679 93.4115 37.2479 93.4115 66.0479H93.5015Z" fill="#7A7A7A"/>
<path d="M124.917 221.837C100.977 221.837 81.627 210.137 81.627 195.737C81.627 177.017 100.167 162.887 124.827 162.887C150.117 162.887 168.477 176.657 168.477 195.737C168.477 208.337 151.827 221.837 124.917 221.837Z" fill="#BABABA"/>
<path d="M124.909 163.787C150.019 163.787 167.569 177.287 167.569 195.737C167.569 208.517 150.019 220.937 124.909 220.937C99.709 220.937 82.519 208.517 82.519 195.737C82.519 178.187 99.799 163.787 124.819 163.787M124.819 161.987C99.619 161.987 80.719 176.477 80.719 195.737C80.719 202.667 85.219 209.597 93.319 214.637C101.599 219.857 112.759 222.737 124.819 222.737C149.389 222.737 169.369 210.587 169.369 195.737C169.369 186.197 164.869 177.557 156.769 171.437C147.436 164.953 136.267 161.64 124.909 161.987H124.819Z" fill="#414042"/>
<path d="M166.84 190.248C167.74 197.088 169.63 205.188 151.54 215.448C150.55 215.988 157.03 213.288 156.4 205.638C156.13 201.678 153.7 198.438 152.53 198.618C148.66 199.338 139.66 204.918 124.9 204.738C105.1 204.558 89.2603 196.368 89.2603 186.018C89.2603 175.758 105.19 167.388 124.9 167.388C144.61 167.388 165.04 175.488 166.84 190.248Z" fill="#7A7A7A"/>
<path d="M124.896 196.187C112.476 196.187 96.9964 192.317 91.4164 184.847C84.7564 176.027 81.5164 162.527 81.5164 143.537C81.5164 127.157 86.6464 113.837 96.2764 105.107C104.173 97.976 114.436 94.031 125.076 94.0375C133.086 94.0375 144.876 94.9375 153.966 102.497C163.596 110.417 168.366 124.187 168.366 143.537C168.366 163.517 164.136 179.087 156.666 186.287C150.366 192.407 138.126 196.187 124.896 196.187Z" fill="#BABABA"/>
<path d="M124.999 94.9371C144.169 94.9371 167.569 100.787 167.569 143.537C167.569 162.257 163.699 178.277 156.049 185.567C149.749 191.687 137.599 195.287 124.909 195.287C112.489 195.287 97.549 191.417 92.149 184.307C85.579 175.487 82.519 161.807 82.519 143.537C82.519 107.537 106.819 94.9371 124.999 94.9371ZM124.999 93.1371C114.199 93.1371 103.489 97.2771 95.659 104.387C85.849 113.387 80.719 126.887 80.719 143.537C80.719 162.707 83.959 176.387 90.709 185.387C94.219 189.887 100.609 192.677 105.379 194.207C111.409 196.007 118.339 197.087 124.909 197.087C138.409 197.087 150.829 193.217 157.309 186.917C164.959 179.537 169.369 163.697 169.369 143.537C169.369 123.917 164.329 109.877 154.609 101.867C146.053 95.6054 135.583 92.5186 124.999 93.1371Z" fill="#414042"/>
<path d="M167.559 143.537C168.459 173.237 156.039 185.567 156.039 185.567C156.039 185.567 161.889 163.787 161.889 151.367C161.889 136.427 155.319 119.507 150.909 122.837C138.039 132.467 122.739 130.037 112.839 128.867C101.949 127.697 90.969 112.667 92.409 110.327C102.939 94.3072 106.809 95.0272 124.989 95.0272C144.159 95.0272 166.209 97.6372 167.559 143.627V143.537Z" fill="#7A7A7A"/>
<path d="M124.923 121.216C98.2828 121.216 88.3828 98.806 88.3828 84.676C88.3828 58.306 100.983 44.266 125.013 44.266C149.223 44.266 161.463 57.856 161.463 84.766C161.463 98.266 153.813 121.216 124.923 121.216Z" fill="#BABABA"/>
<path d="M125.005 45.1668C144.715 45.1668 160.555 53.9868 160.555 84.7668C160.555 99.6168 151.825 120.317 124.915 120.317C98.0049 120.317 89.2749 97.3668 89.2749 84.6768C89.2749 54.6168 105.295 45.1668 125.005 45.1668ZM125.005 43.3668C93.9549 43.3668 87.4749 65.8668 87.4749 84.7668C87.4749 99.1668 97.6449 122.117 124.915 122.117C137.425 122.117 147.595 117.617 154.255 109.247C159.385 102.677 162.355 93.7668 162.355 84.6768C162.355 57.3168 149.755 43.3668 125.005 43.3668Z" fill="#414042"/>
<path d="M160.539 84.6767C160.539 93.1367 157.839 103.307 150.549 110.687C144.969 116.357 166.029 86.0267 147.399 64.7867C127.869 42.3767 98.7092 54.7067 98.7092 54.7067C98.7092 54.7067 106.359 45.1667 124.989 45.1667C144.699 45.1667 160.539 53.9867 160.539 84.7667V84.6767Z" fill="#7A7A7A"/>
</svg>
