<svg version="1.1" id="Layer_1" xmlns="http://www.w3.org/2000/svg" x="0" y="0" width="100" height="100" xml:space="preserve"><style><![CDATA[.st0{fill:#E6AB23}.st1{fill:#808285}.st2{opacity:0.15}.st3{opacity:0.61}.st4{fill:#1B75BC}.st5{fill:#55A4B0}.st6{fill:#561706}.st7{fill:#58595B}.st9{fill:#231F20}.st10{fill:#5B2A2A}.st12{fill:#C1C1C1}.st13{fill:url(#SVGID_1_)}.st14{fill:url(#SVGID_2_)}.st15{fill:url(#SVGID_3_)}.st16{fill:url(#SVGID_4_)}.st17{fill:url(#SVGID_5_)}.st18{fill:url(#SVGID_6_)}.st19{fill:url(#SVGID_7_)}.st20{fill:url(#SVGID_8_)}.st21{fill:url(#SVGID_9_)}.st22{fill:#CCEFFE;stroke:#223948;stroke-width:6;stroke-miterlimit:10}.st23{fill:none;stroke:#58595B;stroke-width:0.75;stroke-miterlimit:10}.st24{fill:#603913}.st25{fill:#FEF4C6}.st26{fill:#FF8E6D}.st27{fill:#FFFFFF}.st28{fill:#66C2E2}.st29{fill:#CCD7CF}.st30{fill:#CCEFFE}.st31{opacity:0.42;fill:#6D330C}.st32{fill:#B4510E;stroke:#4F1607;stroke-width:0.3;stroke-miterlimit:10}.st33{fill:#D35437}.st34{fill:url(#SVGID_10_)}.st35{fill:url(#SVGID_11_)}.st36{fill:url(#SVGID_12_)}.st37{fill:url(#SVGID_13_)}.st38{fill:url(#SVGID_14_)}.st39{fill:url(#SVGID_15_)}.st40{fill:url(#SVGID_16_)}.st41{fill:#B4510E;stroke:#4F1607;stroke-width:2;stroke-miterlimit:10}.st42{fill:#A7A9AC}.st43{fill:#DD952F}.st44{fill:#414042}]]></style><g id="X_2_"><path d="M76.725 93.164a5.063 5.063 0 01-3.6-1.49L50 68.549 26.875 91.673a5.057 5.057 0 01-3.6 1.491 5.061 5.061 0 01-3.6-1.49L8.327 80.325a5.058 5.058 0 01-1.491-3.601c0-1.36.529-2.639 1.492-3.601L31.452 50 8.327 26.876c-.962-.961-1.492-2.24-1.492-3.602s.53-2.641 1.492-3.603L19.674 8.327a5.062 5.062 0 013.601-1.491 5.06 5.06 0 013.6 1.49L50 31.451 73.125 8.327a5.062 5.062 0 013.601-1.491 5.06 5.06 0 013.6 1.49l11.348 11.347c.962.961 1.491 2.24 1.491 3.602s-.529 2.641-1.491 3.602L68.549 50l23.125 23.124a5.098 5.098 0 010 7.201L80.326 91.673a5.06 5.06 0 01-3.601 1.491z" fill="#FFFFFE"/><path d="M76.725 9.336c.664 0 1.327.253 1.833.759L89.906 21.44a2.595 2.595 0 010 3.668L65.013 50l24.893 24.892a2.593 2.593 0 010 3.666L78.558 89.905a2.583 2.583 0 01-1.833.759 2.585 2.585 0 01-1.833-.759L50 65.014 25.107 89.905a2.583 2.583 0 01-1.833.759 2.583 2.583 0 01-1.833-.759L10.095 78.558a2.591 2.591 0 010-3.666L34.987 50 10.095 25.108a2.593 2.593 0 010-3.668l11.347-11.346a2.587 2.587 0 011.833-.759c.663 0 1.327.253 1.833.759L50 34.986l24.892-24.892a2.588 2.588 0 011.833-.758m0-5a7.546 7.546 0 00-5.366 2.221L50 27.915 28.643 6.56a7.54 7.54 0 00-5.368-2.224 7.55 7.55 0 00-5.367 2.221L6.56 17.904c-1.434 1.433-2.225 3.34-2.225 5.37s.791 3.938 2.226 5.371L27.916 50 6.559 71.355a7.547 7.547 0 00-2.224 5.369 7.54 7.54 0 002.226 5.37L17.906 93.44a7.548 7.548 0 005.369 2.224 7.538 7.538 0 005.367-2.223L50 72.085 71.356 93.44a7.548 7.548 0 005.369 2.224 7.543 7.543 0 005.367-2.222l11.35-11.35c2.958-2.958 2.959-7.774.001-10.735L72.084 50l21.357-21.355c2.96-2.961 2.96-7.779 0-10.739L82.093 6.559a7.544 7.544 0 00-5.368-2.223z" fill="#223948"/></g></svg>