<svg width="128" height="128" viewBox="0 0 128 128" fill="none" xmlns="http://www.w3.org/2000/svg">
<g clip-path="url(#clip0_465_47700)">
<path d="M88.7135 35.9839C119.698 38.143 120.955 61.1712 114.334 74.6352C114.026 75.2606 114.944 76.0103 115.46 75.5368C145.869 47.6174 111.902 26.8229 92.3343 26.0553L94.262 20.6632C94.4729 20.0733 93.9423 19.4853 93.3244 19.6245L71.8176 24.4668L85.4162 41.6207C85.8033 42.109 86.5816 41.9895 86.7928 41.4055C87.6363 39.0724 88.0296 37.6716 88.7135 35.9839Z" fill="#E1F6FF"/>
<path fill-rule="evenodd" clip-rule="evenodd" d="M114.334 75.8073C113.993 75.5321 113.708 75.001 113.973 74.4635C117.248 67.8039 118.558 58.8046 115.257 51.229C111.993 43.7377 101.047 37.1771 88.9801 36.403C88.6336 37.2818 88.3613 38.0886 88.0454 39.0245C87.7995 39.7533 87.5271 40.5604 87.1726 41.5408C86.8532 42.4243 85.6796 42.598 85.1003 41.8672L71.1111 24.2205L93.2359 19.2391C94.1627 19.0304 94.9587 19.9123 94.6423 20.7972L92.8943 25.6865C97.7281 25.962 103.347 27.4051 108.649 29.8258C114.15 32.3377 119.336 35.9151 122.953 40.3675C126.575 44.8254 128.63 50.1717 127.827 56.1885C127.025 62.1974 123.379 68.8107 115.735 75.8294C115.271 76.2548 114.675 76.0824 114.334 75.8073ZM114.844 75.1926C115.014 75.3302 115.134 75.2959 115.187 75.2478C122.747 68.3068 126.259 61.8511 127.029 56.0847C127.798 50.3262 125.841 45.191 122.326 40.8644C118.806 36.5323 113.732 33.0222 108.311 30.5467C102.89 28.0714 97.1501 26.6435 92.3192 26.454L91.7744 26.4326L93.8836 20.5328C93.9891 20.2379 93.7238 19.9439 93.4148 20.0135L72.5261 24.7166L85.7339 41.3777C85.9289 41.6236 86.312 41.5584 86.4149 41.2738C86.7546 40.3341 87.0239 39.537 87.2704 38.8075C87.6269 37.7524 87.9356 36.8385 88.3409 35.8382L88.45 35.5691L88.7428 35.5895C104.344 36.6767 112.562 43.0347 115.996 50.9151C119.415 58.7593 118.043 68.006 114.697 74.8104C114.653 74.8985 114.673 75.0549 114.844 75.1926Z" fill="black" stroke="#414042" stroke-width="0.64"/>
<path d="M39.2865 92.0195C8.30211 89.8604 7.04487 66.8323 13.6663 53.3682C13.9739 52.7428 13.0561 51.9931 12.5403 52.4666C-17.8694 80.386 16.0984 101.181 35.6657 101.948L33.738 107.34C33.5271 107.93 34.0577 108.518 34.6756 108.379L56.1824 103.537L42.5838 86.3828C42.1967 85.8944 41.4184 86.0139 41.2072 86.5979C40.3637 88.931 39.9704 90.3318 39.2865 92.0195Z" fill="#E1F6FF"/>
<path fill-rule="evenodd" clip-rule="evenodd" d="M13.6659 52.1962C14.0065 52.4714 14.2916 53.0024 14.0273 53.5399C10.7521 60.1995 9.44166 69.1989 12.7428 76.7745C16.0072 84.2657 26.9533 90.8263 39.0199 91.6004C39.3664 90.7216 39.6387 89.9149 39.9546 88.9789C40.2005 88.2501 40.4729 87.443 40.8274 86.4626C41.1468 85.5791 42.3204 85.4054 42.8997 86.1362L56.8889 103.783L34.7641 108.764C33.8373 108.973 33.0413 108.091 33.3577 107.206L35.1057 102.317C30.2719 102.041 24.6525 100.598 19.3512 98.1776C13.8503 95.6657 8.66405 92.0883 5.04684 87.6359C1.42517 83.178 -0.630299 77.8317 0.173095 71.8149C0.975433 65.806 4.62059 59.1927 12.2654 52.174C12.7287 51.7486 13.3253 51.921 13.6659 52.1962ZM13.1563 52.8109C12.9859 52.6732 12.8657 52.7075 12.8133 52.7556C5.25325 59.6966 1.74072 66.1524 0.970769 71.9187C0.20187 77.6772 2.15949 82.8124 5.67449 87.139C9.19394 91.4711 14.2679 94.9812 19.689 97.4567C25.1099 99.932 30.8499 101.36 35.6808 101.549L36.2256 101.571L34.1164 107.471C34.0109 107.766 34.2762 108.06 34.5852 107.99L55.4739 103.287L42.2661 86.6257C42.0711 86.3798 41.688 86.445 41.5851 86.7296C41.2454 87.6693 40.9761 88.4664 40.7296 89.1959C40.3731 90.251 40.0644 91.1649 39.6591 92.1652L39.55 92.4343L39.2572 92.4139C23.6564 91.3267 15.4377 84.9687 12.0037 77.0883C8.5855 69.2441 9.95714 59.9974 13.3035 53.193C13.3468 53.1049 13.3267 52.9485 13.1563 52.8109Z" fill="black" stroke="#414042" stroke-width="0.64"/>
<path d="M23.3775 61.3332C23.1311 61.3328 22.8949 61.2323 22.7207 61.0537C22.5465 60.8752 22.4485 60.6331 22.4482 60.3806V3.61876C22.4486 3.3663 22.5466 3.12428 22.7208 2.94577C22.895 2.76726 23.1312 2.66683 23.3775 2.6665H61.5187C61.7651 2.66675 62.0013 2.76714 62.1756 2.94566C62.3499 3.12418 62.4479 3.36625 62.4482 3.61876V60.3806C62.448 60.6332 62.3499 60.8753 62.1757 61.0539C62.0014 61.2324 61.7651 61.3329 61.5187 61.3332H23.3775V61.3332Z" fill="url(#paint0_radial_465_47700)"/>
<path d="M61.9389 3.2V60.8H22.957V3.2H61.9389V3.2ZM62.547 0H22.3485C20.9305 0 19.7812 1.15808 19.7812 2.58688V61.4128C19.7812 62.8419 20.9305 64 22.3485 64H62.547C63.965 64 65.1146 62.8419 65.1146 61.4128V2.58688C65.1146 1.15824 63.965 0 62.547 0V0Z" fill="#F9E141"/>
<path d="M62.547 1.6C62.8067 1.60025 63.0557 1.7043 63.2394 1.88931C63.423 2.07432 63.5264 2.32519 63.5267 2.58688V61.4128C63.5264 61.6745 63.4231 61.9255 63.2394 62.1105C63.0558 62.2956 62.8068 62.3997 62.547 62.4H22.3485C22.0888 62.3996 21.8399 62.2955 21.6563 62.1104C21.4727 61.9254 21.3694 61.6745 21.3691 61.4128V2.58688C21.3694 2.32525 21.4727 2.07443 21.6563 1.88942C21.8399 1.70442 22.0889 1.60034 22.3485 1.6H62.547ZM62.547 0H22.3485C20.9305 0 19.7812 1.15808 19.7812 2.58688V61.4128C19.7812 62.8419 20.9305 64 22.3485 64H62.547C63.965 64 65.1146 62.8419 65.1146 61.4128V2.58688C65.1146 1.15824 63.965 0 62.547 0Z" fill="#414042"/>
<path d="M43.3475 48.0486C43.1926 48.0495 43.0389 48.0224 42.8935 47.9684C42.4224 47.7906 42.0903 47.3145 42.0474 46.7555C42.013 46.3052 42.1477 45.8916 42.301 45.4724C42.3785 45.2608 42.4887 44.9877 42.6575 44.7427C43.6349 42.9894 45.2287 41.6349 46.8058 40.4323C47.8897 39.6056 48.7492 39.0091 49.592 38.4985C50.8016 37.7654 56.1283 36.4072 57.1177 36.4072C57.2067 36.4072 57.4433 36.4072 57.5459 36.616C57.7173 36.9654 57.3132 37.2084 56.7013 37.5761C56.2226 37.8638 55.5388 38.2451 54.8148 38.6486C53.0648 39.6242 50.8871 40.8383 50.0268 41.5974C48.911 42.5818 47.9378 43.7375 46.9964 44.8551C46.3443 45.6293 45.67 46.43 44.9483 47.1755C44.7084 47.4232 44.4465 47.6796 44.1134 47.853C43.8678 47.9808 43.6029 48.0486 43.3475 48.0486V48.0486Z" fill="#FFC55E"/>
<path d="M57.1186 36.7215C57.2054 36.7215 57.2575 36.7326 57.269 36.7559C57.4088 37.0409 51.4443 39.9291 49.8238 41.3589C47.9166 43.0419 46.4871 45.1364 44.7276 46.9538C44.502 47.1868 44.266 47.4188 43.9725 47.5718C43.7828 47.6707 43.5639 47.7328 43.3485 47.7328C43.2306 47.7337 43.1134 47.7132 43.0026 47.6724C42.6121 47.525 42.388 47.1219 42.358 46.7304C42.3281 46.3387 42.4573 45.9529 42.5931 45.5814C42.6781 45.3493 42.7787 45.1139 42.9212 44.9106C43.8558 43.2267 45.4095 41.8911 46.9933 40.6836C47.8812 40.0064 48.7903 39.3511 49.7524 38.7683C50.874 38.0883 56.1502 36.7215 57.1186 36.7215V36.7215ZM57.1186 36.0913C56.0554 36.0913 50.6923 37.4642 49.4336 38.2273C48.581 38.7439 47.7132 39.3461 46.62 40.1799C45.0196 41.4001 43.4013 42.7767 42.3952 44.5743C42.2112 44.8449 42.0935 45.1363 42.0107 45.362C41.8516 45.7977 41.6994 46.2656 41.7387 46.7794C41.791 47.4604 42.202 48.0428 42.786 48.2633C42.9619 48.3296 43.1512 48.3632 43.3483 48.3632C43.6528 48.3632 43.9666 48.2834 44.2562 48.1325C44.6299 47.9378 44.9128 47.6619 45.1704 47.3958C45.8999 46.6423 46.5778 45.8374 47.2333 45.0592C48.1672 43.9503 49.133 42.8038 50.2314 41.8347C51.0665 41.0978 53.2282 39.8927 54.965 38.9243C55.7229 38.5019 56.3773 38.137 56.8604 37.8468C57.1299 37.6848 57.3271 37.5572 57.4626 37.4565C57.9741 37.0774 57.942 36.7137 57.825 36.4753C57.7387 36.2998 57.5463 36.0913 57.1186 36.0913V36.0913Z" fill="#965F0F"/>
<path d="M39.3857 47.5805C39.0851 47.5805 38.8021 47.471 38.6175 47.3793C37.8091 46.978 37.2039 46.3381 36.6189 45.7194L36.5199 45.615C35.2112 44.2365 33.8259 42.9349 32.3709 41.7167C31.6529 41.1155 30.8685 40.4917 29.9979 40.0022C29.5267 39.7372 28.6033 39.6535 27.9922 39.5982C27.2947 39.535 26.9446 39.5032 26.9733 39.1234C26.9895 38.9165 27.0093 38.6597 28.8078 38.6597C29.3685 38.6597 30.4164 38.6965 31.1364 38.9436C32.1984 39.308 33.2877 39.8492 34.5653 40.6472C35.1253 40.997 35.5769 41.3044 35.9857 41.6143C36.9736 42.3627 37.8486 43.2357 38.6946 44.0799L39.2947 44.6788C39.711 45.0938 40.4856 45.8667 40.3195 46.7813C40.2743 47.0301 40.1621 47.2353 39.9948 47.3745C39.8306 47.5111 39.6255 47.5805 39.3857 47.5805V47.5805Z" fill="#FFC55E"/>
<path d="M28.808 38.975C29.5754 38.975 30.4622 39.0451 31.037 39.2422C32.2331 39.6524 33.3439 40.2543 34.4026 40.9156C34.8821 41.2149 35.3524 41.5275 35.8 41.8667C36.7689 42.6006 37.6247 43.4539 38.4772 44.3046C38.6773 44.5041 38.8774 44.7037 39.0773 44.9033C39.5892 45.4139 40.1396 46.0349 40.0143 46.7242C39.9867 46.8762 39.9215 47.0281 39.798 47.131C39.6822 47.2274 39.5381 47.2655 39.3856 47.2655C39.1734 47.2655 38.9448 47.1913 38.754 47.0965C37.951 46.6977 37.3463 46.0324 36.7438 45.3966C35.427 44.0092 34.0329 42.6995 32.5685 41.4739C31.8083 40.8373 31.0234 40.2187 30.1485 39.7268C29.2732 39.2349 27.2696 39.3235 27.283 39.1478C27.2901 39.0566 27.9794 38.975 28.808 38.975V38.975ZM28.808 38.3447C28.388 38.3447 27.9831 38.3647 27.6676 38.401C27.3328 38.4394 26.7096 38.5109 26.6639 39.0982C26.6526 39.2467 26.672 39.7369 27.3923 39.8502C27.5432 39.874 27.7384 39.8916 27.9646 39.9121C28.5139 39.9619 29.4336 40.0452 29.8475 40.2779C30.6961 40.755 31.4668 41.3682 32.1733 41.9598C33.6192 43.1704 34.9958 44.4637 36.2964 45.8335L36.3949 45.9375C36.9989 46.5761 37.6233 47.2364 38.4814 47.6623C38.6953 47.7686 39.026 47.8955 39.3859 47.8955C39.6951 47.8955 39.9738 47.7995 40.1919 47.618C40.4169 47.4307 40.5666 47.1611 40.6253 46.8379C40.8214 45.7588 39.9701 44.9098 39.513 44.4535C39.3131 44.254 39.1128 44.0541 38.9125 43.8546C38.0593 43.0033 37.1768 42.1228 36.1717 41.3615C35.7553 41.0459 35.2967 40.7336 34.7284 40.3786C33.4307 39.568 32.321 39.017 31.2363 38.645C30.474 38.3838 29.3876 38.3447 28.808 38.3447V38.3447Z" fill="#965F0F"/>
<path d="M39.0671 41.5734L39.0158 41.5611C38.702 41.4773 38.4048 41.0666 37.9069 40.3478C37.7342 40.0987 37.5557 39.8411 37.4012 39.649C37.1177 39.2963 36.8244 38.9315 36.4999 38.6089C36.1008 38.2125 35.6518 37.8732 35.1765 37.5142C34.8191 37.2441 34.4496 36.9651 34.1063 36.661C33.1046 35.7741 32.5623 34.8081 32.5377 33.8677C32.5241 33.3468 32.7331 32.9328 33.0969 32.7601C33.2214 32.7008 33.361 32.6709 33.5117 32.6709C33.6951 32.6709 33.8914 32.7138 34.112 32.802C35.1602 33.2209 35.8645 34.121 36.3031 34.7617C36.4904 35.0353 36.7005 35.3643 36.8383 35.7281C36.922 35.9488 36.9758 36.1716 37.0276 36.3872C37.0441 36.456 37.0608 36.5249 37.0782 36.5934C37.3108 37.5024 38.1881 38.9588 38.7688 39.9226C39.4071 40.9823 39.5223 41.1732 39.3948 41.4033C39.366 41.455 39.3242 41.4979 39.2736 41.5278C39.223 41.5576 39.1655 41.5733 39.107 41.5731H39.0671V41.5734Z" fill="#FFC55E"/>
<path d="M33.5126 32.9862C33.6765 32.9862 33.8463 33.0342 33.9991 33.0952C34.8858 33.4496 35.5299 34.1831 36.0491 34.9414C36.2444 35.2269 36.4284 35.5219 36.5495 35.8412C36.652 36.1111 36.7076 36.3941 36.7789 36.6725C37.1881 38.2723 39.362 41.258 39.1082 41.258C39.104 41.2579 39.0998 41.2573 39.0958 41.2561C38.7667 41.1682 38.1272 40.0516 37.6429 39.4496C37.3487 39.0838 37.0537 38.7171 36.7183 38.3836C35.9887 37.6588 35.0844 37.1078 34.3117 36.4236C33.5386 35.7392 32.8751 34.8532 32.8493 33.8595C32.8411 33.5471 32.9309 33.1874 33.2296 33.0456C33.3183 33.0035 33.4145 32.9862 33.5126 32.9862ZM33.5126 32.356C33.3161 32.356 33.1321 32.396 32.966 32.4751C32.4871 32.7024 32.2114 33.2265 32.2283 33.8765C32.2551 34.9073 32.8341 35.9523 33.9031 36.8988C34.2554 37.2106 34.6298 37.4935 34.992 37.7671C35.4588 38.1197 35.8996 38.4527 36.2837 38.8342C36.5956 39.1443 36.8832 39.5021 37.1614 39.8482C37.3089 40.0316 37.4842 40.2845 37.6536 40.529C38.1935 41.308 38.5191 41.754 38.9377 41.8657C38.9937 41.8807 39.051 41.8884 39.1082 41.8884C39.2219 41.8885 39.3336 41.8579 39.4318 41.7997C39.53 41.7415 39.6112 41.6579 39.667 41.5574C39.8632 41.2022 39.6774 40.8663 39.5136 40.57C39.3956 40.3566 39.2284 40.0792 39.0349 39.7579C38.4638 38.8101 37.6012 37.3777 37.3802 36.5142C37.363 36.4471 37.3468 36.3798 37.3307 36.3125C37.2763 36.0874 37.2204 35.8545 37.1293 35.6147C36.9798 35.22 36.7573 34.8712 36.5595 34.5821C36.0977 33.9076 35.3537 32.9591 34.227 32.5089C33.9693 32.4059 33.7358 32.356 33.5126 32.356Z" fill="#965F0F"/>
<path d="M35.7964 33.8889L35.768 33.8396C35.392 33.184 34.8016 32.6211 34.1059 32.2545C33.9841 32.1915 33.8609 32.1313 33.7365 32.0739C33.5294 31.9764 33.3153 31.8757 33.1111 31.7495C32.8013 31.5581 32.5382 31.3228 32.3214 31.1178C32.0654 30.8754 31.7395 30.5478 31.4917 30.1629C31.1331 29.6066 30.9478 28.9418 30.9695 28.2911C30.9889 27.72 31.1847 27.2765 31.5356 27.0086C31.7753 26.8257 32.072 26.7329 32.4175 26.7329C32.7475 26.7329 33.121 26.823 33.4693 26.9866C34.3948 27.421 35.1838 28.2027 35.8814 29.3765C36.0877 29.7238 36.234 30.0157 36.3419 30.2952C36.7993 31.4832 36.6846 32.7705 36.5835 33.9063L36.5307 34.4971L35.7964 33.8889V33.8889Z" fill="#FFC55E"/>
<path d="M32.4185 27.0477C32.7306 27.0477 33.059 27.1402 33.34 27.2722C34.3464 27.7447 35.0701 28.6195 35.6165 29.539C35.7833 29.8196 35.9373 30.1079 36.0538 30.4098C36.4769 31.5084 36.3789 32.714 36.2752 33.8776L36.0375 33.6807C35.6299 32.9701 35.0024 32.3709 34.25 31.9745C33.9274 31.8045 33.5825 31.6709 33.2735 31.4801C33.0021 31.3124 32.7629 31.1034 32.5342 30.887C32.2436 30.6121 31.9659 30.3214 31.7527 29.9904C31.4269 29.4849 31.2611 28.8911 31.2808 28.3015C31.2939 27.9166 31.4036 27.504 31.7233 27.2602C31.9213 27.109 32.1645 27.0477 32.4185 27.0477V27.0477ZM32.4185 26.4175C32.01 26.4175 31.6404 26.5349 31.3498 26.7567C30.9212 27.0836 30.6827 27.6103 30.6601 28.2799C30.6363 28.9953 30.8396 29.7249 31.2329 30.3353C31.4987 30.7482 31.8415 31.0934 32.1104 31.348C32.3387 31.5639 32.6168 31.8122 32.9504 32.0184C33.1697 32.1538 33.3919 32.2584 33.6069 32.3595C33.7271 32.4149 33.8461 32.473 33.9637 32.5338C34.6079 32.8732 35.1538 33.3931 35.5005 33.9978L35.5572 34.0966L35.6446 34.1689L35.8823 34.3659L36.7883 35.1163L36.8936 33.9345C36.9979 32.764 37.1163 31.4375 36.6321 30.1805C36.5177 29.8836 36.3638 29.5765 36.1483 29.2136C35.4176 27.9842 34.5843 27.1622 33.6007 26.7005C33.3259 26.5713 32.8978 26.4175 32.4185 26.4175V26.4175Z" fill="#965F0F"/>
<path d="M36.5966 29.4194C36.387 28.6849 35.9129 28.0252 35.2614 27.5618C35.0282 27.3959 34.7716 27.2521 34.4998 27.0997C33.9089 26.7687 33.2981 26.4265 32.9295 25.8336C32.7209 25.4985 32.6239 25.1246 32.5626 24.8363C32.4809 24.4514 32.4238 24.0014 32.6219 23.5821C32.8393 23.1209 33.3487 22.811 33.8892 22.811C33.9493 22.811 34.0095 22.815 34.0682 22.8229C34.6363 22.899 35.0663 23.2998 35.3773 23.6404C35.8387 24.1457 36.1475 24.595 36.3494 25.0542C36.5497 25.5098 36.6469 25.9856 36.7408 26.4457L37.336 29.3652L36.7303 29.887L36.5966 29.4194Z" fill="#FFC55E"/>
<path d="M33.8894 23.1258C33.9356 23.1258 33.9819 23.1288 34.0279 23.135C34.4876 23.1966 34.8488 23.5248 35.1497 23.8542C35.5172 24.2568 35.8512 24.693 36.0661 25.1822C36.2522 25.6059 36.3451 26.0594 36.437 26.5093L36.9947 29.2456L36.8952 29.3313C36.6668 28.5309 36.1462 27.8056 35.4402 27.3034C34.6766 26.7603 33.6743 26.44 33.1924 25.6652C33.0219 25.3912 32.9325 25.0802 32.8663 24.7695C32.7919 24.4198 32.748 24.0441 32.902 23.7179C33.0691 23.3642 33.4773 23.1258 33.8894 23.1258V23.1258ZM33.8894 22.4956C33.2318 22.4956 32.61 22.8775 32.3418 23.446C32.1021 23.9536 32.1717 24.4909 32.2592 24.9024C32.326 25.2163 32.4327 25.6247 32.6671 26.0015C33.0784 26.663 33.754 27.0414 34.3501 27.3754C34.6143 27.5235 34.864 27.6634 35.0837 27.8196C35.6771 28.2418 36.1088 28.841 36.2987 29.5067L36.5656 30.4423L37.2972 29.8119L37.3967 29.7262L37.6776 29.4842L37.6031 29.1182L37.0453 26.3819C36.948 25.9051 36.8474 25.4124 36.6336 24.9257C36.4173 24.434 36.0908 23.9574 35.6054 23.426C35.2591 23.0466 34.776 22.5994 34.1094 22.5101C34.0369 22.5006 33.963 22.4956 33.8894 22.4956V22.4956Z" fill="#965F0F"/>
<path d="M38.2021 23.402L38.5563 23.3385C38.5818 23.3319 38.5975 23.3281 38.6131 23.3251L39.1889 23.2134L38.9192 23.8474L38.5959 24.6033L38.2021 23.402V23.402Z" fill="#FFC55E"/>
<path d="M38.6725 23.6348L38.6352 23.7222L38.6113 23.6491C38.6318 23.6455 38.6518 23.6389 38.6725 23.6348V23.6348ZM39.7072 22.7925L38.5559 23.0157C38.5342 23.0198 38.5129 23.025 38.4915 23.0305L37.7949 23.1553L38.0219 23.848L38.0458 23.9211L38.5585 25.4848L39.2051 23.9729L39.2428 23.8843L39.7072 22.7925V22.7925Z" fill="#965F0F"/>
<path d="M38.4593 21.5155C38.4638 21.2645 38.3483 20.9876 38.1062 20.6694C38.0104 20.5433 37.9058 20.423 37.7951 20.2953C37.6476 20.1255 37.4951 19.9501 37.3611 19.7562C37.125 19.4164 36.9579 19.0323 36.8697 18.6264C36.7616 18.1255 36.8391 17.7094 37.0936 17.4229C37.2957 17.1959 37.5976 17.0708 37.9437 17.0708C38.2286 17.0708 38.511 17.1556 38.7393 17.3095C39.1086 17.5583 39.3765 17.9648 39.5583 18.5523C39.9221 19.728 39.7802 20.8635 39.1689 21.6677L39.1074 21.7485L38.4517 21.9448L38.4593 21.5155V21.5155Z" fill="#FFC55E"/>
<path d="M37.9433 17.3856C38.1629 17.3856 38.3892 17.4516 38.567 17.5715C38.9376 17.8211 39.135 18.2366 39.2618 18.6462C39.5536 19.5892 39.5314 20.6739 38.9227 21.4746L38.7696 21.5205C38.7763 21.1427 38.5861 20.7844 38.3518 20.4762C38.1174 20.1679 37.8348 19.8925 37.6152 19.5747C37.4031 19.2688 37.2527 18.9234 37.1727 18.5583C37.1045 18.2419 37.1033 17.8819 37.3241 17.6336C37.4758 17.463 37.7056 17.3856 37.9433 17.3856V17.3856ZM37.9433 16.7554C37.5082 16.7554 37.1247 16.9173 36.863 17.2113C36.6364 17.4661 36.4012 17.9298 36.5659 18.6932C36.6629 19.1399 36.8466 19.5625 37.1063 19.9364C37.2503 20.1449 37.4086 20.327 37.5617 20.5033C37.6689 20.6268 37.7703 20.7436 37.8599 20.8613C38.0546 21.1172 38.1517 21.3352 38.1486 21.5093L38.1334 22.3681L38.9452 22.125L39.0983 22.0792L39.2913 22.0214L39.4143 21.8596C40.0885 20.9728 40.2487 19.7327 39.8542 18.4574C39.6503 17.7984 39.3415 17.3368 38.9103 17.0464C38.6322 16.8587 38.2886 16.7554 37.9433 16.7554V16.7554Z" fill="#965F0F"/>
<path d="M39.9399 19.1637L39.9403 19.083C39.9428 18.6163 39.806 18.154 39.6612 17.6647C39.6202 17.5262 39.5793 17.3877 39.5415 17.249C39.3747 16.6369 39.2249 15.8402 39.5489 15.1067C39.684 14.8014 39.8754 14.5824 40.118 14.4556C40.256 14.3842 40.4087 14.347 40.5636 14.3472C40.7779 14.3472 40.9747 14.4196 41.118 14.5512C41.2732 14.6936 41.3415 14.8807 41.3795 15.0089C41.5705 15.6543 41.4644 16.3158 41.3213 16.9346C41.1355 17.7344 40.8862 18.5177 40.5759 19.2768L40.3259 19.8876L39.9399 19.1637Z" fill="#FFC55E"/>
<path d="M40.5633 14.6625C40.692 14.6625 40.8181 14.7011 40.9094 14.785C41.0004 14.8685 41.0477 14.9848 41.0816 15.0997C41.2511 15.6722 41.1528 16.2821 41.0185 16.8627C40.8369 17.646 40.5928 18.4131 40.2886 19.1563L40.2504 19.0846C40.2537 18.4301 40.0133 17.7994 39.8404 17.1649C39.6674 16.5304 39.5645 15.8408 39.8318 15.2356C39.9206 15.0348 40.0565 14.8419 40.2597 14.7357C40.3539 14.6876 40.4579 14.6625 40.5633 14.6625V14.6625ZM40.5633 14.0322C40.3591 14.0321 40.1578 14.0812 39.9759 14.1754C39.6731 14.3336 39.4277 14.6111 39.2654 14.9777C38.8965 15.8123 39.0754 16.7215 39.242 17.333C39.2803 17.4739 39.3219 17.6146 39.3635 17.7553C39.5014 18.2215 39.6317 18.6618 39.6295 19.0814L39.6287 19.2426L39.7042 19.3844L39.7424 19.4561L40.3625 20.6196L40.8623 19.398C41.1792 18.6232 41.4336 17.8236 41.6231 17.007C41.7762 16.3455 41.8887 15.6347 41.6766 14.9183C41.628 14.7541 41.5388 14.5129 41.3261 14.3177C41.1258 14.1337 40.8547 14.0322 40.5633 14.0322Z" fill="#965F0F"/>
<path d="M41.5518 16.6428L41.5524 16.6253C41.5763 15.9703 41.7141 15.3248 41.9592 14.7184C42.0362 14.5271 42.1325 14.3297 42.3137 14.1802C42.4554 14.0637 42.6317 13.9993 42.8141 13.9976C42.9333 13.9976 43.0478 14.028 43.1451 14.0856C43.3668 14.2169 43.4839 14.4575 43.4937 14.8009C43.5074 15.3057 43.3836 15.791 43.136 16.2051C42.8701 16.648 42.4717 16.9931 41.9988 17.1898L41.6038 17.3526L41.5518 16.6428V16.6428Z" fill="#FFC55E"/>
<path d="M42.8136 14.3128C42.875 14.3128 42.9354 14.3267 42.9884 14.3581C43.1415 14.4488 43.178 14.6409 43.1828 14.8101C43.1943 15.2368 43.093 15.6686 42.8699 16.0414C42.6387 16.4264 42.2924 16.7265 41.8813 16.8977L41.8622 16.637C41.8853 16.019 42.0153 15.41 42.2462 14.8377C42.3072 14.6864 42.3793 14.532 42.5091 14.4249C42.5954 14.3541 42.7026 14.3147 42.8136 14.3128V14.3128ZM42.8136 13.6826C42.5661 13.6826 42.3122 13.775 42.1173 13.9358C41.8813 14.1304 41.7594 14.3803 41.6714 14.599C41.4124 15.2397 41.2669 15.9218 41.2416 16.6138L41.2402 16.6488L41.2429 16.6836L41.262 16.9443L41.3252 17.8071L42.115 17.4816C42.6498 17.2594 43.1004 16.8692 43.4009 16.3683C43.6796 15.9026 43.8188 15.3578 43.8035 14.7928C43.7872 14.2196 43.5216 13.9442 43.3017 13.8137C43.1532 13.7271 42.9848 13.6819 42.8136 13.6826V13.6826Z" fill="#965F0F"/>
<path d="M41.3613 19.1824L41.1338 19.0233L41.1346 18.857C41.1369 18.3119 41.41 17.7879 41.8657 17.4554C41.9774 17.3738 42.0927 17.3084 42.2042 17.2454C42.2981 17.1921 42.387 17.1419 42.4657 17.0863C42.6408 16.9627 42.7871 16.8001 42.9602 16.6004C43.088 16.4529 43.2327 16.2864 43.44 16.1718C43.5797 16.0946 43.736 16.0533 43.8951 16.0518C44.0302 16.0518 44.1595 16.0848 44.269 16.1476C44.5099 16.2857 44.6554 16.5648 44.6582 16.8941C44.663 17.3978 44.3669 17.9172 43.8662 18.2831C43.4508 18.5862 42.9722 18.754 42.5093 18.9164L41.4951 19.2716L41.3613 19.1824V19.1824Z" fill="#FFC55E"/>
<path d="M43.8945 16.3671C43.9725 16.3671 44.0489 16.3839 44.1158 16.4222C44.2816 16.5174 44.3456 16.7153 44.3471 16.8971C44.3513 17.3422 44.0596 17.7534 43.6842 18.0277C43.3084 18.302 42.8536 18.4624 42.4072 18.6188L41.5371 18.9236L41.4446 18.8588C41.4464 18.4181 41.6747 17.983 42.0465 17.7116C42.234 17.5747 42.4526 17.4792 42.6425 17.3453C42.8547 17.1956 43.0257 17.0017 43.1927 16.8088C43.3092 16.6746 43.4287 16.5369 43.5879 16.449C43.6819 16.3966 43.7873 16.3684 43.8945 16.3671V16.3671ZM43.8945 15.7368C43.6838 15.7379 43.4767 15.7922 43.2918 15.8947C43.0354 16.0363 42.8643 16.2335 42.7269 16.3918C42.5676 16.5758 42.4344 16.7244 42.2881 16.8276C42.2217 16.8745 42.1396 16.9212 42.0525 16.9705C41.9388 17.0349 41.8099 17.1079 41.6838 17.2001C41.148 17.5913 40.8265 18.2103 40.8237 18.8561L40.8223 19.1886L41.0918 19.3775L41.1843 19.4422L41.4429 19.6233L41.7397 19.5193L42.6097 19.2146C43.0718 19.0528 43.5949 18.8694 44.0469 18.5393C44.6384 18.1071 44.9741 17.5063 44.9682 16.8911C44.9645 16.4484 44.76 16.0679 44.4214 15.8736C44.2602 15.7829 44.0788 15.7358 43.8945 15.7368V15.7368Z" fill="#965F0F"/>
<path d="M41.7501 43.1306L41.5905 43.1095L41.5023 42.9847C41.27 42.637 41.7003 39.9795 41.8594 39.3452C42.1272 38.2782 42.3603 37.151 42.0215 36.1321C41.9082 35.791 41.7329 35.4663 41.5472 35.1227C41.2863 34.6399 41.0168 34.1405 40.92 33.574C40.8322 33.0577 40.8966 32.5266 41.1051 32.0473C41.2636 31.6812 41.484 31.418 41.7599 31.2654C41.9434 31.1637 42.1595 31.1099 42.3851 31.1099C42.7244 31.1099 43.0756 31.2299 43.349 31.439C43.7062 31.7122 43.965 32.1286 44.1182 32.6764C44.3336 33.4452 44.3018 34.2326 44.2549 34.9104C44.1939 35.7962 44.0819 36.7343 43.6787 37.5936C43.5861 37.791 43.4801 37.9801 43.3776 38.1629C43.2609 38.3707 43.1506 38.5671 43.061 38.771C42.9376 39.0527 42.8506 39.3593 42.7663 39.656C42.6184 40.1756 42.4743 40.9822 42.3586 41.6303C42.1215 42.9587 42.0908 43.1304 41.7711 43.1304L41.7501 43.1306V43.1306Z" fill="#FFC55E"/>
<path d="M42.3853 31.4247C42.6618 31.4247 42.9458 31.5247 43.1623 31.6903C43.5091 31.9559 43.7063 32.3571 43.8197 32.7623C44.0128 33.4521 43.9943 34.1768 43.9453 34.8882C43.8849 35.7644 43.7757 36.6538 43.3986 37.4581C43.2096 37.861 42.9564 38.2358 42.7777 38.6426C42.6463 38.9421 42.5569 39.256 42.4681 39.5687C42.1598 40.6513 41.8911 42.8153 41.7707 42.8153H41.7694C41.6498 42.7994 41.8807 40.5385 42.1606 39.423C42.4406 38.3075 42.6798 37.1257 42.3159 36.0314C42.0283 35.1661 41.3792 34.4149 41.2262 33.5203C41.1496 33.065 41.2064 32.5969 41.3897 32.1742C41.4983 31.9235 41.6599 31.6799 41.9089 31.542C42.054 31.4612 42.2184 31.4247 42.3853 31.4247V31.4247ZM42.3853 30.7944C42.1078 30.7944 41.84 30.8616 41.611 30.9885C41.2737 31.1752 41.0078 31.4888 40.821 31.9202C40.5877 32.4561 40.5157 33.0501 40.6142 33.6274C40.7199 34.2457 41.002 34.7683 41.275 35.2739C41.4537 35.6051 41.6226 35.9178 41.7273 36.2325C42.0391 37.1701 41.8148 38.2459 41.5587 39.2673C41.4299 39.7802 41.2978 40.5757 41.2053 41.3954C41.0404 42.8546 41.1309 42.9899 41.2455 43.1613C41.2958 43.2369 41.3613 43.3008 41.4377 43.3489C41.5141 43.3969 41.5997 43.428 41.6888 43.44L41.7288 43.4454H41.7707C42.3131 43.4454 42.4274 42.907 42.4958 42.5853C42.5457 42.3507 42.6008 42.043 42.6643 41.6864C42.7787 41.0455 42.9213 40.2476 43.0647 39.7436C43.1461 39.4569 43.2303 39.1607 43.3452 38.8986C43.4284 38.7094 43.5351 38.5196 43.6476 38.3185C43.7531 38.1309 43.862 37.9368 43.9596 37.7288C44.3847 36.8221 44.5019 35.8488 44.5649 34.9322C44.6135 34.2279 44.6463 33.4078 44.4173 32.5901C44.2451 31.9748 43.9485 31.5028 43.5365 31.1872C43.2099 30.9377 42.7905 30.7944 42.3853 30.7944V30.7944Z" fill="#965F0F"/>
<path d="M43.9535 37.485L43.9736 37.4446C44.3928 36.6036 44.9146 35.5568 45.7388 34.7648C45.943 34.5686 46.2248 34.3291 46.594 34.2168C46.7246 34.1773 46.8602 34.1574 46.9965 34.1577C47.7028 34.1577 48.3485 34.6553 48.4665 35.2905C48.5504 35.7424 48.3945 36.2318 48.0389 36.6331C47.7084 37.0065 47.2593 37.246 46.9504 37.3936C46.1125 37.7941 45.1736 38.0419 44.2349 38.1103L43.834 38.1396L43.9535 37.485V37.485Z" fill="#FFC55E"/>
<path d="M46.9969 34.473C47.5323 34.473 48.0687 34.8483 48.1618 35.3492C48.2324 35.7297 48.0723 36.125 47.8085 36.4226C47.545 36.7204 47.1871 36.9326 46.8187 37.1086C46.0102 37.4951 45.119 37.7301 44.2131 37.7962L44.2513 37.5869C44.7117 36.6633 45.1924 35.7245 45.9529 34.9936C46.1619 34.793 46.3987 34.6053 46.6838 34.5185C46.7854 34.488 46.8909 34.4727 46.9969 34.473V34.473ZM46.9969 33.8428C46.828 33.8428 46.6626 33.867 46.5052 33.9151C46.0684 34.0479 45.7372 34.3331 45.5259 34.5359C44.6622 35.3657 44.127 36.4396 43.697 37.3025L43.6568 37.3832L43.6407 37.4721L43.6025 37.6815L43.4561 38.4833L44.2575 38.4248C45.234 38.3536 46.2113 38.0957 47.0834 37.6788C47.4166 37.5196 47.9021 37.2598 48.2706 36.8437C48.6914 36.369 48.8743 35.7817 48.7721 35.2324C48.6274 34.4533 47.8478 33.8428 46.9969 33.8428V33.8428Z" fill="#965F0F"/>
<path d="M44.5223 34.4914C44.5876 33.9207 44.4243 33.3462 44.2513 32.7381C44.185 32.5047 44.1164 32.2632 44.0613 32.021C43.7765 30.7694 43.9406 29.629 44.5235 28.8102C44.5937 28.7113 44.8081 28.4095 45.1702 28.3875C45.1835 28.3867 45.1974 28.3862 45.211 28.3862C45.4077 28.3862 45.6054 28.4738 45.7829 28.6396C46.3459 29.1642 46.3625 29.9498 46.3341 30.645C46.3053 31.3352 46.2757 32.0489 46.1142 32.749C45.9265 33.5629 45.5854 34.2312 45.1 34.7356L45.0395 34.7984L44.4701 34.9475L44.5223 34.4914V34.4914Z" fill="#FFC55E"/>
<path d="M45.2109 28.701C45.348 28.701 45.4746 28.7798 45.5724 28.8712C46.0439 29.3108 46.0491 30.0102 46.0236 30.6317C45.995 31.3171 45.9663 32.0065 45.8116 32.6769C45.657 33.3473 45.3685 34.005 44.8776 34.5152L44.8305 34.5274C44.9303 33.6563 44.5585 32.8069 44.3638 31.95C44.1366 30.9517 44.17 29.8446 44.7749 28.9944C44.8741 28.8548 45.0094 28.7127 45.1886 28.7018C45.1962 28.7013 45.2035 28.701 45.2109 28.701V28.701ZM45.2109 28.0708C45.1909 28.0708 45.1709 28.0714 45.1507 28.0727C44.8136 28.0932 44.5175 28.2794 44.2714 28.6259C43.6356 29.5191 43.4534 30.7502 43.7587 32.0918C43.8155 32.342 43.8852 32.5876 43.9528 32.8251C44.1169 33.402 44.2719 33.947 44.2136 34.4547L44.1091 35.3672L44.9858 35.1377L45.0328 35.1254L45.2008 35.0814L45.3221 34.9555C45.8474 34.4096 46.2157 33.6913 46.4164 32.8206C46.5846 32.0916 46.6148 31.3629 46.6442 30.6582C46.6669 30.1047 46.7091 29.0749 45.9927 28.407C45.7573 28.1872 45.4868 28.0708 45.2109 28.0708V28.0708Z" fill="#965F0F"/>
<path d="M46.5711 32.5187L46.5826 32.4259C46.6606 31.8815 46.6034 31.3351 46.5429 30.7566C46.521 30.5486 46.4994 30.3405 46.484 30.1328C46.4334 29.4506 46.4305 28.4504 46.9869 27.6447C47.1686 27.3817 47.3807 27.1878 47.6178 27.0681C47.7939 26.9787 47.9879 26.9317 48.1848 26.9307C48.3221 26.9307 48.4531 26.9548 48.5741 27.0022C48.8966 27.1286 49.1481 27.4265 49.247 27.7994C49.3278 28.1038 49.3035 28.4016 49.272 28.6805C49.2122 29.2138 49.1085 29.8327 48.793 30.3755C48.5859 30.7312 48.3018 31.035 48.0271 31.3287C47.6369 31.7459 47.2683 32.1399 47.1848 32.6137L46.5711 32.5187V32.5187Z" fill="#FFC55E"/>
<path d="M48.186 27.2465C48.281 27.2465 48.3754 27.2624 48.4633 27.2967C48.7159 27.3957 48.8824 27.6336 48.9482 27.8819C49.014 28.1302 48.9934 28.3906 48.9645 28.6451C48.9038 29.1868 48.8051 29.7373 48.5267 30.2159C48.0436 31.0456 47.0446 31.6273 46.8802 32.5588L46.8917 32.466C47.0036 31.6851 46.8529 30.8956 46.7946 30.1099C46.7364 29.3241 46.7849 28.4885 47.2423 27.8263C47.3746 27.6348 47.5426 27.4593 47.7572 27.3508C47.8904 27.2833 48.0371 27.2476 48.186 27.2465V27.2465ZM48.186 26.6162C47.9453 26.6162 47.7016 26.6752 47.4809 26.7865C47.1968 26.9301 46.9456 27.1581 46.7338 27.4645C46.1203 28.353 46.1214 29.4267 46.1753 30.1571C46.1913 30.3714 46.2135 30.5844 46.2351 30.7907C46.2936 31.3489 46.3486 31.8762 46.2771 32.3754L46.2762 32.3814L46.2754 32.3873L46.2639 32.4801L47.4915 32.67C47.5587 32.289 47.896 31.9282 48.2532 31.5463C48.5399 31.2399 48.8363 30.9229 49.0611 30.5365C49.4066 29.9425 49.5179 29.2832 49.5816 28.7163C49.6149 28.4215 49.6427 28.0763 49.5477 27.7183C49.4233 27.2487 49.1015 26.8713 48.6867 26.7089C48.5269 26.6468 48.3571 26.6154 48.186 26.6162V26.6162Z" fill="#965F0F"/>
<path d="M37.828 37.7003L37.8949 37.5082C37.9652 37.3058 37.8761 37.0469 37.7817 36.7729L37.7603 36.7107C37.5687 36.1506 37.4415 35.57 37.3812 34.9804C37.3438 34.6144 37.3194 34.1339 37.464 33.6645C37.6204 33.1584 37.9576 32.7516 38.3894 32.5484C38.6484 32.4264 38.9572 32.3672 39.3337 32.3672H39.3578C39.5183 32.3683 39.7295 32.3784 39.9387 32.4482C40.4936 32.6336 40.8746 33.1748 41.0116 33.9719C41.0732 34.331 41.0858 34.63 41.0504 34.913C40.971 35.5495 40.6263 36.1829 40.0531 36.7447C39.5643 37.224 38.9827 37.5916 38.4203 37.947L38.2158 38.0762L37.828 37.7003V37.7003Z" fill="#FFC55E"/>
<path d="M39.3328 32.6825H39.3551C39.5195 32.6836 39.6859 32.696 39.8409 32.7477C40.3749 32.9262 40.6151 33.5035 40.7048 34.0261C40.7531 34.3061 40.7767 34.5917 40.7414 34.8734C40.6638 35.4964 40.2999 36.0639 39.8365 36.5182C39.3732 36.9724 38.8118 37.328 38.2553 37.6797L38.1868 37.6132C38.3005 37.2861 38.1646 36.9352 38.0528 36.6075C37.8691 36.0704 37.747 35.5135 37.6892 34.948C37.6485 34.5503 37.6412 34.1424 37.7595 33.7586C37.8781 33.3745 38.1368 33.0141 38.5192 32.8342C38.7684 32.717 39.0532 32.6825 39.3328 32.6825V32.6825ZM39.3328 32.0522C38.9102 32.0522 38.5588 32.1211 38.2578 32.2627C37.7468 32.5033 37.3491 32.9799 37.1669 33.5705C37.0052 34.095 37.031 34.6171 37.0715 35.0132C37.1344 35.6269 37.2668 36.2313 37.4661 36.8142L37.4876 36.8771C37.5535 37.068 37.6353 37.3056 37.6011 37.4038L37.4678 37.7878L37.7578 38.069L37.8263 38.1355L38.1747 38.4734L38.5838 38.2149C39.1599 37.8508 39.7556 37.4742 40.2682 36.9716C40.8927 36.3594 41.2693 35.6612 41.3579 34.9527C41.3965 34.642 41.3832 34.3036 41.3167 33.9179C41.1591 33.001 40.7042 32.3729 40.0351 32.1493C39.7847 32.0658 39.5423 32.0537 39.3591 32.0524L39.3328 32.0522V32.0522Z" fill="#965F0F"/>
<path d="M37.0822 32.7296L37.1063 32.5777C37.153 32.2831 37.116 31.9727 37.0772 31.644C37.062 31.5221 37.0489 31.3999 37.0379 31.2776C36.9797 30.6007 37.0594 30.0357 37.2811 29.5509C37.562 28.9385 38.0882 28.4789 38.6894 28.3213C38.8378 28.2827 38.9905 28.2633 39.1438 28.2637C39.7225 28.2637 40.252 28.5274 40.5259 28.9522C40.7352 29.2766 40.7824 29.6447 40.8026 29.9941C40.8109 30.1364 40.817 30.3032 40.7844 30.4754C40.6842 31.0033 40.2726 31.3641 39.9449 31.5738C39.7238 31.7151 39.4896 31.8254 39.2632 31.932C39.1219 31.9987 38.9883 32.0617 38.8584 32.1314C38.4503 32.3487 38.0824 32.6361 37.771 32.9809L37.5438 33.2336L37.0822 32.7296V32.7296Z" fill="#FFC55E"/>
<path d="M39.143 28.579C39.589 28.579 40.0367 28.7705 40.2653 29.1249C40.4352 29.3882 40.4743 29.7058 40.4918 30.0126C40.4998 30.1471 40.5039 30.2832 40.4788 30.4162C40.4081 30.7887 40.1131 31.0934 39.7785 31.3073C39.4441 31.5212 39.0643 31.6644 38.7126 31.853C38.2687 32.0912 37.8698 32.4027 37.5408 32.7688L37.4119 32.6281C37.4841 32.1722 37.3856 31.7102 37.3464 31.2508C37.3009 30.7208 37.3382 30.1731 37.5621 29.684C37.7861 29.195 38.2175 28.7707 38.7663 28.6269C38.8894 28.5948 39.016 28.5787 39.143 28.579V28.579ZM39.143 27.9487C38.9612 27.9487 38.782 27.9716 38.6106 28.0165C37.9209 28.1972 37.3182 28.7212 36.9988 29.4181C36.7533 29.9547 36.6646 30.5719 36.7275 31.3055C36.7386 31.434 36.7535 31.5601 36.7679 31.682C36.8041 31.9881 36.8384 32.2773 36.7986 32.5282L36.7505 32.832L36.957 33.0573L37.0859 33.198L37.545 33.699L37.9995 33.1936C38.2868 32.8756 38.6262 32.6106 39.0027 32.4102C39.1313 32.3429 39.2616 32.2789 39.3933 32.2182C39.6285 32.1073 39.8717 31.9927 40.1096 31.8407C40.6542 31.4922 40.9927 31.0409 41.0885 30.5353C41.1261 30.337 41.1219 30.149 41.1117 29.9752C41.0902 29.6018 41.0347 29.1671 40.7848 28.7798C40.4543 28.2671 39.8253 27.9487 39.143 27.9487V27.9487Z" fill="#965F0F"/>
<path d="M37.8905 28.3733C37.6697 28.3733 37.4578 28.2324 37.3632 28.0227C37.2771 27.831 37.2973 27.6427 37.3229 27.4814C37.4009 26.9922 37.5254 26.5118 37.6946 26.047C37.9189 25.4298 38.1793 24.9701 38.5135 24.5998C38.9468 24.1204 39.5027 23.8146 40.079 23.7389C40.154 23.729 40.2262 23.7241 40.2934 23.7241C40.4743 23.7241 40.6349 23.7602 40.7706 23.8309C40.9241 23.9111 41.0552 24.0392 41.1706 24.2223C41.6176 24.9349 41.4999 25.9518 40.8847 26.6956C40.4253 27.251 39.7267 27.6759 38.749 27.9947L38.6636 28.0223C38.5698 28.0523 38.4784 28.0816 38.3924 28.1144L38.4563 28.2027L38.0605 28.344C38.0059 28.3634 37.9484 28.3733 37.8905 28.3733V28.3733Z" fill="#FFC55E"/>
<path d="M40.2925 24.0394C40.4099 24.0394 40.526 24.0583 40.6274 24.1114C40.7486 24.1746 40.8376 24.2806 40.908 24.3923C41.313 25.0381 41.136 25.9008 40.6459 26.4933C40.1557 27.0859 39.4104 27.4481 38.6532 27.6949C38.4002 27.7773 38.138 27.8515 37.9236 28.0013L37.9566 28.0468C37.9346 28.0547 37.9121 28.0583 37.8895 28.0583C37.7872 28.0583 37.686 27.9835 37.6445 27.8916C37.5942 27.7795 37.6093 27.652 37.6284 27.5318C37.7031 27.0627 37.8224 26.6021 37.9847 26.1565C38.16 25.6745 38.3898 25.2022 38.7413 24.813C39.0929 24.424 39.5778 24.1226 40.1178 24.0517C40.1752 24.0441 40.2341 24.0394 40.2925 24.0394ZM40.2925 23.4092C40.2119 23.4092 40.1265 23.415 40.0383 23.4265C39.3893 23.5117 38.7663 23.8529 38.2836 24.387C37.9211 24.7884 37.641 25.2813 37.402 25.9381C37.2259 26.422 37.0963 26.922 37.0152 27.4313C36.9932 27.5701 36.9472 27.8589 37.0792 28.1527C37.2242 28.4737 37.5495 28.6884 37.8895 28.6884C37.9832 28.6884 38.0749 28.6725 38.1628 28.6411L38.9544 28.3585L38.8955 28.2775C39.9032 27.9419 40.632 27.4903 41.1216 26.8983C41.8343 26.0367 41.959 24.8937 41.4318 24.0537C41.2856 23.8213 41.1154 23.657 40.9112 23.5507C40.7316 23.4569 40.5234 23.4092 40.2925 23.4092V23.4092Z" fill="#965F0F"/>
<path d="M37.2552 25.0889C37.1507 24.6471 36.7179 24.32 36.2598 23.9737C36.1634 23.9015 36.0679 23.8281 35.9732 23.7536C35.0144 22.9921 34.4876 22.0367 34.5275 21.132C34.548 20.6742 34.7235 20.2989 35.0216 20.0751C35.2208 19.9256 35.4722 19.8467 35.7488 19.8467C36.0114 19.8467 36.2831 19.9192 36.514 20.0509C36.9377 20.2927 37.2091 20.6779 37.4186 21.0228C37.8268 21.6951 38.0754 22.3266 38.1788 22.9532C38.3038 23.7103 38.2053 24.4364 37.8942 25.0531L37.4357 25.8519L37.2552 25.0889V25.0889Z" fill="#FFC55E"/>
<path d="M35.7479 20.162C35.9605 20.162 36.1788 20.222 36.3607 20.3258C36.7107 20.5256 36.9509 20.8554 37.1532 21.1886C37.4962 21.7534 37.7658 22.3641 37.8717 23.0057C37.9775 23.6473 37.9133 24.3225 37.6169 24.9101L37.5561 25.0156C37.3996 24.3541 36.7168 23.9449 36.1636 23.5058C35.413 22.9097 34.7961 22.0654 34.8368 21.1465C34.8505 20.8418 34.9504 20.5199 35.2052 20.3288C35.3591 20.2133 35.551 20.162 35.7479 20.162V20.162ZM35.7479 19.5317C35.4044 19.5317 35.0893 19.6321 34.8362 19.822C34.4614 20.1034 34.2413 20.5636 34.2165 21.1179C34.1555 22.4979 35.1706 23.5173 35.781 24.0019C35.8758 24.0774 35.9743 24.1517 36.0733 24.2266C36.4851 24.5379 36.8741 24.8318 36.9523 25.1625L37.3133 26.6892L38.0928 25.3328L38.1535 25.2272L38.1622 25.2123L38.1699 25.1968C38.5117 24.5193 38.6204 23.7256 38.4843 22.9014C38.3743 22.2338 38.1119 21.5653 37.6821 20.8577C37.4653 20.5006 37.1539 20.055 36.6654 19.7763C36.3887 19.6187 36.0629 19.5317 35.7479 19.5317V19.5317Z" fill="#965F0F"/>
<path d="M49.2683 29.1447C49.2928 29.0897 49.3219 29.0369 49.3512 28.9846L50.0979 27.6265L49.9259 29.4065L49.7167 29.5411L48.8447 30.0976L49.2683 29.1447V29.1447Z" fill="#FFC55E"/>
<path d="M49.6432 29.1002L49.6314 29.2228L49.5512 29.2738C49.578 29.214 49.6116 29.1576 49.6432 29.1002V29.1002ZM50.5524 26.1519L49.1008 28.7931L49.0813 28.8283C49.0528 28.8788 49.0176 28.9417 48.9853 29.0146L48.1377 30.9203L49.8818 29.8075L49.9619 29.7564L50.2198 29.5919L50.2495 29.2842L50.2611 29.1618L50.5524 26.1519Z" fill="#965F0F"/>
<path d="M49.3613 30.3379L49.4591 30.1606C49.6818 29.7568 50.0552 29.4798 50.4189 29.2307C50.8165 28.9584 51.2223 28.6984 51.6355 28.4511C51.7924 28.3575 52.0068 28.2296 52.2611 28.1869C52.3136 28.1782 52.3666 28.1738 52.4198 28.1738C52.8297 28.1738 53.2874 28.4442 53.3439 28.8967C53.3727 29.1283 53.3062 29.4811 52.8263 29.8479C52.204 30.3238 51.4191 30.595 50.6165 30.6109C50.5864 30.6115 50.5563 30.6117 50.5261 30.6117C50.4684 30.6117 50.4105 30.6107 50.3527 30.61C50.2979 30.6092 50.2434 30.6082 50.1887 30.6082C50.0706 30.6082 49.9322 30.6118 49.8012 30.6382L49.6077 30.6771L49.3613 30.3379V30.3379Z" fill="#FFC55E"/>
<path d="M52.4205 28.4891C52.7084 28.4891 53.0036 28.6709 53.0366 28.9364C53.0691 29.198 52.8587 29.4294 52.6402 29.5963C52.0723 30.0308 51.3456 30.2813 50.6112 30.2958C50.5831 30.2963 50.5552 30.2966 50.5269 30.2966C50.4145 30.2966 50.3018 30.2931 50.1895 30.2931C50.0386 30.2931 49.8886 30.2996 49.7414 30.3292L49.7308 30.3146C49.9207 29.9701 50.2587 29.721 50.5934 29.4918C50.9857 29.2231 51.3861 28.9665 51.7939 28.7226C51.9555 28.6262 52.1235 28.5294 52.3125 28.4978C52.348 28.4919 52.384 28.4891 52.4205 28.4891V28.4891ZM52.4205 27.8589C52.3503 27.8589 52.2801 27.8647 52.2108 27.8762C51.8996 27.9285 51.6464 28.0796 51.4788 28.1795C51.06 28.4301 50.6488 28.6935 50.2457 28.9695C49.8512 29.24 49.4447 29.5427 49.1886 30.0068L48.9932 30.3613L49.2307 30.6884L49.2413 30.7031L49.4753 31.0253L49.8622 30.9473C49.9667 30.9262 50.0861 30.9233 50.1892 30.9233C50.2421 30.9233 50.2952 30.9243 50.3482 30.9251C50.4076 30.926 50.4671 30.927 50.5264 30.927C50.5586 30.927 50.5906 30.9268 50.6227 30.9262C51.4905 30.9089 52.3396 30.6153 53.0137 30.0996C53.6121 29.6421 53.6912 29.1718 53.6523 28.8578C53.5816 28.2881 53.0519 27.8589 52.4205 27.8589V27.8589Z" fill="#965F0F"/>
<path d="M51.7178 27.5576L51.926 27.3572C52.4368 26.8653 53.0486 26.5024 53.6338 26.1835C54.1033 25.9275 54.6551 25.6543 55.2608 25.6543C55.3125 25.6543 55.3645 25.6563 55.4166 25.6604C55.8536 25.6953 56.3271 25.9395 56.3989 26.4062C56.4587 26.7945 56.1946 27.1805 55.7097 27.4139C55.2795 27.6207 54.8154 27.7088 54.3769 27.7811C53.6801 27.8956 52.979 27.9815 52.2753 28.0386L52.1122 28.0518L51.7178 27.5576V27.5576Z" fill="#FFC55E"/>
<path d="M55.2608 25.9696C55.3043 25.9696 55.3482 25.9712 55.3923 25.9748C55.7044 25.9997 56.0477 26.1661 56.0923 26.4552C56.1371 26.7473 55.8578 26.9942 55.5768 27.1293C55.1895 27.3157 54.7562 27.3996 54.327 27.4703C53.6392 27.5836 52.9462 27.6683 52.2506 27.7246L52.1399 27.5858C52.6137 27.1297 53.1928 26.7816 53.7808 26.4612C54.2382 26.2119 54.7368 25.9696 55.2608 25.9696V25.9696ZM55.2608 25.3394C54.5831 25.3394 53.9896 25.6318 53.4867 25.9061C52.8827 26.2352 52.2497 26.6113 51.7123 27.1286L51.2959 27.5294L51.6569 27.9822L51.7676 28.121L51.9735 28.3791L52.2999 28.3528C53.0118 28.2951 53.7212 28.2082 54.4262 28.0923C54.8667 28.0197 55.3757 27.9234 55.8426 27.6988C56.4567 27.4033 56.7874 26.8895 56.7057 26.358C56.6074 25.7211 55.9997 25.391 55.4409 25.3464C55.3815 25.3417 55.3207 25.3394 55.2608 25.3394V25.3394Z" fill="#965F0F"/>
<path d="M39.4002 21.8725C39.639 21.3143 39.8857 20.7372 40.258 20.2169C40.4333 19.9722 40.716 19.6322 41.1475 19.5051C41.2571 19.473 41.3707 19.4568 41.4848 19.457C41.9709 19.457 42.4544 19.7432 42.6881 20.1689C42.9413 20.6307 42.9241 21.2207 42.642 21.7473C42.4338 22.1364 42.1027 22.4799 41.6004 22.8283C40.8594 23.3417 39.9849 23.704 39.0718 23.8757L38.498 23.9836L39.4002 21.8725V21.8725Z" fill="#FFC55E"/>
<path d="M41.4851 19.7723C41.8634 19.7723 42.2407 20.0011 42.4171 20.3223C42.6325 20.715 42.5809 21.2023 42.3695 21.597C42.1581 21.9918 41.8048 22.3052 41.4254 22.5683C40.714 23.0613 39.8843 23.4027 39.0155 23.5661C39.239 23.0435 39.4622 22.5207 39.6854 21.9979C39.9204 21.4486 40.1575 20.8943 40.5097 20.4022C40.692 20.1478 40.9217 19.8999 41.2345 19.8079C41.3159 19.7841 41.4003 19.7721 41.4851 19.7723V19.7723ZM41.4851 19.1421C41.3402 19.1421 41.1975 19.1624 41.0613 19.2026C40.5384 19.3568 40.2094 19.7496 40.0074 20.0317C39.6149 20.5801 39.3612 21.1733 39.1158 21.747C38.8926 22.27 38.6693 22.7927 38.4459 23.3153L37.9814 24.4016L39.1289 24.1858C40.0841 24.0062 40.9995 23.6268 41.776 23.0887C42.3133 22.7161 42.6859 22.3266 42.9155 21.8977C43.2487 21.2759 43.2654 20.5722 42.9601 20.0159C42.6729 19.4931 42.0802 19.1421 41.4851 19.1421V19.1421Z" fill="#965F0F"/>
<path d="M51.6178 26.7273C51.7563 25.6375 52.1787 24.5828 52.8397 23.6773C52.9104 23.5804 53.1259 23.2852 53.4704 23.2852C53.4811 23.2852 53.4923 23.2855 53.5032 23.2861C53.7707 23.3006 54.0076 23.506 54.0791 23.7856C54.1334 23.9989 54.0867 24.2032 54.0558 24.3384C53.9589 24.764 53.8566 25.1164 53.6723 25.4525C53.3228 26.0903 52.7267 26.5508 52.2009 26.9572L51.5283 27.4306L51.6178 26.7273V26.7273Z" fill="#FFC55E"/>
<path d="M53.4701 23.6004L53.4861 23.6009C53.6311 23.6088 53.7445 23.7329 53.7782 23.8648C53.8119 23.9968 53.7833 24.1349 53.753 24.2675C53.6723 24.6217 53.5774 24.9772 53.4006 25.2997C53.0872 25.8714 52.5427 26.2972 52.0126 26.7068L51.9255 26.7681C52.0572 25.7323 52.4598 24.7274 53.0891 23.8653C53.1818 23.738 53.3077 23.6004 53.4701 23.6004ZM53.4701 22.9702C53.1375 22.9702 52.8414 23.1451 52.5899 23.4901C51.8976 24.4386 51.4546 25.5442 51.3096 26.6873L51.1309 28.0939L52.2794 27.2858L52.3665 27.2245L52.3778 27.2165L52.3887 27.208C52.9388 26.7829 53.5624 26.3013 53.9434 25.6058C54.1572 25.2159 54.2691 24.8002 54.3581 24.4093C54.3935 24.2546 54.4528 23.995 54.3794 23.7069C54.2744 23.2957 53.9207 22.9934 53.5192 22.9716C53.5029 22.9707 53.4865 22.9702 53.4701 22.9702Z" fill="#965F0F"/>
<path d="M54.3892 25.5844C54.3914 25.5787 54.3937 25.5695 54.3958 25.5602L53.7871 25.4359L53.8227 25.2361L53.977 25.1576L53.9832 25.1553L54.5829 24.8506L54.4094 25.5237C54.404 25.5446 54.3968 25.5646 54.3892 25.5844V25.5844Z" fill="#FFC55E"/>
<path d="M54.1092 25.4442C54.105 25.4606 54.0965 25.4754 54.0929 25.4921L54.1008 25.4478C54.1034 25.4463 54.1064 25.4455 54.1092 25.4442ZM55.0568 24.2583L53.8606 24.8655L53.8578 24.8665L53.8227 24.8838L53.5446 25.025L53.4894 25.3355L53.4814 25.3798L54.6991 25.6286C54.6935 25.6542 54.686 25.6794 54.6765 25.7039C54.6873 25.6765 54.6992 25.6446 54.7099 25.6035L55.0568 24.2583V24.2583Z" fill="#965F0F"/>
<path d="M49.5751 26.5471C49.5988 26.2976 49.6287 25.9869 49.7765 25.7049C49.9381 25.3971 50.224 25.1986 50.5225 25.1862L50.5537 25.1855C50.9345 25.1855 51.2175 25.4638 51.3555 25.7239C51.5867 26.1602 51.5838 26.7176 51.3472 27.2535C51.1506 27.6975 50.8273 28.0742 50.5423 28.4066C50.3022 28.686 50.0737 28.9609 49.9137 29.253L49.1885 30.5777L49.5751 26.5471Z" fill="#FFC55E"/>
<path d="M50.554 25.5008C50.7846 25.5008 50.9791 25.6789 51.0822 25.8734C51.2866 26.259 51.2397 26.7271 51.0641 27.1248C50.8881 27.5223 50.5964 27.864 50.3084 28.1998C50.0637 28.4848 49.8201 28.7759 49.6427 29.1L49.8845 26.5779C49.9081 26.3304 49.9339 26.0762 50.0509 25.853C50.1455 25.6729 50.3208 25.51 50.5355 25.5011L50.554 25.5008ZM50.554 24.8706C50.5394 24.8706 50.5248 24.8709 50.5102 24.8716C50.0958 24.8887 49.7193 25.1448 49.503 25.5566C49.3257 25.8946 49.2928 26.2398 49.2664 26.5172L49.1456 27.7781L49.0248 29.0391L48.7354 32.0556L50.186 29.4063C50.3315 29.1405 50.5396 28.8903 50.777 28.6141C51.0765 28.2651 51.4157 27.8697 51.6311 27.3831C51.9075 26.757 51.9069 26.0981 51.6295 25.575C51.3991 25.1405 50.987 24.8706 50.554 24.8706V24.8706Z" fill="#965F0F"/>
<path d="M47.3106 34.1424C47.1384 34.1424 46.9666 34.1351 46.8005 34.1206L46.2451 34.0723L46.7769 33.3472C47.1253 32.6662 47.6262 32.0417 48.2265 31.5394C48.4581 31.3453 48.7752 31.1071 49.1727 30.9869C49.3308 30.9388 49.495 30.9143 49.6601 30.9141C49.9302 30.9141 50.1808 30.9828 50.3849 31.1129C50.8087 31.3826 51.0219 31.9297 50.903 32.4431C50.8053 32.8643 50.5103 33.2462 50.0718 33.5185C49.6713 33.7672 49.2173 33.8873 48.8667 33.9644C48.3273 34.0824 47.8038 34.1424 47.3106 34.1424V34.1424Z" fill="#FFC55E"/>
<path d="M49.6601 31.2289C49.8594 31.2289 50.0562 31.275 50.2197 31.3793C50.5497 31.5893 50.6849 32.0066 50.6006 32.3707C50.5163 32.7348 50.2421 33.043 49.9098 33.2494C49.5774 33.4558 49.1898 33.5706 48.801 33.6558C48.3129 33.7628 47.8117 33.8268 47.3106 33.8268C47.1492 33.8269 46.9879 33.82 46.8271 33.8062L47.0412 33.5142C47.3727 32.8588 47.8458 32.2659 48.4241 31.782C48.6716 31.5748 48.9448 31.3842 49.2614 31.2884C49.3908 31.2493 49.5251 31.2293 49.6601 31.2289V31.2289ZM49.6601 30.5986C49.4667 30.5986 49.2731 30.6276 49.0843 30.6845C48.6281 30.8224 48.2635 31.0995 48.0289 31.296C47.4036 31.8192 46.8804 32.4693 46.5132 33.1788L46.3289 33.4299L45.6631 34.3376L46.774 34.4342C46.949 34.4495 47.1296 34.4572 47.3106 34.4572C47.8258 34.4572 48.3714 34.3948 48.9321 34.272C49.3068 34.19 49.7934 34.0606 50.2337 33.7871C50.7436 33.4704 51.0885 33.0187 51.2051 32.515C51.354 31.8725 51.0844 31.186 50.5497 30.8455C50.2967 30.684 49.9888 30.5986 49.6601 30.5986V30.5986Z" fill="#965F0F"/>
<path d="M53.8091 25.3625C53.9085 24.9877 54.1571 24.6833 54.4113 24.4104C54.8249 23.9661 55.3396 23.505 56.0201 23.452C56.0515 23.4497 56.083 23.4482 56.1145 23.4482C56.2341 23.4482 56.3372 23.4686 56.4296 23.5106C56.6434 23.6075 56.7937 23.825 56.8216 24.0783C56.867 24.4891 56.6036 24.9004 56.1507 25.1264C55.8936 25.2548 55.623 25.311 55.3613 25.3654C55.2879 25.3807 55.2146 25.3958 55.1421 25.4126C54.8316 25.485 54.5297 25.5911 54.2417 25.7293L53.6348 26.0208L53.8091 25.3625V25.3625Z" fill="#FFC55E"/>
<path d="M56.1149 23.7635C56.1802 23.7635 56.2452 23.772 56.3034 23.7985C56.4281 23.8549 56.4994 23.9852 56.5137 24.1136C56.5474 24.4185 56.3038 24.6993 56.0142 24.8437C55.7246 24.9884 55.3916 25.0315 55.0731 25.1057C54.7408 25.1831 54.4176 25.2968 54.1094 25.4446C54.1915 25.1343 54.4114 24.8699 54.6373 24.6271C55.0149 24.2217 55.4703 23.8111 56.0441 23.7665C56.0676 23.7646 56.0912 23.7635 56.1149 23.7635V23.7635ZM56.1149 23.1333C56.0755 23.1333 56.0361 23.135 55.9971 23.138C55.2108 23.1992 54.6404 23.7062 54.1859 24.1943C53.9038 24.4974 53.6266 24.8388 53.5096 25.2811L53.1611 26.5973L54.375 26.0144C54.6428 25.8859 54.9234 25.7872 55.2121 25.7201C55.2822 25.7037 55.3532 25.689 55.4242 25.6742C55.692 25.6184 55.9954 25.5554 56.2884 25.409C56.8602 25.1237 57.191 24.5877 57.1309 24.0433C57.0903 23.6792 56.8703 23.3651 56.5567 23.223C56.4235 23.1626 56.2789 23.1333 56.1149 23.1333V23.1333Z" fill="#965F0F"/>
<path d="M33.0334 31.33C33.6815 31.7444 34.3598 32.0219 34.9736 32.4791C35.4877 32.8618 35.9793 33.6915 36.2979 33.8974C36.3564 32.9729 36.5469 32.3176 36.3224 31.4153C36.2282 31.0363 36.1213 30.1384 35.8075 29.8826C35.1188 30.342 33.8364 30.6919 33.0373 30.4309C32.2381 30.1698 31.5146 29.4984 31.2832 28.7387L31.3812 29.2763C31.6218 30.2516 32.1485 30.7644 33.0334 31.33ZM33.0071 25.1633L32.9489 25.1597C32.9728 25.1646 32.9932 25.1765 33.0154 25.1852C33.0129 25.1778 33.0092 25.1707 33.0071 25.1633Z" fill="#BF812E"/>
<path d="M35.824 27.8056C36.0493 28.0025 36.2465 28.2256 36.4365 28.4525C36.7391 28.8146 36.7831 28.9644 36.9669 29.3904C37.0157 28.9786 36.8848 28.6819 36.7881 28.1982C36.6707 27.6127 36.65 27.0024 36.4084 26.4512C36.3918 26.4137 36.3735 26.3753 36.3417 26.3474C36.292 26.3039 36.2195 26.2938 36.1518 26.2853C35.7475 26.2351 35.3469 26.1643 34.9463 26.0939C34.3879 25.9954 33.7914 25.8785 33.3969 25.4968C33.2782 25.3821 33.1675 25.245 33.0151 25.1851C33.1429 25.5846 33.3604 25.9484 33.6504 26.248C34.2628 26.8833 35.1559 27.2214 35.824 27.8056V27.8056ZM36.823 24.1919C37.1762 24.4979 37.4902 24.8862 37.5242 25.3348L37.5642 25.4C37.8639 24.6572 38.085 23.777 37.8308 23.0198C37.3775 23.1838 36.6651 23.2355 36.2063 23.0855C35.7471 22.9355 35.3492 22.6286 35.1048 22.2363C35.2826 22.6062 35.4739 22.9762 35.7535 23.2863C36.0639 23.6304 36.4699 23.8859 36.823 24.1919V24.1919ZM38.8317 21.6784C38.9935 21.4298 39.1379 21.1701 39.2638 20.901C39.4366 20.5297 39.567 20.0822 39.3421 19.7357C39.0803 20.0126 38.6137 20.0622 38.2473 19.9224C37.8813 19.7825 37.6055 19.4876 37.4096 19.1668C37.5066 19.6461 37.8787 20.0285 38.2114 20.4047C38.537 20.7731 38.8505 21.204 38.8317 21.6784V21.6784ZM38.8323 21.7093C38.8329 21.6989 38.8314 21.6888 38.8317 21.6786C38.8205 21.6959 38.8107 21.7143 38.7992 21.7318L38.8323 21.7093V21.7093ZM40.2589 19.0688L40.2556 19.141C40.6951 18.3188 40.9565 17.4145 41.0196 16.4976C40.9123 16.6731 40.775 16.8278 40.6142 16.9542C40.4938 17.0494 40.3542 17.1316 40.198 17.1498C40.0415 17.1679 39.8669 17.1077 39.7943 16.9772C39.811 17.6949 40.3707 18.3585 40.2589 19.0688ZM42.685 16.3031C42.8952 16.0459 43.0424 15.736 43.0551 15.413C43.0564 15.3793 43.0421 15.3331 43.0064 15.3377C42.9854 15.3404 42.9733 15.3606 42.964 15.3784C42.7618 15.757 42.3322 15.9735 41.9282 16.1663L41.9133 16.8889L41.9206 16.9549C42.2039 16.769 42.4747 16.5604 42.685 16.3031ZM43.0359 18.0656C42.6179 18.1588 42.1671 18.1617 41.7681 18.0129C41.6062 18.2624 41.5155 18.5526 41.5059 18.8512L41.4855 18.9662C42.525 18.8424 43.4007 18.2085 44.2195 17.5982C43.8443 17.794 43.4542 17.9725 43.0359 18.0656V18.0656ZM38.9852 23.5902L39.054 23.7233C39.5099 23.5216 39.964 23.316 40.4165 23.1066C40.8219 22.9187 41.2289 22.726 41.5849 22.4648C41.9406 22.2037 42.246 21.8665 42.3879 21.4654C42.4825 21.1986 42.5019 20.9141 42.5708 20.6407C42.3589 21.1637 41.91 21.567 41.4748 21.9514C41.3298 22.0794 41.1831 22.2087 41.0102 22.3014C40.6121 22.5147 40.1286 22.5109 39.6704 22.5399C39.6049 22.5442 39.533 22.5519 39.4879 22.5962C39.4678 22.6162 39.4551 22.6414 39.4427 22.6663L38.9852 23.5902V23.5902ZM41.0856 25.5209C41.0458 25.5083 41.0048 25.5341 40.9716 25.5581C40.1418 26.1558 39.1278 26.4839 38.2372 26.9999C38.0304 27.1198 37.8235 27.2565 37.7026 27.4538C37.5819 27.651 37.5709 27.9239 37.7383 28.0889L37.9288 28.1669C38.1153 28.1483 38.0965 28.1059 38.2699 28.0391C38.8795 27.8042 39.4827 27.537 40.0004 27.1555C40.5177 26.7739 40.9486 26.2667 41.1255 25.6739C41.1419 25.6179 41.1447 25.5395 41.0856 25.5209ZM38.3171 32.0716C38.6607 31.8682 39.0346 31.7139 39.398 31.543C39.8027 31.3523 40.2353 31.0919 40.3277 30.6775C39.944 31.1114 39.4243 31.4633 38.83 31.5579C38.2359 31.6525 37.5697 31.4491 37.2366 30.9802C37.38 31.5996 37.4357 32.2365 37.4021 32.8718L37.4597 32.8657C37.6569 32.5334 37.9735 32.2748 38.3171 32.0716V32.0716ZM36.8918 37.1989C36.8377 37.1531 36.761 37.1408 36.6888 37.1293C35.3014 36.9065 34.0123 36.1869 33.1456 35.1516L33.1699 35.1806C33.411 35.6962 33.8852 36.0789 34.342 36.446C35.4285 37.3193 36.5081 38.2152 37.3788 39.2783C37.9099 39.9267 38.3605 40.6344 38.9537 41.2339C39.0228 41.3037 39.1036 41.3765 39.2051 41.3844C38.9063 40.8101 38.5869 40.2472 38.2474 39.6967C37.7847 38.9442 37.3334 38.1269 36.9744 37.3265C36.9534 37.2805 36.9315 37.2328 36.8918 37.1989V37.1989ZM39.5094 35.6887C38.8772 35.8406 38.1445 35.604 37.7903 35.0919C37.7139 35.9919 38.3513 36.8577 38.2188 37.7518L38.1574 37.8243C38.9012 37.5663 39.5611 37.1017 40.0305 36.505C40.4999 35.9084 40.7772 35.1819 40.8177 34.4426C40.6474 35.0308 40.1421 35.537 39.5094 35.6887V35.6887ZM47.7454 35.8687C46.9652 36.4244 45.9001 36.4293 44.9652 36.708C44.8704 36.7362 44.773 36.7694 44.702 36.8347C44.6407 36.8911 44.6047 36.9664 44.5701 37.0398L44.2098 37.8016L44.4001 37.7564C44.8929 37.7294 45.3278 37.5996 45.7756 37.5006C46.2234 37.4017 46.6948 37.1559 47.0998 36.9517C47.5046 36.7474 47.8386 36.52 47.958 36.1053C47.9756 36.0434 47.9007 35.8403 47.8327 35.8335C47.8004 35.8302 47.7715 35.8502 47.7454 35.8687V35.8687ZM43.4705 37.2489C43.5526 37.007 43.6967 36.5843 43.7403 36.3338C43.8861 35.4967 43.8686 34.7776 43.9366 33.9318C43.1835 34.2233 42.0617 34.2006 41.4172 33.7349C41.5012 33.9402 41.5455 34.1595 41.547 34.3793C41.5476 34.476 41.5403 34.575 41.57 34.6678C41.5973 34.753 41.654 34.8269 41.7062 34.9011C42.0546 35.3984 42.2366 35.9802 42.3763 36.5599C42.466 36.932 42.4014 37.4624 42.4157 37.8435C42.4504 38.752 42.1701 39.3949 41.9009 40.2684C41.6319 41.1421 41.6065 42.0961 41.7784 42.9907L41.9254 42.1443C42.0724 41.5954 42.1462 41.3894 42.1953 40.5887C42.2477 39.7308 42.6983 38.8879 43.0536 38.0953C43.1621 37.8532 43.3858 37.4989 43.4705 37.2489V37.2489ZM44.8357 34.7067C45.2229 34.3072 45.4992 33.8111 45.6366 33.2684C45.7888 32.6604 45.9235 32.0309 45.9634 31.4078C45.8798 31.8066 45.5549 32.1674 45.2739 32.4779C45.1596 32.604 45.0216 32.7242 44.8485 32.7576C44.6753 32.791 44.5347 32.6142 44.5004 32.4522L44.5576 32.7344C44.8525 33.3694 44.9188 34.0191 44.8357 34.7067V34.7067ZM47.4476 32.9586C47.317 33.2745 47.1256 33.5609 46.8848 33.8011L46.9488 33.8814C47.4849 33.7933 48.0592 33.8141 48.5954 33.7261C49.0721 33.6476 49.5261 33.4544 49.9279 33.2025C50.3294 32.9503 50.6171 32.4817 50.4856 32.0472C50.2536 32.416 49.8124 32.6241 49.3761 32.7551C48.7508 32.9412 48.0973 33.0102 47.4476 32.9586V32.9586ZM46.9728 32.2238C47.0034 32.1603 47.0231 32.0938 47.041 32.027L46.8845 32.2342L46.9728 32.2238V32.2238ZM47.4435 31.4933C47.6655 31.1989 47.9195 31.1023 48.0807 30.7747C48.1561 30.6214 48.3291 30.1981 48.3994 30.0427C48.5611 29.6868 48.6299 29.415 48.7704 29.0512C48.9104 28.6874 48.9766 28.2806 48.8388 27.916C48.7691 28.8327 48.087 29.6846 47.1646 30.0068C47.1009 30.029 47.0318 30.0522 46.9938 30.1048C46.9671 30.1418 46.9601 30.188 46.9562 30.2326C46.925 30.5671 47.0048 30.9005 47.0545 31.2331C47.0939 31.4967 47.1089 31.7716 47.0412 32.0271C47.1752 31.8491 47.3091 31.6712 47.4435 31.4933V31.4933ZM52.1136 29.1943C51.7503 29.5313 51.2456 29.6986 50.7477 29.8125C50.5702 29.8532 50.3884 29.8893 50.2279 29.9714C50.0673 30.0534 49.9282 30.1911 49.9001 30.3597L49.9147 30.3344C50.1119 30.2781 50.3232 30.312 50.5294 30.317C51.1298 30.3314 51.7045 30.0947 52.2246 29.8143C52.4032 29.718 52.5845 29.6099 52.6926 29.4459C52.7451 29.3657 52.7784 29.2712 52.7657 29.1779C52.753 29.0846 52.6881 28.9945 52.5923 28.9649C52.412 28.9088 52.2482 29.0693 52.1136 29.1943V29.1943ZM50.5968 27.9119C50.8579 27.5445 51.1123 27.1434 51.1189 26.7027C50.8896 27.1134 50.4876 27.4379 50.0187 27.5899C49.9917 27.5987 49.9633 27.6075 49.9447 27.6277C49.9259 27.648 49.9207 27.6762 49.9161 27.7027L49.7068 28.9375L49.7462 28.9357C50.0687 28.625 50.3404 28.2721 50.5968 27.9119V27.9119ZM52.9357 25.925C53.0477 25.8207 53.1598 25.6234 53.2287 25.4906C53.2972 25.3578 53.314 25.1921 53.2306 25.0668C52.9885 25.301 52.7163 25.501 52.4215 25.6613C52.39 25.6784 52.3575 25.6958 52.3336 25.7214C52.3106 25.746 52.2967 25.7767 52.283 25.8068C52.1536 26.0985 52.0435 26.3986 51.9534 26.7051L51.9731 26.7325C52.2934 26.4334 52.6153 26.2244 52.9357 25.925ZM55.8164 26.8823C55.9144 26.7652 55.9815 26.5979 55.8992 26.4706C55.6526 26.7813 55.2342 26.9226 54.8342 27.0233C54.272 27.1646 53.6992 27.2581 53.1217 27.3027C52.9506 27.3161 52.7755 27.3258 52.6171 27.3882C52.4591 27.4506 52.3184 27.5782 52.299 27.7374L52.2116 27.7583C53.1335 27.5452 54.1164 27.6077 55.0213 27.3381C55.322 27.2483 55.622 27.1144 55.8164 26.8823V26.8823ZM54.7385 25.1824C54.9663 25.1232 55.2034 25.0958 55.4273 25.025C55.741 24.9256 56.1633 24.8177 56.3689 24.5754C56.4917 24.4306 56.576 24.1248 56.4914 23.9578C56.3612 24.2744 55.9425 24.5495 55.6094 24.686C55.2767 24.8224 54.9056 24.8601 54.5423 24.8498C54.5089 24.8489 54.4735 24.848 54.4443 24.8632C54.4179 24.8771 54.401 24.9022 54.3852 24.9263C54.2983 25.0615 54.2235 25.2043 54.1617 25.3531L54.1411 25.516C54.2835 25.34 54.5112 25.2417 54.7385 25.1824V25.1824ZM42.4139 46.8018C42.4209 46.7793 42.4305 46.7597 42.4378 46.738C42.4406 46.7093 42.441 46.6802 42.4448 46.6518L42.4139 46.8018V46.8018ZM50.0751 40.1922C48.4095 41.1701 47.02 42.1355 45.8902 42.9833C45.0859 43.5864 44.4351 44.4016 43.7158 45.103C43.1678 45.6376 42.6749 46.046 42.4378 46.738C42.4142 46.9924 42.4365 47.2592 42.5979 47.462C42.8141 47.7334 43.229 47.8152 43.5815 47.7352C43.9336 47.6551 44.2331 47.4423 44.5 47.2132C45.0925 46.7049 45.5118 46.1848 46.0044 45.591C47.2481 44.0922 48.2979 42.76 49.797 41.4581C50.7452 40.6344 55.7147 38.2782 57.0472 36.9438C55.2756 37.8588 52.3707 38.8443 50.0751 40.1922V40.1922ZM32.5943 40.7838C32.042 40.4357 31.4835 40.0874 30.8663 39.8533C30.2488 39.6193 29.9917 39.4603 29.297 39.2924C29.297 39.2924 28.6104 39.2924 28.5777 39.3382C28.5452 39.3839 30.0648 39.7865 30.5919 40.0956C32.4469 41.1837 34.1443 42.7747 35.5908 44.3101C36.4836 45.2576 37.2826 46.0359 38.3372 46.8259C38.628 47.0435 38.9486 47.2469 39.3155 47.3082C39.3896 47.3205 39.4733 47.3247 39.5326 47.282C39.5672 47.2575 39.5883 47.2201 39.6038 47.1823C39.7231 46.8891 39.5326 46.5718 39.3394 46.3154C37.6069 44.0178 35.0896 42.3562 32.5943 40.7838V40.7838Z" fill="#BF812E"/>
<path d="M65.9967 125.333C65.7503 125.333 65.5141 125.232 65.3398 125.054C65.1656 124.875 65.0677 124.633 65.0674 124.381V67.6188C65.0677 67.3663 65.1657 67.1243 65.3399 66.9458C65.5141 66.7673 65.7503 66.6668 65.9967 66.6665H104.138C104.384 66.6667 104.62 66.7671 104.795 66.9457C104.969 67.1242 105.067 67.3663 105.067 67.6188V124.381C105.067 124.633 104.969 124.875 104.795 125.054C104.621 125.232 104.384 125.333 104.138 125.333H65.9967V125.333Z" fill="url(#paint1_radial_465_47700)"/>
<path d="M104.558 67.2V124.8H65.5761V67.2H104.558V67.2ZM105.166 64H64.9676C63.5497 64 62.4004 65.1581 62.4004 66.5869V125.413C62.4004 126.842 63.5497 128 64.9676 128H105.166C106.584 128 107.734 126.842 107.734 125.413V66.5869C107.734 65.1582 106.584 64 105.166 64V64Z" fill="#F79C94"/>
<path d="M105.166 65.6C105.426 65.6003 105.675 65.7043 105.859 65.8893C106.042 66.0743 106.146 66.3252 106.146 66.5869V125.413C106.146 125.675 106.042 125.925 105.859 126.111C105.675 126.296 105.426 126.4 105.166 126.4H64.9676C64.708 126.4 64.459 126.295 64.2754 126.11C64.0918 125.925 63.9885 125.674 63.9883 125.413V66.5869C63.9886 66.3252 64.0919 66.0744 64.2755 65.8894C64.4591 65.7044 64.708 65.6003 64.9676 65.6H105.166ZM105.166 64H64.9676C63.5497 64 62.4004 65.1581 62.4004 66.5869V125.413C62.4004 126.842 63.5497 128 64.9676 128H105.166C106.584 128 107.734 126.842 107.734 125.413V66.5869C107.734 65.1582 106.584 64 105.166 64Z" fill="#414042"/>
<path d="M75.6392 91.4006C74.8683 91.4006 74.2412 90.7641 74.2412 89.9819V86.8504C74.2412 86.0682 74.8683 85.4316 75.6392 85.4316H83.8926C84.6635 85.4316 85.2907 86.0682 85.2907 86.8504V89.9819C85.2907 90.7641 84.6635 91.4006 83.8926 91.4006H75.6392Z" fill="#FFD8C2"/>
<path d="M83.8936 85.7469C84.4917 85.7469 84.9811 86.2434 84.9811 86.8506V89.982C84.9811 90.5891 84.4917 91.0857 83.8936 91.0857H75.6402C75.0421 91.0857 74.5527 90.5891 74.5527 89.982V86.8506C74.5527 86.2434 75.0421 85.7469 75.6402 85.7469H83.8936ZM83.8936 85.1167H75.6402C74.6982 85.1167 73.9316 85.8946 73.9316 86.8506V89.982C73.9316 90.9381 74.6982 91.7159 75.6402 91.7159H83.8936C84.8356 91.7159 85.6022 90.9381 85.6022 89.982V86.8506C85.6022 85.8944 84.8356 85.1167 83.8936 85.1167Z" fill="#935231"/>
<path d="M87.0828 91.4006C86.3118 91.4006 85.6846 90.7641 85.6846 89.9819V86.8504C85.6846 86.0682 86.3118 85.4316 87.0828 85.4316H95.3358C96.1067 85.4316 96.734 86.0682 96.734 86.8504V89.9819C96.734 90.7641 96.1067 91.4006 95.3358 91.4006H87.0828Z" fill="#FFD8C2"/>
<path d="M95.3358 85.7469C95.9342 85.7469 96.4235 86.2434 96.4235 86.8506V89.982C96.4235 90.5891 95.9342 91.0857 95.3358 91.0857H87.0827C86.4843 91.0857 85.9951 90.5891 85.9951 89.982V86.8506C85.9951 86.2434 86.4843 85.7469 87.0827 85.7469H95.3358ZM95.3358 85.1167H87.0827C86.1406 85.1167 85.374 85.8946 85.374 86.8506V89.982C85.374 90.9381 86.1406 91.7159 87.0827 91.7159H95.3358C96.278 91.7159 97.0446 90.9381 97.0446 89.982V86.8506C97.0446 85.8944 96.278 85.1167 95.3358 85.1167Z" fill="#935231"/>
<path d="M75.6392 104.331C74.8683 104.331 74.2412 103.694 74.2412 102.912V99.7804C74.2412 98.9982 74.8683 98.3618 75.6392 98.3618H83.8926C84.6635 98.3618 85.2907 98.9982 85.2907 99.7804V102.912C85.2907 103.694 84.6635 104.331 83.8926 104.331H75.6392Z" fill="#FFD8C2"/>
<path d="M83.8936 98.6771C84.4917 98.6771 84.9811 99.1736 84.9811 99.7806V102.912C84.9811 103.519 84.4917 104.016 83.8936 104.016H75.6402C75.0421 104.016 74.5527 103.519 74.5527 102.912V99.7806C74.5527 99.1736 75.0421 98.6771 75.6402 98.6771H83.8936ZM83.8936 98.0469H75.6402C74.6982 98.0469 73.9316 98.8247 73.9316 99.7806V102.912C73.9316 103.868 74.6982 104.646 75.6402 104.646H83.8936C84.8356 104.646 85.6022 103.868 85.6022 102.912V99.7806C85.6022 98.8247 84.8356 98.0469 83.8936 98.0469V98.0469Z" fill="#935231"/>
<path d="M87.0828 104.331C86.3118 104.331 85.6846 103.694 85.6846 102.912V99.7804C85.6846 98.9982 86.3118 98.3618 87.0828 98.3618H95.3358C96.1067 98.3618 96.734 98.9982 96.734 99.7804V102.912C96.734 103.694 96.1067 104.331 95.3358 104.331H87.0828Z" fill="#FFD8C2"/>
<path d="M95.3358 98.6771C95.9342 98.6771 96.4235 99.1736 96.4235 99.7806V102.912C96.4235 103.519 95.9342 104.016 95.3358 104.016H87.0827C86.4843 104.016 85.9951 103.519 85.9951 102.912V99.7806C85.9951 99.1736 86.4843 98.6771 87.0827 98.6771H95.3358ZM95.3358 98.0469H87.0827C86.1406 98.0469 85.374 98.8247 85.374 99.7806V102.912C85.374 103.868 86.1406 104.646 87.0827 104.646H95.3358C96.278 104.646 97.0446 103.868 97.0446 102.912V99.7806C97.0446 98.8247 96.278 98.0469 95.3358 98.0469V98.0469Z" fill="#935231"/>
<path d="M69.2428 97.949C68.4719 97.949 67.8447 97.3125 67.8447 96.5302V93.3986C67.8447 92.6163 68.4719 91.98 69.2428 91.98H77.4962C78.2671 91.98 78.8942 92.6163 78.8942 93.3986V96.5302C78.8942 97.3125 78.2671 97.949 77.4962 97.949H69.2428Z" fill="#FFD8C2"/>
<path d="M77.4952 92.2948C78.0933 92.2948 78.5827 92.7914 78.5827 93.3983V96.5299C78.5827 97.1369 78.0933 97.6336 77.4952 97.6336H69.2418C68.6437 97.6336 68.1543 97.1369 68.1543 96.5299V93.3983C68.1543 92.7914 68.6437 92.2948 69.2418 92.2948H77.4952ZM77.4952 91.6646H69.2418C68.2998 91.6646 67.5332 92.4424 67.5332 93.3983V96.5299C67.5332 97.4859 68.2998 98.2638 69.2418 98.2638H77.4952C78.4372 98.2638 79.2037 97.4859 79.2037 96.5299V93.3983C79.2037 92.4422 78.4372 91.6646 77.4952 91.6646Z" fill="#935231"/>
<path d="M80.7935 97.949C80.0226 97.949 79.3955 97.3125 79.3955 96.5302V93.3986C79.3955 92.6163 80.0226 91.98 80.7935 91.98H89.0468C89.8177 91.98 90.445 92.6163 90.445 93.3986V96.5302C90.445 97.3125 89.8177 97.949 89.0468 97.949H80.7935Z" fill="#FFD8C2"/>
<path d="M89.0458 92.2948C89.644 92.2948 90.1335 92.7914 90.1335 93.3983V96.5299C90.1335 97.1369 89.644 97.6336 89.0458 97.6336H80.7925C80.1941 97.6336 79.7051 97.1369 79.7051 96.5299V93.3983C79.7051 92.7914 80.1941 92.2948 80.7925 92.2948H89.0458ZM89.0458 91.6646H80.7925C79.8505 91.6646 79.084 92.4424 79.084 93.3983V96.5299C79.084 97.4859 79.8505 98.2638 80.7925 98.2638H89.0458C89.988 98.2638 90.7545 97.4859 90.7545 96.5299V93.3983C90.7545 92.4422 89.9881 91.6646 89.0458 91.6646Z" fill="#935231"/>
<path d="M92.2916 97.949C91.5207 97.949 90.8936 97.3125 90.8936 96.5302V93.3986C90.8936 92.6163 91.5207 91.98 92.2916 91.98H100.545C101.316 91.98 101.943 92.6163 101.943 93.3986V96.5302C101.943 97.3125 101.316 97.949 100.545 97.949H92.2916Z" fill="#FFD8C2"/>
<path d="M100.544 92.2953C101.142 92.2953 101.632 92.7919 101.632 93.3988V96.5304C101.632 97.1374 101.142 97.634 100.544 97.634H92.2906C91.6925 97.634 91.2031 97.1374 91.2031 96.5304V93.3988C91.2031 92.7919 91.6925 92.2953 92.2906 92.2953H100.544ZM100.544 91.665H92.2906C91.3486 91.665 90.582 92.4429 90.582 93.3988V96.5304C90.582 97.4864 91.3486 98.2643 92.2906 98.2643H100.544C101.486 98.2643 102.253 97.4864 102.253 96.5304V93.3988C102.253 92.4427 101.486 91.665 100.544 91.665Z" fill="#935231"/>
<path d="M75.7629 91.0741H83.9265C84.5249 91.0741 85.014 90.5775 85.014 89.9705V86.8389C85.014 86.232 84.3122 85.7632 84.2962 85.8723C84.6029 87.0298 84.6835 88.5365 84.4576 90.5512C84.4333 90.7682 75.7871 90.59 75.7871 90.59L74.7406 90.5893C74.7406 90.9172 75.4187 91.0809 75.7629 91.0741V91.0741ZM87.2229 91.0741H95.3869C95.9849 91.0741 96.4744 90.5775 96.4744 89.9705V86.8389C96.4744 86.232 95.7725 85.7632 95.7564 85.8723C96.0632 87.0298 96.1438 88.5365 95.9179 90.5512C95.8935 90.7682 87.2471 90.59 87.2471 90.59L86.2009 90.5893C86.2009 90.9172 86.8787 91.0809 87.2229 91.0741V91.0741ZM84.2962 98.812C84.6029 99.9694 84.6835 101.476 84.4576 103.491C84.4333 103.708 75.7871 103.53 75.7871 103.53L74.7406 103.529C74.7406 103.857 75.4187 104.021 75.7629 104.014H83.9265C84.5249 104.014 85.014 103.517 85.014 102.91V99.7785C85.014 99.1716 84.3122 98.7027 84.2962 98.812ZM95.7564 98.812C96.0632 99.9694 96.1438 101.476 95.9179 103.491C95.8935 103.708 87.2471 103.53 87.2471 103.53L86.2009 103.529C86.2009 103.857 86.8787 104.021 87.2229 104.014H95.3869C95.9849 104.014 96.4744 103.517 96.4744 102.91V99.7785C96.4744 99.1716 95.7727 98.7027 95.7564 98.812V98.812ZM78.5898 96.555V93.4234C78.5898 92.8164 77.888 92.3477 77.872 92.4568C78.1787 93.6144 78.2593 95.1211 78.0334 97.1358C78.0091 97.3527 69.3629 97.1744 69.3629 97.1744L68.3164 97.1739C68.3164 97.5016 68.9945 97.6653 69.3387 97.6586H77.5024C78.1006 97.6586 78.5898 97.1619 78.5898 96.555V96.555ZM80.8877 97.109L79.8415 97.1085C79.8415 97.4361 80.5192 97.5998 80.8634 97.593H89.0272C89.6255 97.593 90.1149 97.0964 90.1149 96.4893V93.3577C90.1149 92.7508 89.4131 92.2821 89.3969 92.3911C89.7037 93.5487 89.7843 95.0556 89.5584 97.0701C89.5339 97.2872 80.8877 97.109 80.8877 97.109V97.109ZM100.889 92.3913C101.196 93.5489 101.277 95.0557 101.051 97.0702C101.026 97.2872 92.3801 97.109 92.3801 97.109L91.3337 97.1085C91.3337 97.4361 92.0116 97.5998 92.3559 97.593H100.52C101.118 97.593 101.607 97.0964 101.607 96.4893V93.3577C101.607 92.751 100.906 92.2821 100.889 92.3913V92.3913Z" fill="#D3977D"/>
</g>
<defs>
<radialGradient id="paint0_radial_465_47700" cx="0" cy="0" r="1" gradientUnits="userSpaceOnUse" gradientTransform="translate(42.4476 31.9998) rotate(-90) scale(25.3029 25.47)">
<stop stop-color="#F9E141"/>
<stop offset="0.201" stop-color="#F6D83F"/>
<stop offset="0.529" stop-color="#EDC03B"/>
<stop offset="0.94" stop-color="#DE9834"/>
<stop offset="1" stop-color="#DC9233"/>
</radialGradient>
<radialGradient id="paint1_radial_465_47700" cx="0" cy="0" r="1" gradientUnits="userSpaceOnUse" gradientTransform="translate(85.0667 95.9998) rotate(-90) scale(25.3029 25.47)">
<stop stop-color="#D4B190"/>
<stop offset="0.197" stop-color="#D3A889"/>
<stop offset="0.519" stop-color="#CF9075"/>
<stop offset="0.923" stop-color="#C86855"/>
<stop offset="1" stop-color="#C7604E"/>
</radialGradient>
<clipPath id="clip0_465_47700">
<rect width="128" height="128" fill="white"/>
</clipPath>
</defs>
</svg>
