<svg height="200" width="200" viewBox="0 0 200 200" xmlns="http://www.w3.org/2000/svg" fill-rule="evenodd" clip-rule="evenodd" stroke-miterlimit="10"><path fill="#808285" fill-rule="nonzero" d="M136.056 54.8l-.223 21.251-72.012-.756.223-21.253z"/><path d="M65.355 55.387l69.347.733-.198 18.584-69.347-.733.198-18.584m-2.64-2.694l-.027 2.667-.197 18.584-.027 2.667 2.667.03 69.347.73 2.666.03.027-2.668.197-18.584.03-2.666-2.667-.027-69.35-.736-2.666-.027z" fill="#414042" fill-rule="nonzero"/><path d="M90.84 75.504S89.38 61.891 83.296 61.83c-7.648-.309-7.792 13.512-7.792 13.512l15.336.163zm19.43-14.48c-.073 6.81 2.49 12.36 5.722 12.392 3.23.035 5.91-5.459 5.981-12.27.022-2.04-.46-6.5-.46-6.5l-10.326-.11c-.003.003-.899 4.635-.918 6.488zM70.962 56.51c.002-.36.026-2.498.026-2.498l-6.656.16-.626 10.496s1.712.018 1.893.018c2.915.032 5.315-3.629 5.363-8.176z" fill="none" stroke="#58595b" stroke-width="2.0000025"/><path d="M72.181 60.752c-4.274-.045-6.882 6.595-6.882 6.595l-.504 6.482 14.477.291s.187-1.539.195-2.344c.061-6.045-2.526-10.976-7.286-11.024zm34.464 2.723c-1.645-4.39-4.784-7.374-8.426-7.41-2.283-.025-4.392 1.12-6.078 3.042.011-.198.027-.395.03-.595.01-.997-.344-2.843-.344-2.843l-11.816-.125s-.392 1.837-.403 2.835c-.05 4.61 2.723 8.376 6.192 8.41 1.101.011 2.139-.357 3.048-1.008" fill="#a7a9ac" fill-rule="nonzero"/><ellipse cx="28.606" cy="21.792" rx="1.366" ry=".861" fill="#a7a9ac" transform="matrix(-.02802 2.66652 -2.66652 -.02802 135.2 -17.553)"/><path d="M84.675 72.773c.026-2.488-1.12-4.514-2.563-4.53-1.443-.016-2.632 1.99-2.659 4.474-.026 2.488 1.14 2.904 2.58 2.92 1.442.014 2.615-.378 2.642-2.864zm35.842-15.426c-1.837-.019-3.349 2.136-3.378 4.81-.03 2.678 1.44 4.864 3.277 4.883 1.837.019 3.35-2.136 3.379-4.81a6.677 6.677 0 00-.36-2.265c1.328 1.46 3.042 2.766 4.933 2.784a9.409 9.409 0 001.816-.165c-1.776 1.333-3.099 3.675-3.555 6.475a6.254 6.254 0 00-3.069-.862c-3.344-.034-7.05 6.315-7.05 6.315l17.994.195.192-13.182s-.714-.122-1.085-.125c-.152 0-.299.016-.448.027.587-.37 1.555-1.736 1.555-1.736l-.016-3.57-14.04-.15s.365.72 1.002 1.69a2.419 2.419 0 00-1.147-.314z" fill="#a7a9ac" fill-rule="nonzero"/><path d="M111.672 55.877s-.688 2.688-.707 4.352c-.04 3.707 1.163 6.723 2.683 6.74 1.52.015 2.784-2.977 2.824-6.684.016-1.664-.613-4.365-.613-4.365l-4.187-.043zm-5.31 15.734c.07-6.582-2.335-11.944-5.375-11.976-3.04-.032-5.558 5.277-5.627 11.858-.01.963.123 2.8.123 2.8l10.701.112c-.003 0 .168-1.832.179-2.794zM91.036 57.264c.005-.557-.096-1.61-.096-1.61l-5.512-.06s-.123 1.051-.13 1.609c-.033 3.2 1.223 5.805 2.807 5.824 1.584.018 2.896-2.563 2.93-5.763zM77.333 72.437c.056-5.258-1.362-9.536-3.168-9.554-3.269-.035-4.49 4.16-4.546 9.418l-.019 1.72 5.917.027 1.75.035c.002-.003.064-1.086.066-1.646zm49.155-15.392c-.027 2.363 1.347 4.294 3.061 4.312 1.715.02 3.128-1.882 3.155-4.248.003-.344-.075-1-.075-1l-6.045-.08c.003 0-.093.664-.096 1.016zm2.976 12.558c-.021 1.96.939 5.058.939 5.058l4.104.043.17-11.557s-1.01-.782-1.584-.79c-1.962-.024-3.586 3.222-3.629 7.246zm-3.872 1.736c-2.304-.024-2.336 3.144-2.336 3.144l4.619.154c-.003 0-.304-3.277-2.283-3.298z" fill="#c1c1c1" fill-rule="nonzero"/><ellipse cx="45.424" cy="23.229" rx=".613" ry="1.246" fill="#c1c1c1" transform="rotate(.595 120.602 61.656) scale(2.66667)"/><ellipse cx="28.634" cy="21.612" rx=".608" ry="1.186" fill="#c1c1c1" transform="rotate(.595 76.66 57.859) scale(2.66667)"/><ellipse cx="31.131" cy="27.1" rx=".624" ry="1.129" fill="#c1c1c1" transform="rotate(.606 82.746 72.04) scale(2.66667)"/><path d="M65.355 55.387l69.347.733-.198 18.584-69.347-.733.198-18.584m-2.64-2.694l-.027 2.667-.197 18.584-.027 2.667 2.667.03 69.347.73 2.666.03.027-2.668.197-18.584.03-2.666-2.667-.027-69.35-.736-2.666-.027z" fill="#414042" fill-rule="nonzero"/><g><path fill="#808285" fill-rule="nonzero" d="M196.34 121.578l-17.078 12.646-42.855-57.877L153.486 63.7z"/><path d="M153.222 65.568l41.269 55.739-14.939 11.058-41.266-55.736 14.936-11.06m.557-3.729l-2.144 1.587-14.936 11.058-2.144 1.587 1.587 2.144 41.269 55.736 1.587 2.144 2.144-1.586 14.938-11.06 2.142-1.586-1.587-2.144-41.27-55.736-1.586-2.144z" fill="#414042" fill-rule="nonzero"/><path d="M180.214 99.901s-9.974 9.384-6.352 14.267c4.368 6.285 15.477-1.941 15.477-1.941L180.214 99.9zm-23.272-6.752c5.474-4.053 8.352-9.445 6.432-12.042-1.923-2.598-7.92-1.416-13.392 2.637-1.64 1.216-4.904 4.293-4.904 4.293l6.144 8.3c-.006 0 4.229-2.084 5.72-3.188zm20.12 34.067c-.288.216-2.006 1.485-2.006 1.485l4.144 5.211 8.744-5.835-1.125-1.52c-1.736-2.34-6.104-2.048-9.757.66z" fill="none" stroke="#58595b" stroke-width="2.0000025"/><path d="M179.71 123.683c2.544 3.434 9.413 1.506 9.413 1.506l5.475-3.509-8.504-11.72s-1.34.779-1.987 1.259c-4.861 3.602-7.23 8.64-4.397 12.464zM161.08 94.56c-2.504 3.96-2.992 8.267-.824 11.192 1.358 1.835 3.544 2.824 6.096 3.01-.165.11-.33.217-.493.337-.8.592-2.059 1.99-2.059 1.99l7.032 9.495s1.704-.797 2.504-1.39c3.704-2.74 5.035-7.223 2.968-10.013-.656-.885-1.576-1.49-2.642-1.82" fill="#a7a9ac" fill-rule="nonzero"/><ellipse cx="65.674" cy="45.753" rx="1.365" ry=".861" fill="#a7a9ac" transform="rotate(-36.515 175.139 122.018) scale(2.66667)"/><path d="M181.755 106.467c-2 1.48-2.923 3.618-2.064 4.778.859 1.158 3.173.896 5.17-.58 2-1.48 1.63-2.662.771-3.82-.858-1.16-1.88-1.858-3.877-.378zm-33.933-19.27c1.093 1.478 3.722 1.384 5.877-.21 2.152-1.592 3.008-4.08 1.915-5.558-1.094-1.477-3.723-1.38-5.875.211a6.668 6.668 0 00-1.587 1.653c.363-1.938.368-4.093-.757-5.61a9.47 9.47 0 00-1.23-1.35c2.134.611 4.8.254 7.307-1.072a6.256 6.256 0 001.166 2.968c1.992 2.688 9.29 1.811 9.29 1.811l-10.704-14.467-10.626 7.803s.333.643.554.941c.09.123.195.23.294.342-.651-.243-2.323-.192-2.323-.192l-2.837 2.168 8.354 11.282s.355-.722.742-1.818c.058.397.2.773.44 1.098z" fill="#a7a9ac" fill-rule="nonzero"/><path d="M151.992 95.136s2.558-1.072 3.894-2.061c2.978-2.206 4.66-4.984 3.754-6.208-.904-1.222-4.053-.424-7.032 1.781-1.336.99-3.112 3.125-3.112 3.125l2.496 3.363zm15.747-5.259c-5.29 3.918-8.112 9.072-6.304 11.515 1.808 2.443 7.563 1.248 12.853-2.67.776-.573 2.158-1.786 2.158-1.786l-6.368-8.6c0-.003-1.566.965-2.34 1.541zm-2.187 20.88c-.448.334-1.226 1.048-1.226 1.048l3.28 4.43s.909-.536 1.36-.867c2.57-1.904 3.89-4.48 2.949-5.752-.941-1.272-3.792-.765-6.363 1.141zm20.363 1.766c-4.224 3.128-6.781 6.842-5.707 8.293 1.944 2.627 6.024 1.07 10.25-2.059.436-.32 1.385-1.024 1.385-1.024l-3.55-4.733-1.026-1.416c0-.003-.899.605-1.352.939zm-41.936-29.904c1.901-1.406 2.613-3.667 1.592-5.046-1.021-1.378-3.39-1.357-5.29.051-.278.205-.753.664-.753.664l3.584 4.867c0-.003.587-.326.867-.536zm8.219-9.952c1.573-1.168 3.466-3.8 3.466-3.8l-2.442-3.299-9.32 6.84s-.014 1.28.328 1.739c1.165 1.578 4.733.914 7.968-1.48zm3.722 2.04c1.37 1.85 3.918-.035 3.918-.035l-2.667-3.776c0 .003-2.43 2.219-1.25 3.81z" fill="#c1c1c1" fill-rule="nonzero"/><ellipse cx="56.67" cy="31.476" rx=".613" ry="1.247" fill="#c1c1c1" transform="rotate(-126.513 151.122 83.936) scale(2.66667)"/><ellipse cx="65.513" cy="45.838" rx=".608" ry="1.186" fill="#c1c1c1" transform="rotate(-126.527 174.699 122.235) scale(2.66667)"/><ellipse cx="68.382" cy="40.535" rx=".624" ry="1.129" fill="#c1c1c1" transform="rotate(-126.534 182.352 108.096) scale(2.66667)"/><g><path d="M153.222 65.568l41.269 55.739-14.939 11.058-41.266-55.736 14.936-11.06m.557-3.729l-2.144 1.587-14.936 11.058-2.144 1.587 1.587 2.144 41.269 55.736 1.587 2.144 2.144-1.586 14.938-11.06 2.142-1.586-1.587-2.144-41.27-55.736-1.586-2.144z" fill="#414042" fill-rule="nonzero"/></g></g><g><path fill="#808285" fill-rule="nonzero" d="M62.898 76.354l-42.851 57.883-17.08-12.644L45.82 63.71z"/><path d="M46.099 65.568l14.936 11.059-41.267 55.738-14.939-11.058L46.1 65.568m-.558-3.728l-1.586 2.144-41.27 55.736-1.586 2.144 2.144 1.587 14.936 11.059 2.144 1.586 1.586-2.144 41.267-55.736 1.587-2.144-2.144-1.587-14.936-11.058-2.142-1.587z" fill="#414042" fill-rule="nonzero"/><path d="M19.107 99.901s9.973 9.384 6.352 14.267c-4.368 6.285-15.478-1.941-15.478-1.941L19.107 99.9zm23.272-6.752c-5.475-4.053-8.352-9.445-6.43-12.042 1.923-2.598 7.92-1.416 13.392 2.637 1.64 1.216 4.904 4.293 4.904 4.293l-6.144 8.3c.003 0-4.234-2.084-5.722-3.188zm-20.12 34.067l2.008 1.485-4.147 5.211-8.744-5.835s1.016-1.376 1.125-1.52c1.734-2.34 6.102-2.048 9.758.66z" fill="none" stroke="#58595b" stroke-width="2.0000025"/><path d="M19.61 123.683c-2.543 3.434-9.413 1.506-9.413 1.506l-5.474-3.509 8.504-11.72s1.338.779 1.986 1.259c4.859 3.602 7.23 8.64 4.398 12.464zM38.238 94.56c2.507 3.96 2.992 8.267.824 11.192-1.357 1.835-3.544 2.824-6.096 3.01.166.11.331.217.494.337.802.592 2.061 1.99 2.061 1.99l-7.032 9.495s-1.704-.797-2.504-1.39c-3.707-2.74-5.035-7.223-2.97-10.013.655-.885 1.575-1.49 2.645-1.82" fill="#a7a9ac" fill-rule="nonzero"/><ellipse cx="9.071" cy="45.753" rx="1.365" ry=".861" fill="#a7a9ac" transform="rotate(-143.485 24.187 122.009) scale(2.66667)"/><path d="M17.565 106.467c2 1.48 2.923 3.618 2.064 4.778-.856 1.158-3.173.896-5.17-.58-2-1.48-1.63-2.662-.771-3.82.859-1.16 1.877-1.858 3.877-.378zM51.5 87.197c-1.094 1.478-3.723 1.384-5.878-.21-2.152-1.592-3.008-4.08-1.914-5.558 1.093-1.477 3.722-1.38 5.874.211a6.668 6.668 0 011.587 1.653c-.363-1.938-.368-4.093.757-5.61.374-.502.787-.95 1.227-1.35-2.133.611-4.8.254-7.307-1.072a6.256 6.256 0 01-1.165 2.968c-1.992 2.688-9.29 1.811-9.29 1.811l10.703-14.467 10.627 7.803s-.333.643-.555.941c-.09.123-.192.23-.29.342.65-.243 2.322-.192 2.322-.192l2.838 2.168-8.355 11.282s-.355-.722-.744-1.818c-.059.397-.2.773-.437 1.098z" fill="#a7a9ac" fill-rule="nonzero"/><path d="M47.328 95.136s-2.557-1.072-3.893-2.061c-2.979-2.206-4.662-4.984-3.755-6.208.904-1.222 4.053-.424 7.032 1.781 1.336.99 3.112 3.125 3.112 3.125l-2.496 3.363zm-15.747-5.259c5.291 3.918 8.112 9.072 6.304 11.515-1.808 2.443-7.562 1.248-12.853-2.67-.776-.573-2.157-1.786-2.157-1.786l6.368-8.6c0-.003 1.565.965 2.338 1.541zm2.187 20.88c.448.334 1.227 1.048 1.227 1.048l-3.28 4.43s-.91-.536-1.36-.867c-2.571-1.904-3.891-4.48-2.95-5.752.942-1.272 3.79-.765 6.363 1.141zm-20.365 1.766c4.226 3.128 6.781 6.842 5.709 8.293-1.947 2.627-6.027 1.07-10.253-2.059-.435-.32-1.384-1.024-1.384-1.024L11.027 113l1.026-1.416c0-.003.899.605 1.35.939zM55.34 82.619c-1.9-1.406-2.61-3.667-1.592-5.046 1.022-1.378 3.39-1.357 5.291.051.277.205.752.664.752.664l-3.584 4.867c0-.003-.587-.326-.867-.536zm-8.218-9.952c-1.574-1.168-3.467-3.8-3.467-3.8l2.443-3.299 9.32 6.84s.013 1.28-.328 1.739c-1.166 1.578-4.734.914-7.968-1.48zm-3.723 2.04c-1.373 1.85-3.917-.035-3.917-.035l2.666-3.776c0 .003 2.43 2.219 1.251 3.81z" fill="#c1c1c1" fill-rule="nonzero"/><ellipse cx="18.075" cy="31.476" rx=".613" ry="1.247" fill="#c1c1c1" transform="rotate(-53.487 48.197 83.936) scale(2.66667)"/><ellipse cx="9.231" cy="45.838" rx=".608" ry="1.186" fill="#c1c1c1" transform="rotate(-53.495 24.616 122.234) scale(2.66667)"/><ellipse cx="6.363" cy="40.535" rx=".624" ry="1.129" fill="#c1c1c1" transform="rotate(-53.466 16.967 108.096) scale(2.66667)"/><g><path d="M46.099 65.568l14.936 11.059-41.267 55.738-14.939-11.058L46.1 65.568m-.558-3.728l-1.586 2.144-41.27 55.736-1.586 2.144 2.144 1.587 14.936 11.059 2.144 1.586 1.586-2.144 41.267-55.736 1.587-2.144-2.144-1.587-14.936-11.058-2.142-1.587z" fill="#414042" fill-rule="nonzero"/></g></g></svg>