<svg xmlns="http://www.w3.org/2000/svg" width="142.453" height="142.453"><path fill="#CCEFFE" d="M10.089 135.4c-3.727 0-6.761-3.023-6.761-6.746V13.797c0-3.718 3.031-6.747 6.761-6.747 1.582 0 3.128.577 4.349 1.617l.196.18L66.66 60.884c2.997 2.605 4.712 6.366 4.712 10.344 0 3.974-1.714 7.736-4.712 10.339l-52.12 52.135-.104.088c-1.219 1.04-2.764 1.61-4.347 1.61z"/><path fill="#223948" d="M10.089 10.38c.755 0 1.528.255 2.192.82l52.114 52.126c4.865 4.141 4.865 11.655 0 15.795L12.282 131.25c-.664.564-1.438.818-2.192.818-1.761 0-3.431-1.383-3.431-3.418V13.799c.001-2.036 1.669-3.419 3.43-3.419m0-6.659C4.526 3.721 0 8.243 0 13.799v114.856c0 5.555 4.527 10.076 10.09 10.076 2.372 0 4.684-.857 6.509-2.408l.203-.174.189-.188L68.937 84c3.667-3.234 5.764-7.873 5.764-12.773 0-4.899-2.097-9.538-5.764-12.773L16.991 6.493l-.188-.188-.203-.173c-1.827-1.555-4.137-2.411-6.511-2.411z"/><path fill="#76B6BB" d="M67.61 68.288L6.66 128.656c0 2.908 3.408 4.482 5.623 2.6l52.113-52.131c3.259-2.774 4.323-7.061 3.214-10.837z"/><path fill="#CCEFFE" d="M77.311 135.4c-3.727 0-6.76-3.023-6.76-6.746V13.797c0-3.718 3.032-6.747 6.76-6.747 1.582 0 3.129.577 4.349 1.617l.197.18 52.026 52.038c2.993 2.605 4.71 6.366 4.71 10.344 0 3.974-1.713 7.736-4.71 10.339l-52.12 52.135-.104.088c-1.219 1.039-2.766 1.609-4.348 1.609z"/><path fill="#223948" d="M77.311 10.38c.757 0 1.527.255 2.194.82l52.108 52.126c4.866 4.141 4.866 11.655 0 15.795L79.505 131.25c-.667.564-1.44.818-2.194.818-1.76 0-3.431-1.383-3.431-3.418V13.799c0-2.036 1.671-3.419 3.431-3.419m0-6.659c-5.562 0-10.089 4.522-10.089 10.078v114.856c0 5.555 4.527 10.076 10.089 10.076 2.373 0 4.685-.857 6.509-2.408l.204-.174.188-.188 51.947-51.965c3.666-3.232 5.764-7.873 5.764-12.772 0-4.898-2.098-9.538-5.764-12.773L84.212 6.493l-.188-.188-.204-.173c-1.824-1.555-4.136-2.411-6.509-2.411z"/><g><path fill="#76B6BB" d="M134.832 68.288l-60.949 60.368c0 2.908 3.409 4.482 5.623 2.6l52.108-52.131c3.261-2.774 4.327-7.061 3.218-10.837z"/></g></svg>