<svg xmlns="http://www.w3.org/2000/svg" width="128" height="128"><path d="M124.615 70.25l-.082-.113-.091-.105-5.979-6.832a3.605 3.605 0 00-2.802-1.342H83.193l-4.29-25.223-.005-.031-.005-.03a3.904 3.904 0 00-1.354-2.275l-.111-.093-.121-.08-29.569-19.721a2.89 2.89 0 00-.538-.28c-.354-.243-1.298-.492-2.407-.492H43.76c-1.101 0-1.862.18-2.279.444-.243.088-.479.2-.697.349l-29.537 19.7-.121.08-.112.093a3.912 3.912 0 00-1.354 2.275l-.005.03-.005.031-6.358 37.373a3.905 3.905 0 003.843 4.6c.745 0 1.475-.229 2.104-.633l12.373 35.27.683 1.947h27.092l54.513.404 1.361.01.88-1.039L118.8 99.633c.136-.16.249-.332.354-.506l2.281-.023c1.742 0 3.227-1.326 3.426-3.084l.014-.133.003-.135.472-22.924a3.956 3.956 0 00-.735-2.578z" fill="none" stroke="#000" stroke-width="5" stroke-miterlimit="10"/><linearGradient id="a" gradientUnits="userSpaceOnUse" x1="64.29" y1="55.022" x2="64.29" y2="114.021"><stop offset=".108" stop-color="red"/><stop offset=".304" stop-color="#fb0000"/><stop offset=".514" stop-color="#e00"/><stop offset=".732" stop-color="#d80000"/><stop offset=".954" stop-color="#ba0000"/><stop offset="1" stop-color="#b30000"/></linearGradient><path d="M49.593 113.611H23.511L10.125 75.457l32.579-20.025a2.766 2.766 0 012.85-.029l34.202 20.063-7.76 18.958 44.33.581a2.14 2.14 0 011.933 1.262 2.137 2.137 0 01-.316 2.285l-13.114 15.47-55.236-.411z" fill="url(#a)"/><path d="M44.154 56.521c.221 0 .442.058.64.174l33.082 19.406-8.103 19.793 46.533.609a.654.654 0 01.49 1.078l-12.659 14.934-54.533-.404h-25.03l-12.633-36.01L43.49 56.709c.203-.125.434-.188.664-.188m0-3c-.79 0-1.563.219-2.235.633L10.371 73.546 8.31 74.813l.8 2.282 12.633 36.01.704 2.007h27.157l54.511.404 1.403.01.908-1.07 12.659-14.934a3.625 3.625 0 00.538-3.878 3.623 3.623 0 00-3.274-2.139l-42.13-.552 6.433-15.714.986-2.408-2.244-1.316-33.082-19.407a4.262 4.262 0 00-2.158-.587z" fill="#8c0039"/><path d="M90.12 104.912h-6.702l5.549-8.414h6.702zM99.517 104.912h-6.701l5.549-8.414h6.701z"/><linearGradient id="b" gradientUnits="userSpaceOnUse" x1="97.495" y1="63.098" x2="97.495" y2="97.998"><stop offset=".2" stop-color="#b30000"/><stop offset=".205" stop-color="#ba0000"/><stop offset=".23" stop-color="#d80000"/><stop offset=".254" stop-color="#e00"/><stop offset=".278" stop-color="#fb0000"/><stop offset=".3" stop-color="red"/></linearGradient><path d="M72.676 97.998a1.853 1.853 0 01-1.738-2.49l12.5-32.41h32.44c.672 0 1.308.312 1.721.837l6.045 6.909.041.057c.354.491.521 1.089.472 1.692l-.473 23.033-.008.071a2.067 2.067 0 01-2.052 1.829l-48.94.473h-.008z" fill="url(#b)"/><path d="M115.878 64.598c.221 0 .429.106.558.286l6.033 6.895c.152.211.219.471.189.729l-.473 23.016a.567.567 0 01-.563.502l-48.947.473a.352.352 0 01-.33-.473l12.121-31.427h31.412m0-3.001H82.409l-.741 1.92-12.121 31.428c-.395 1.072-.246 2.221.38 3.119a3.353 3.353 0 002.749 1.434l48.976-.473c1.781 0 3.304-1.356 3.514-3.155l.017-.143.003-.143.471-22.921a4.036 4.036 0 00-.755-2.641l-.082-.114-.092-.105-5.977-6.83a3.698 3.698 0 00-2.873-1.376z" fill="#8c0039"/><linearGradient id="c" gradientUnits="userSpaceOnUse" x1="43.286" y1="56.682" x2="10.485" y2="37.744"><stop offset=".108" stop-color="red"/><stop offset=".304" stop-color="#fb0000"/><stop offset=".514" stop-color="#e00"/><stop offset=".732" stop-color="#d80000"/><stop offset=".954" stop-color="#ba0000"/><stop offset="1" stop-color="#b30000"/></linearGradient><path d="M7.352 77.028a2.502 2.502 0 01-1.932-.913 2.475 2.475 0 01-.52-2.05l6.355-37.362c.113-.6.421-1.118.871-1.487l.057-.047 30.009-20.014.531-.024c.904 0 1.64.735 1.64 1.638v37.376c0 .754-.336 1.458-.922 1.933l-.086.07L8.813 76.546c-.43.316-.932.482-1.461.482z" fill="url(#c)"/><path d="M42.724 16.632a.14.14 0 01.14.138v37.376a.99.99 0 01-.366.768L7.973 75.301a.974.974 0 01-.621.227c-.575 0-1.105-.516-.978-1.18l6.36-37.393a.98.98 0 01.343-.578l29.569-19.721a.137.137 0 01.078-.024m0-3c-.632 0-1.242.188-1.765.544L11.413 33.881l-.123.082-.114.094a3.992 3.992 0 00-1.388 2.339l-.005.028-.005.028L3.42 73.825a3.97 3.97 0 00.844 3.246 3.996 3.996 0 003.088 1.457c.811 0 1.608-.254 2.277-.721l34.393-20.31.191-.112.172-.14a3.972 3.972 0 001.478-3.099V16.77a3.142 3.142 0 00-3.139-3.138z" fill="#8c0039"/><g><linearGradient id="d" gradientUnits="userSpaceOnUse" x1="78.503" y1="37.744" x2="45.702" y2="56.682"><stop offset="0" stop-color="#b30000"/><stop offset=".047" stop-color="#ba0000"/><stop offset=".27" stop-color="#d80000"/><stop offset=".49" stop-color="#e00"/><stop offset=".703" stop-color="#fb0000"/><stop offset=".9" stop-color="red"/></linearGradient><path d="M81.635 77.028a2.448 2.448 0 01-1.461-.481L45.631 56.149l-.086-.07a2.478 2.478 0 01-.921-1.933V16.77a1.64 1.64 0 011.639-1.638h.462l.459.284 29.623 19.756.06.05c.446.369.751.886.858 1.454l6.365 37.421a2.458 2.458 0 01-.525 2.02 2.5 2.5 0 01-1.93.911z" fill="url(#d)"/><path d="M46.263 16.632c.026 0 .053.007.077.024l29.57 19.721a.993.993 0 01.342.578l6.36 37.393c.127.664-.403 1.18-.978 1.18a.976.976 0 01-.621-.227L46.489 54.914a.99.99 0 01-.365-.768V16.77c0-.081.067-.138.139-.138m0-3a3.143 3.143 0 00-3.139 3.138v37.376c0 1.209.538 2.338 1.477 3.099l.172.14.191.112 34.394 20.31a3.99 3.99 0 002.277.721 3.993 3.993 0 003.931-4.704l-6.357-37.373-.005-.028-.005-.028a3.998 3.998 0 00-1.375-2.329l-.12-.099-.13-.087-29.57-19.72a3.1 3.1 0 00-1.741-.528z" fill="#8c0039"/></g><path d="M48.591 115.219H39.04l-1.606-11.258a5.753 5.753 0 013.136-5.125 6.864 6.864 0 016.11-.07l.209.102a5.76 5.76 0 013.253 5.186l-1.551 11.165zM47.491 80.795h-7.366l-1.238-8.547a4.36 4.36 0 012.419-3.891 5.363 5.363 0 014.712-.053l.162.076a4.366 4.366 0 012.509 3.936l-1.198 8.479z"/><g><path d="M45.044 16.454h-1.002c-1.368 0-2.487-.57-2.487-1.267 0 0 .013-1.165.045-1.204.303-.354 1.146-.603 2.442-.603h1.002c1.368 0 2.487.389 2.487.662v1.145c0 .696-1.119 1.267-2.487 1.267z" fill="#8c0039"/></g></svg>