<svg width="40" height="194" viewBox="0 0 40 194" fill="none" xmlns="http://www.w3.org/2000/svg">
<g clip-path="url(#clip0_3_18)">
<path d="M0.573975 182.204V11.7861L19.9799 0.661499L39.436 11.8262V182.204L19.9799 193.349L0.573975 182.204Z" fill="url(#paint0_linear_3_18)"/>
<path d="M19.9799 1.30289L38.872 12.1469V181.873L19.9799 192.697L1.1279 181.873V12.1269L19.9799 1.30289ZM19.9799 0L19.4159 0.320711L0.573997 11.1447L0 11.4754V182.515L0.563904 182.845L19.4159 193.669L19.9799 194L20.5438 193.669L39.436 182.845L40 182.515V11.5055L39.436 11.1748L20.5438 0.320711L19.9799 0Z" fill="black"/>
<path d="M19.9798 5.19149L35.488 14.0912V179.919L19.9798 188.808L4.52164 179.929V14.0712L19.9798 5.19149ZM19.9798 1.29285L1.13794 12.1269V181.873L19.9798 192.697L38.872 181.873V12.1469L19.9798 1.30287V1.29285Z" fill="#086800"/>
</g>
<defs>
<linearGradient id="paint0_linear_3_18" x1="0.573975" y1="96.995" x2="39.436" y2="96.995" gradientUnits="userSpaceOnUse">
<stop offset="0.15" stop-color="#00FF1A"/>
<stop offset="0.5" stop-color="#4DA45F"/>
<stop offset="0.85" stop-color="#00FF1A"/>
</linearGradient>
<clipPath id="clip0_3_18">
<rect width="40" height="194" fill="white"/>
</clipPath>
</defs>
</svg>
