<svg width="128" height="128" viewBox="0 0 128 128" fill="none" xmlns="http://www.w3.org/2000/svg">
<path d="M65.7075 19.0189C65.9673 19.0189 98.6596 46.1072 98.6596 46.1072C98.8994 46.3076 99.0693 46.5881 99.1292 46.8986L106.923 94.0827C107.103 94.9843 106.823 95.6856 106.293 95.6856C106.093 95.6856 105.864 95.5954 105.604 95.385L100.258 91.1074L98.4798 94.1729L89.2876 110.001H38.6903L29.4981 95.0244L27.26 91.4681L22.3741 95.375C22.1144 95.5954 21.8746 95.6956 21.6747 95.6956C21.1452 95.6956 20.8754 94.9943 21.0553 94.0927L28.8487 46.8886C28.9086 46.5881 29.0785 46.3076 29.3183 46.1072C29.3183 46.1072 62.0206 19.0189 62.2604 19.0189H65.7075ZM62.2604 14.01C60.4619 14.01 59.6326 14.6812 57.6443 16.2841C52.5927 20.4135 47.5503 24.5542 42.5171 28.7062C34.314 35.4482 26.141 42.2303 26.141 42.2303C24.9709 43.2033 24.1875 44.5646 23.9328 46.0671L16.1394 93.2112C15.9427 94.1574 15.9543 95.1353 16.1735 96.0766C16.3926 97.0178 16.8141 97.8998 17.4083 98.6609C17.9284 99.2965 18.5826 99.8086 19.3238 100.16C20.065 100.512 20.8747 100.694 21.6947 100.694C22.6439 100.694 24.0927 100.444 25.5415 99.2619L26.0111 98.8813L34.4539 112.606C34.8991 113.335 35.523 113.938 36.2663 114.357C37.0096 114.776 37.8476 114.997 38.7003 115H89.2976C90.1718 114.999 91.0306 114.768 91.788 114.331C92.5454 113.893 93.175 113.264 93.6139 112.506L101.677 98.6308L102.476 99.272C103.548 100.178 104.901 100.681 106.303 100.694C107.972 100.694 109.53 99.9532 110.6 98.6609C111.192 97.899 111.612 97.0166 111.829 96.0754C112.047 95.1342 112.057 94.1567 111.858 93.2112L104.065 46.0671L104.045 45.9469C103.77 44.4956 103 43.1853 101.867 42.2403C92.6358 34.6 83.3936 26.973 74.1404 19.3596C67.6159 14.0301 67.6159 14.0301 65.7874 14H62.2804L62.2604 14.01Z" fill="black"/>
<path d="M38.0109 111.554L27.6696 94.7239L64.1288 66.1229L100.598 93.8423L90.3067 111.554H38.0109Z" fill="url(#paint0_linear_2_440)"/>
<path d="M64.1388 68.0263L98.6397 94.233L89.4474 110.051H38.8402L29.648 95.0845L64.1289 68.0263M64.0989 64.2195L62.2904 65.6521L27.7896 92.7203L25.6913 94.3732L27.0902 96.6573L36.2824 111.624L37.1616 113.057H91.166L92.0253 111.564L101.227 95.7457L102.566 93.4416L100.448 91.8387L65.9573 65.622L64.1189 64.2195H64.0989Z" fill="#753802"/>
<path d="M21.8346 97.2584C21.2151 97.2584 20.6456 96.9779 20.2359 96.487C19.7164 95.8459 19.5365 94.9142 19.7364 93.8523L27.5298 46.6983C27.6597 46.007 28.0094 45.416 28.5289 44.9952C61.6309 17.5764 61.6609 17.5764 62.4203 17.5764H63.919V62.817C63.919 63.6785 63.5393 64.49 62.8699 65.0209L23.4632 96.6273C22.9536 97.048 22.4041 97.2584 21.8346 97.2584Z" fill="url(#paint1_linear_2_440)"/>
<path d="M62.4202 19.0791V62.817C62.4202 63.2177 62.2404 63.6184 61.9207 63.8689L22.544 95.4351C22.2842 95.6555 22.0444 95.7457 21.8445 95.7457C21.315 95.7457 21.0452 95.0444 21.2151 94.1428L29.0085 46.9487C29.0784 46.6482 29.2383 46.3577 29.4781 46.1573C29.4781 46.1573 62.1804 19.0791 62.4302 19.0791M62.4302 16.0737H62.3903C61.2612 16.0837 61.2612 16.0837 55.2763 20.9824L43.9559 30.299L27.5697 43.8432C26.7891 44.4899 26.2589 45.3901 26.071 46.3877V46.4178L26.061 46.4578L18.2676 93.6119C18.1141 94.2731 18.1088 94.9602 18.2522 95.6237C18.3957 96.2872 18.6841 96.9105 19.0969 97.4487C19.7863 98.2802 20.7854 98.751 21.8445 98.751C22.474 98.751 23.4432 98.5807 24.4423 97.7693L63.8091 66.213C64.3154 65.8047 64.7237 65.2876 65.0039 64.6997C65.2841 64.1119 65.4289 63.4685 65.4277 62.817V16.0737H62.4302Z" fill="#753802"/>
<path d="M106.453 97.2584C105.884 97.2584 105.334 97.028 104.814 96.6072L65.4278 65.041C65.0962 64.7736 64.8289 64.4349 64.6456 64.0499C64.4623 63.665 64.3676 63.2436 64.3687 62.817V17.5864L65.8874 17.5764C66.6268 17.5764 67.0264 17.8769 99.7687 45.0053C100.278 45.416 100.628 46.007 100.758 46.6682L108.551 93.8924C108.751 94.9142 108.571 95.8559 108.042 96.497C107.642 96.9779 107.073 97.2484 106.443 97.2484L106.453 97.2584Z" fill="url(#paint2_linear_2_440)"/>
<path d="M65.8674 19.0791C66.1171 19.0791 98.8195 46.1573 98.8195 46.1573C99.0593 46.3577 99.2192 46.6382 99.2891 46.9487L107.083 94.1328C107.252 95.0444 106.983 95.7457 106.453 95.7457C106.253 95.7457 106.023 95.6455 105.754 95.4451L66.3769 63.8589C66.0572 63.5984 65.8773 63.2177 65.8773 62.807V19.0791M65.8773 16.0737H62.8799V62.817C62.8799 64.1293 63.4594 65.3615 64.4785 66.193L103.895 97.7893C104.874 98.5908 105.834 98.751 106.463 98.751C107.522 98.751 108.521 98.2802 109.211 97.4487C109.621 96.911 109.908 96.2894 110.051 95.628C110.194 94.9666 110.191 94.2817 110.04 93.6219L102.247 46.4578V46.3877C102.047 45.3859 101.517 44.4843 100.728 43.8432L84.3417 30.299C80.2452 26.913 76.1187 23.517 73.0213 20.9824C67.0264 16.0737 67.0264 16.0737 65.8674 16.0737H65.8773Z" fill="#753802"/>
<path d="M69.8341 113.307H58.4537L57.4845 101.476C57.485 100.36 57.7932 99.2661 58.3751 98.3149C58.957 97.3638 59.7899 96.5925 60.7817 96.0863C61.77 95.581 62.8615 95.3118 63.9708 95.2996C65.0801 95.2875 66.1772 95.5327 67.1763 96.0162L67.3961 96.1264C69.4744 97.1281 70.7932 99.2519 70.7932 101.576L69.8341 113.297V113.307Z" fill="black"/>
<defs>
<linearGradient id="paint0_linear_2_440" x1="64.1388" y1="66.1229" x2="64.1388" y2="111.554" gradientUnits="userSpaceOnUse">
<stop offset="0.11" stop-color="#FF963B"/>
<stop offset="0.44" stop-color="#FE9438"/>
<stop offset="0.63" stop-color="#FD8F30"/>
<stop offset="0.79" stop-color="#F98622"/>
<stop offset="0.94" stop-color="#F5790E"/>
<stop offset="1" stop-color="#F27202"/>
</linearGradient>
<linearGradient id="paint1_linear_2_440" x1="61.2613" y1="68.2066" x2="26.475" y2="48.18" gradientUnits="userSpaceOnUse">
<stop offset="0.11" stop-color="#FF963B"/>
<stop offset="0.34" stop-color="#FE9337"/>
<stop offset="0.58" stop-color="#FB8B2A"/>
<stop offset="0.83" stop-color="#F67E14"/>
<stop offset="1" stop-color="#F27202"/>
</linearGradient>
<linearGradient id="paint2_linear_2_440" x1="101.767" y1="48.1108" x2="66.9908" y2="68.1374" gradientUnits="userSpaceOnUse">
<stop stop-color="#F27202"/>
<stop offset="0.17" stop-color="#F67E14"/>
<stop offset="0.42" stop-color="#FB8B2A"/>
<stop offset="0.66" stop-color="#FE9337"/>
<stop offset="0.89" stop-color="#FF963B"/>
</linearGradient>
</defs>
</svg>
