<svg width="128" height="128" viewBox="0 0 128 128" fill="none" xmlns="http://www.w3.org/2000/svg">
<path d="M65.7183 18.0094C65.978 18.0094 98.6693 45.1004 98.6693 45.1004C98.9091 45.3008 99.079 45.5713 99.1389 45.8819L106.932 93.0706C107.112 93.9823 106.832 94.6837 106.303 94.6837C106.103 94.6837 105.873 94.5835 105.613 94.3831L100.268 90.095L98.4895 93.1708L89.2976 109.001H38.702L29.5101 94.0224L27.272 90.4657L22.3863 94.3731C22.1265 94.5935 21.8867 94.6837 21.6969 94.6837C21.1574 94.6837 20.8976 93.9823 21.0675 93.0806L28.8606 45.8919C28.9206 45.5713 29.0904 45.2907 29.3302 45.0904C29.3302 45.0904 62.0315 18.0094 62.2713 18.0094H65.7183ZM62.2713 13C60.4729 13 59.6436 13.6612 57.6553 15.2743C52.6039 19.4041 47.5616 23.5452 42.5286 27.6976C34.3258 34.4604 26.143 41.2331 26.143 41.2331C24.973 42.2062 24.1896 43.5676 23.935 45.0703L16.1418 92.209C15.9429 93.1568 15.9534 94.1369 16.1726 95.0802C16.3918 96.0235 16.8144 96.9073 17.4107 97.6693C17.9322 98.3026 18.5868 98.8125 19.3279 99.1623C20.0689 99.5122 20.8779 99.6935 21.6969 99.6931C22.6461 99.6931 24.0948 99.4526 25.5435 98.2604L26.0131 97.8897L34.4557 111.616C34.9021 112.343 35.5265 112.944 36.2697 113.361C37.0129 113.779 37.8502 113.999 38.702 114H89.2976C90.1708 114 91.0289 113.771 91.7862 113.335C92.5435 112.899 93.1736 112.272 93.6138 111.515L101.677 97.6392L102.496 98.2904C103.564 99.1873 104.91 99.6832 106.303 99.6931C107.961 99.6931 109.53 98.9517 110.599 97.6593C111.192 96.8976 111.612 96.0152 111.829 95.0737C112.047 94.1323 112.057 93.1546 111.858 92.209L104.065 45.0603L104.045 44.9501C103.769 43.4986 102.999 42.1882 101.867 41.2431L85.4709 27.6876L74.1409 18.3601C67.6166 13.02 67.6166 13.02 65.7882 13H62.2813H62.2713Z" fill="black"/>
<path d="M38.0226 110.554L27.6816 93.7218L64.1396 65.1281L100.608 92.8402L90.3166 110.564L38.0226 110.554Z" fill="url(#paint0_linear_2_485)"/>
<path d="M64.1496 67.0116L98.6493 93.2309L89.4574 109.041H38.8518L29.6699 94.0825L64.1496 67.0116ZM64.1197 63.2245L62.3112 64.6471L27.8115 91.708L25.7134 93.3712L27.1122 95.6555L36.3041 110.624L37.1833 112.056H91.1759L92.0351 110.553L101.237 94.7438L102.576 92.4394L100.458 90.8364L65.968 64.6171L64.1296 63.2144L64.1197 63.2245Z" fill="#0000B2"/>
<path d="M21.8468 96.2466C21.2273 96.2466 20.6578 95.9761 20.2482 95.4852C19.7286 94.8439 19.5488 93.9122 19.7486 92.8502L27.5418 45.6915C27.6717 45.0002 28.0214 44.4091 28.5409 43.9883C61.6418 16.5567 61.6718 16.5567 62.4312 16.5567H63.9298V61.8218C63.9298 62.6834 63.5502 63.485 62.8808 64.026L23.4754 95.6154C22.9658 96.0362 22.4163 96.2566 21.8468 96.2566V96.2466Z" fill="url(#paint1_linear_2_485)"/>
<path d="M62.4311 18.0595V61.8218C62.4311 62.2226 62.2513 62.6133 61.9316 62.8638L22.5561 94.4332C22.2964 94.6436 22.0566 94.7338 21.8568 94.7338C21.3272 94.7338 21.0575 94.0324 21.2273 93.1307L29.0205 45.942C29.0904 45.6314 29.2503 45.3509 29.49 45.1505C29.49 45.1505 62.1913 18.0695 62.4411 18.0595M62.4411 15.0539H62.4012C61.2721 15.0739 61.2721 15.0739 55.2874 19.9631L43.9673 29.2806L27.5817 42.8361C26.8032 43.4804 26.2732 44.3768 26.083 45.3709V45.411L26.0731 45.441L18.2799 92.6098C18.1264 93.271 18.1212 93.9582 18.2646 94.6218C18.408 95.2854 18.6964 95.9087 19.1092 96.447C19.7986 97.2685 20.7977 97.7494 21.8568 97.7494C22.4862 97.7494 23.4553 97.5791 24.4445 96.7676L63.8099 65.2082C64.3194 64.7998 64.7304 64.2814 65.0124 63.6916C65.2943 63.1018 65.44 62.4559 65.4385 61.8018V15.0639H62.4411V15.0539Z" fill="#0000B2"/>
<path d="M106.463 96.2466C105.893 96.2466 105.343 96.0262 104.824 95.5954L65.4385 64.036C65.107 63.7686 64.8397 63.4299 64.6564 63.0449C64.4731 62.6599 64.3784 62.2385 64.3795 61.8118V16.5667H65.8981C66.6375 16.5667 67.0371 16.8673 99.7784 43.9883C100.288 44.4091 100.638 45.0002 100.768 45.6514L108.561 92.8903C108.673 93.3353 108.686 93.7997 108.597 94.2501C108.509 94.7005 108.323 95.1257 108.051 95.4952C107.651 95.9761 107.082 96.2466 106.453 96.2466H106.463Z" fill="url(#paint2_linear_2_485)"/>
<path d="M65.8781 18.0595C66.1279 18.0595 98.8292 45.1505 98.8292 45.1505C99.069 45.3509 99.2288 45.6314 99.2988 45.942L107.092 93.1307C107.262 94.0324 106.992 94.7338 106.462 94.7338C106.263 94.7338 106.033 94.6436 105.763 94.4332L66.3877 62.8538C66.068 62.6033 65.8881 62.2126 65.8881 61.8118V18.0595M65.8881 15.0539H62.8907V61.8218C62.8907 63.1343 63.4702 64.3666 64.4893 65.1982L103.905 96.7976C104.884 97.5891 105.843 97.7594 106.472 97.7594C107.532 97.7594 108.531 97.2785 109.22 96.457C109.632 95.9181 109.919 95.2947 110.063 94.6314C110.206 93.968 110.201 93.2811 110.049 92.6198L102.256 45.451V45.3809C102.056 44.379 101.527 43.4773 100.738 42.8361L84.3619 29.2806C80.2655 25.8943 76.1391 22.5079 73.0418 19.9631C67.0471 15.0539 67.0471 15.0539 65.8881 15.0539Z" fill="#0000B2"/>
<path d="M69.8446 112.297H58.4646L57.4955 100.475C57.4969 99.3576 57.8066 98.2628 58.3903 97.3115C58.974 96.3601 59.8089 95.5893 60.8026 95.0845C61.7909 94.5792 62.8823 94.3099 63.9916 94.2977C65.1008 94.2856 66.1979 94.5308 67.197 95.0143L67.4168 95.1145C69.4949 96.1264 70.8138 98.2404 70.8138 100.565L69.8546 112.297H69.8446Z" fill="black"/>
<defs>
<linearGradient id="paint0_linear_2_485" x1="64.1496" y1="65.118" x2="64.1496" y2="110.554" gradientUnits="userSpaceOnUse">
<stop offset="0.11" stop-color="#00AAFF"/>
<stop offset="0.37" stop-color="#01A7FF"/>
<stop offset="0.52" stop-color="#059FFF"/>
<stop offset="0.65" stop-color="#0B91FF"/>
<stop offset="0.76" stop-color="#137DFF"/>
<stop offset="0.87" stop-color="#1F62FF"/>
<stop offset="0.96" stop-color="#2C42FF"/>
<stop offset="1" stop-color="#3333FF"/>
</linearGradient>
<linearGradient id="paint1_linear_2_485" x1="61.2722" y1="67.2019" x2="26.4848" y2="47.1773" gradientUnits="userSpaceOnUse">
<stop offset="0.11" stop-color="#00AAFF"/>
<stop offset="0.28" stop-color="#04A6FF"/>
<stop offset="0.47" stop-color="#0E99FF"/>
<stop offset="0.67" stop-color="#2083FF"/>
<stop offset="0.87" stop-color="#3965FF"/>
<stop offset="1" stop-color="#4D4DFF"/>
</linearGradient>
<linearGradient id="paint2_linear_2_485" x1="101.777" y1="47.0941" x2="66.9992" y2="67.1188" gradientUnits="userSpaceOnUse">
<stop stop-color="#4D4DFF"/>
<stop offset="0.13" stop-color="#3965FF"/>
<stop offset="0.33" stop-color="#2083FF"/>
<stop offset="0.53" stop-color="#0E99FF"/>
<stop offset="0.72" stop-color="#04A6FF"/>
<stop offset="0.89" stop-color="#00AAFF"/>
</linearGradient>
</defs>
</svg>
