<svg width="128" height="128" viewBox="0 0 128 128" fill="none" xmlns="http://www.w3.org/2000/svg">
<path d="M65.7175 18.0089C65.9772 18.0089 98.6691 45.0972 98.6691 45.0972C98.9089 45.2976 99.0787 45.5781 99.1387 45.8886L106.932 93.0727C107.112 93.9743 106.832 94.6756 106.303 94.6756C106.103 94.6756 105.873 94.5854 105.613 94.375L100.268 90.0974L98.4892 93.1729L89.2972 108.991H38.7007L29.5086 94.0244L27.2706 90.4681L22.3848 94.375C22.125 94.5854 21.8852 94.6756 21.6954 94.6756C21.1558 94.6756 20.896 93.9743 21.0659 93.0727L28.8592 45.8886C28.9191 45.5781 29.089 45.2976 29.3288 45.0872C29.3288 45.0872 62.0306 18.0089 62.2704 18.0089H65.7175ZM62.2704 13C60.472 13 59.6427 13.6712 57.6544 15.2741C52.6028 19.4035 47.5605 23.5442 42.5274 27.6962C34.3245 34.4582 26.1415 41.2303 26.1415 41.2303C24.9729 42.2044 24.1898 43.5652 23.9334 45.0672L16.1401 92.2112C15.9427 93.1574 15.954 94.1354 16.1732 95.0768C16.3924 96.0182 16.8142 96.9001 17.4091 97.6609C17.9296 98.296 18.5838 98.8077 19.3249 99.1593C20.066 99.5109 20.8755 99.6937 21.6954 99.6945C22.6445 99.6945 24.0933 99.4441 25.542 98.262L26.0116 97.8813L34.4544 111.606C34.9004 112.336 35.5259 112.94 36.2711 113.359C37.0163 113.779 37.8563 113.999 38.7107 114H89.2972C90.1714 113.999 91.0301 113.768 91.7876 113.331C92.545 112.893 93.1746 112.264 93.6134 111.506L101.677 97.6308L102.496 98.282C103.564 99.1787 104.91 99.6746 106.303 99.6845C107.961 99.6845 109.53 98.9532 110.599 97.6609C111.192 96.8993 111.612 96.017 111.829 95.0756C112.047 94.1343 112.057 93.1567 111.858 92.2112L104.064 45.0672L104.044 44.9469C103.772 43.497 103.005 42.1869 101.876 41.2403C92.6415 33.6006 83.3961 25.9737 74.1402 18.3596C67.6158 13.02 67.6158 13.02 65.7874 13H62.2804H62.2704Z" fill="black"/>
<path d="M38.0213 110.263L27.6802 93.4334L64.1388 64.8424L100.607 92.5618L90.3162 110.273L38.0213 110.263Z" fill="url(#paint0_linear_2_418)"/>
<path d="M64.1488 66.7258L98.6491 92.9425L89.457 108.751H38.8506L29.6685 93.794L64.1488 66.7258ZM64.1189 62.939L62.3104 64.3615L27.8101 91.4198L25.7119 93.0827L27.1107 95.3668L36.3028 110.333L37.182 111.756H91.1756L92.0348 110.273L101.237 94.4451L102.576 92.1511L100.458 90.5482L65.9673 64.3315L64.1288 62.929L64.1189 62.939Z" fill="#8C0039"/>
<path d="M21.8452 95.9578C21.2258 95.9578 20.6563 95.6874 20.2466 95.1965C19.7271 94.5553 19.5472 93.6237 19.747 92.5618L27.5403 45.4078C27.6702 44.7165 28.0199 44.1255 28.5395 43.7047C61.641 16.2758 61.671 16.2758 62.4303 16.2758H63.929V61.5365C63.929 62.398 63.5493 63.2095 62.8799 63.7404L23.4738 95.3267C22.9643 95.7475 22.4147 95.9679 21.8452 95.9679V95.9578Z" fill="url(#paint1_linear_2_418)"/>
<path d="M62.4303 17.7785V61.5365C62.4303 61.9372 62.2505 62.3279 61.9307 62.5783L22.5546 94.1446C22.2949 94.355 22.0551 94.4451 21.8552 94.4451C21.3257 94.4451 21.0559 93.7439 21.2258 92.8423L29.0191 45.6582C29.089 45.3476 29.2489 45.0671 29.4887 44.8668C29.4887 44.8668 62.1905 17.7785 62.4403 17.7785M62.4403 14.7732H62.4303C61.2813 14.7732 61.2813 14.7732 55.2864 19.6819L43.9662 28.9985L27.5803 42.5527C26.7997 43.1994 26.2695 44.0996 26.0816 45.0972V45.1272L26.0716 45.1673L18.2783 92.3213C18.1248 92.9826 18.1196 93.6697 18.263 94.3332C18.4064 94.9967 18.6949 95.62 19.1076 96.1582C19.797 96.9797 20.7961 97.4605 21.8552 97.4605C22.4847 97.4605 23.4539 97.2902 24.453 96.4788L63.8191 64.9225C64.326 64.5147 64.7347 63.9976 65.0149 63.4097C65.2951 62.8218 65.4396 62.1781 65.4377 61.5265V14.7732H62.4403Z" fill="#8C0039"/>
<path d="M106.462 95.9578C105.893 95.9578 105.343 95.7375 104.824 95.3067L65.4378 63.7504C65.1062 63.4831 64.8389 63.1444 64.6556 62.7594C64.4723 62.3744 64.3776 61.9531 64.3787 61.5265V16.2859H65.8974C66.6367 16.2859 67.0364 16.5864 99.7782 43.7047C100.288 44.1255 100.637 44.7165 100.767 45.3777L108.561 92.6019C108.673 93.0468 108.685 93.5111 108.597 93.9615C108.509 94.4119 108.323 94.8371 108.051 95.2065C107.651 95.6874 107.082 95.9578 106.452 95.9578H106.462Z" fill="url(#paint2_linear_2_418)"/>
<path d="M65.8773 17.7785C66.1271 17.7785 98.829 44.8668 98.829 44.8668C99.0687 45.0671 99.2286 45.3476 99.2986 45.6582L107.092 92.8423C107.262 93.7439 106.992 94.4451 106.462 94.4451C106.263 94.4451 106.033 94.355 105.763 94.1446L66.3869 62.5683C66.0672 62.3179 65.8873 61.9272 65.8873 61.5265V17.7785M65.8873 14.7732H62.8899V61.5365C62.8899 62.8488 63.4694 64.081 64.4885 64.9125L103.905 96.4988C104.884 97.3002 105.843 97.4705 106.472 97.4705C107.531 97.4705 108.531 96.9997 109.22 96.1682C109.631 95.6294 109.919 95.006 110.063 94.3428C110.206 93.6795 110.201 92.9927 110.049 92.3314L102.256 45.1773V45.1072C102.056 44.1054 101.527 43.2038 100.737 42.5527C100.737 42.5527 92.5644 35.7806 84.3514 29.0185C80.2549 25.6225 76.1385 22.2365 73.0412 19.7019C67.0463 14.7932 67.0463 14.7932 65.8873 14.7932V14.7732Z" fill="#8C0039"/>
<path d="M69.8439 112.006H58.4637L57.4945 100.185C57.496 99.0685 57.8057 97.9738 58.3894 97.0226C58.9731 96.0713 59.808 95.3006 60.8017 94.7958C61.79 94.2905 62.8814 94.0213 63.9907 94.0091C65.1 93.997 66.1971 94.2422 67.1962 94.7256L67.416 94.8258C69.4942 95.8376 70.813 97.9614 70.813 100.276L69.8539 112.006H69.8439Z" fill="black"/>
<defs>
<linearGradient id="paint0_linear_2_418" x1="64.1488" y1="64.8324" x2="64.1488" y2="110.263" gradientUnits="userSpaceOnUse">
<stop offset="0.11" stop-color="#FF0000"/>
<stop offset="0.3" stop-color="#FB0000"/>
<stop offset="0.51" stop-color="#EE0000"/>
<stop offset="0.73" stop-color="#D80000"/>
<stop offset="0.95" stop-color="#BA0000"/>
<stop offset="1" stop-color="#B30000"/>
</linearGradient>
<linearGradient id="paint1_linear_2_418" x1="61.2713" y1="66.9161" x2="26.4853" y2="46.8899" gradientUnits="userSpaceOnUse">
<stop offset="0.11" stop-color="#FF0000"/>
<stop offset="0.3" stop-color="#FB0000"/>
<stop offset="0.51" stop-color="#EE0000"/>
<stop offset="0.73" stop-color="#D80000"/>
<stop offset="0.95" stop-color="#BA0000"/>
<stop offset="1" stop-color="#B30000"/>
</linearGradient>
<linearGradient id="paint2_linear_2_418" x1="101.776" y1="46.8103" x2="67.0005" y2="66.8364" gradientUnits="userSpaceOnUse">
<stop stop-color="#B30000"/>
<stop offset="0.05" stop-color="#BA0000"/>
<stop offset="0.27" stop-color="#D80000"/>
<stop offset="0.49" stop-color="#EE0000"/>
<stop offset="0.7" stop-color="#FB0000"/>
<stop offset="0.9" stop-color="#FF0000"/>
</linearGradient>
</defs>
</svg>
