<svg width="128" height="128" viewBox="0 0 128 128" fill="none" xmlns="http://www.w3.org/2000/svg">
<path d="M65.7226 19.0094C65.9824 19.0094 98.6777 46.1004 98.6777 46.1004C98.9175 46.3008 99.0874 46.5813 99.1473 46.8819L106.941 94.0806C107.121 94.9823 106.842 95.6837 106.312 95.6837C106.112 95.6837 105.882 95.5935 105.622 95.3831L100.276 91.1051L98.4978 94.1708L89.3048 110.001H38.7031L29.51 95.0224L27.2717 91.4657L22.3854 95.3731C22.1256 95.5935 21.8858 95.6937 21.696 95.6937C21.1564 95.6937 20.8966 94.9924 21.0664 94.0907L28.8605 46.8819C28.9205 46.5813 29.0904 46.3008 29.3302 46.1004C29.3302 46.1004 62.0354 19.0094 62.2753 19.0094H65.7226ZM62.2753 14C60.4766 14 59.6472 14.6713 57.6587 16.2743C52.6067 20.4041 47.5638 24.5452 42.5302 28.6976C34.3264 35.4604 26.1426 42.2331 26.1426 42.2331C24.9724 43.2062 24.1889 44.5676 23.9343 46.0703L16.1402 93.219C15.9427 94.1653 15.954 95.1435 16.1732 96.0849C16.3924 97.0264 16.8143 97.9084 17.4092 98.6693C17.9298 99.3044 18.5841 99.8162 19.3253 100.168C20.0664 100.519 20.876 100.702 21.696 100.703C22.6452 100.703 24.0941 100.453 25.543 99.2704L26.0127 98.8897L34.4563 112.616C34.9036 113.344 35.5297 113.946 36.2749 114.364C37.0201 114.781 37.8595 115 38.7131 115H89.3048C90.1781 115 91.0363 114.771 91.7937 114.335C92.5512 113.899 93.1814 113.272 93.6215 112.515L101.675 98.6392L102.495 99.2904C103.563 100.187 104.909 100.683 106.302 100.693C107.961 100.693 109.529 99.9617 110.599 98.6693C111.192 97.9076 111.612 97.0252 111.829 96.0838C112.047 95.1423 112.057 94.1646 111.858 93.219L104.064 46.0703L104.044 45.9501C103.768 44.4986 102.998 43.1882 101.865 42.2431L85.4777 28.6876L74.1463 19.3701C67.6212 14.02 67.6212 14.02 65.7926 14H62.2852H62.2753Z" fill="black"/>
<path d="M38.0236 111.554L27.6814 94.7218L64.1438 66.118L100.616 93.8402L90.324 111.554H38.0236Z" fill="url(#paint0_linear_2_398)"/>
<path d="M64.1539 68.0216L98.6578 94.2309L89.4647 110.051H38.853L29.66 95.0825L64.1439 68.0216M64.1139 64.2245L62.3053 65.6472L27.8114 92.7281L25.713 94.3812L27.1119 96.6655L36.3049 111.634L37.1843 113.066H91.1834L92.0428 111.564L101.246 95.7538L102.585 93.4495L100.466 91.8464L65.9725 65.6371L64.1339 64.2345L64.1139 64.2245Z" fill="#086800"/>
<path d="M21.8459 97.2466C21.2264 97.2466 20.6568 96.9761 20.2471 96.4852C19.7275 95.844 19.5476 94.9122 19.7475 93.8502L27.5416 46.6915C27.6715 46.0002 28.0212 45.4091 28.5408 44.9883C61.6458 17.5667 61.6758 17.5667 62.4352 17.5667H63.934V62.8118C63.934 63.6734 63.5543 64.485 62.8848 65.026L23.4747 96.6154C22.965 97.0362 22.4155 97.2466 21.8459 97.2466Z" fill="url(#paint1_linear_2_398)"/>
<path d="M62.4351 19.0695V62.8118C62.4351 63.2126 62.2552 63.6133 61.9355 63.8638L22.5553 95.4332C22.2955 95.6336 22.0556 95.7338 21.8558 95.7338C21.3262 95.7338 21.0564 95.0324 21.2263 94.1307L29.0204 46.9319C29.0903 46.6314 29.2502 46.3408 29.49 46.1505C29.49 46.1505 62.1953 19.0595 62.4451 19.0595M62.4451 16.0539H62.4051C61.276 16.0639 61.276 16.0639 55.2905 20.9631L43.9691 30.2806L27.5815 43.8261C26.8008 44.4729 26.2706 45.3732 26.0826 46.3709V46.401L26.0726 46.441L18.2785 93.5997C18.125 94.261 18.1198 94.9482 18.2632 95.6118C18.4066 96.2753 18.6951 96.8987 19.1079 97.437C19.7974 98.2685 20.7966 98.7394 21.8558 98.7394C22.4853 98.7394 23.4546 98.5691 24.4438 97.7576L63.814 66.1982C64.3223 65.7908 64.7325 65.274 65.0145 64.6861C65.2964 64.0982 65.4428 63.4542 65.4428 62.8018V16.0639H62.4451V16.0539Z" fill="#086800"/>
<path d="M106.472 97.2466C105.902 97.2466 105.353 97.0262 104.833 96.6054L65.4428 65.036C65.1113 64.7686 64.8439 64.4299 64.6606 64.0449C64.4772 63.6599 64.3826 63.2385 64.3836 62.8118V17.5667H65.9025C66.6419 17.5667 67.0416 17.8673 99.7868 44.9983C100.296 45.4091 100.646 46.0002 100.776 46.6614L108.57 93.8903C108.682 94.3353 108.695 94.7997 108.607 95.2501C108.519 95.7005 108.332 96.1257 108.061 96.4952C107.661 96.9761 107.091 97.2466 106.462 97.2466H106.472Z" fill="url(#paint2_linear_2_398)"/>
<path d="M65.8825 19.0695C66.1323 19.0695 98.8376 46.1505 98.8376 46.1505C99.0774 46.3509 99.2373 46.6314 99.3072 46.942L107.101 94.1307C107.271 95.0425 107.001 95.7438 106.472 95.7438C106.272 95.7438 106.042 95.6436 105.772 95.4432L66.3921 63.8538C66.0724 63.5933 65.8925 63.2126 65.8925 62.8018V19.0695M65.8925 16.0639H62.8948V62.8118C62.8948 64.1243 63.4743 65.3566 64.4936 66.1882L103.914 97.7876C104.893 98.5891 105.852 98.7494 106.482 98.7494C107.541 98.7494 108.54 98.2785 109.23 97.447C109.641 96.9081 109.929 96.2847 110.072 95.6214C110.216 94.958 110.211 94.2711 110.059 93.6098L102.265 46.451V46.3709C102.065 45.379 101.536 44.4673 100.746 43.8261L84.3685 30.2906C80.2716 26.8943 76.1448 23.5079 73.0471 20.9731C67.0516 16.0639 67.0516 16.0639 65.8925 16.0639Z" fill="#086800"/>
<path d="M69.8496 113.307H58.4682L57.4989 101.485C57.4994 100.369 57.8077 99.2745 58.3896 98.3233C58.9716 97.372 59.8045 96.6007 60.7964 96.0944C61.784 95.5876 62.8752 95.3166 63.9846 95.3027C65.094 95.2888 66.1916 95.5323 67.1916 96.0143L67.4114 96.1245C69.4898 97.1264 70.8088 99.2504 70.8088 101.575L69.8496 113.297V113.307Z" fill="black"/>
<defs>
<linearGradient id="paint0_linear_2_398" x1="64.1538" y1="66.118" x2="64.1538" y2="111.554" gradientUnits="userSpaceOnUse">
<stop offset="0.11" stop-color="#00FF1A"/>
<stop offset="0.39" stop-color="#02FC1C"/>
<stop offset="0.56" stop-color="#09F422"/>
<stop offset="0.7" stop-color="#15E62D"/>
<stop offset="0.82" stop-color="#26D23C"/>
<stop offset="0.93" stop-color="#3CB850"/>
<stop offset="1" stop-color="#4DA45F"/>
</linearGradient>
<linearGradient id="paint1_linear_2_398" x1="61.2761" y1="68.202" x2="26.4866" y2="48.1736" gradientUnits="userSpaceOnUse">
<stop offset="0.11" stop-color="#00FF1A"/>
<stop offset="0.29" stop-color="#04FB1D"/>
<stop offset="0.48" stop-color="#0FEE27"/>
<stop offset="0.68" stop-color="#21D837"/>
<stop offset="0.88" stop-color="#3ABA4E"/>
<stop offset="1" stop-color="#4DA45F"/>
</linearGradient>
<linearGradient id="paint2_linear_2_398" x1="101.785" y1="48.1042" x2="67.0058" y2="68.1325" gradientUnits="userSpaceOnUse">
<stop stop-color="#4DA45F"/>
<stop offset="0.12" stop-color="#3ABA4E"/>
<stop offset="0.32" stop-color="#21D837"/>
<stop offset="0.52" stop-color="#0FEE27"/>
<stop offset="0.71" stop-color="#04FB1D"/>
<stop offset="0.89" stop-color="#00FF1A"/>
</linearGradient>
</defs>
</svg>
