<svg xmlns="http://www.w3.org/2000/svg" width="148.3" height="148.3"><path d="M71.2 6.6c-.2-.3 0-.7.3-.8 7.4-1.2 14.8-2.4 22.2-3 1.5-.1 3.1-.2 4.6.2.4 0 0-.4 0 0 0 .2-.6.8-.7 1-3.2 3-4.5 4-5.3 4.5-7 1.2-13.3 2.3-20.3 3.7-.2 0-.4-.3-.2-.5 1.7-1.8.3-4-.6-5.1z" fill="#d1d3d4"/><path d="M80.8 137.3a54.8 54.8 0 01-10.9-1.2l-1.1-.7c-7-4-12.2-11-13.7-18.6l-.1-.4-1-.7c-1.6-1.2-3-2.2-4.9-3-.6-.4-1-1-1-1.6v-1c0-.6.5-1.3 1.2-1.4.8-.3 1.7-.4 2.6-.4 2.7 0 5.3 1 7.6 1.9 3 1.3 4 1.8 6.8 3.3l.2.2a89 89 0 0018.6-2 55.1 55.1 0 0012.7-5c2-1.4 3.7-3.5 5.2-5.4 1.3-1.6 2.4-3.2 3-5 .2-.7.3-1.5.3-2.2 0-.9.6-1.6 1.5-1.6h2a220.7 220.7 0 0110.3 0c.5 0 .9.2 1.1.5s.5.7.5 1c0 1.5-.2 3-.4 4.5 0 .3-.2.8-.6 1.2l-.4.2v1.6l.2.2c.7.7.7 1.7.7 2.2a73 73 0 000 8.7l.1.7c.1 1.4.3 3 0 4.5a8 8 0 01-2.4 5v.1l-1.1.8-.3.4c-.7.9-1.5 1.8-2.5 2.6a62.1 62.1 0 01-34.2 10.6z" fill="#dd952f"/><path d="M114.2 93.4h6c.2 0 .5.3.5.6a34.8 34.8 0 01-.7 5c-.2 0-.4 0-.6.2l-.1.6v2.3l.5.3c.4.4.4 1 .4 1.5-.2 3-.1 5.9 0 8.8.2 1.7.4 3.3.2 5a7 7 0 01-2.1 4.4l-1.2.9c-.9 1-1.6 2.1-2.7 2.8a61 61 0 01-44 9.4l-1-.7a27 27 0 01-13.3-18l-.3-.7c-2.2-1.6-3.8-3-6.3-4a.7.7 0 01-.3-.7v-1c0-.2.1-.4.4-.5.8-.2 1.5-.3 2.3-.3 2.5 0 5 .9 7.2 1.8 3 1.3 3.9 1.7 6.7 3.3l.4.3c6.4-.2 13-.4 19.2-2a56.6 56.6 0 0013-5.2c2.1-1.5 3.8-3.5 5.4-5.6 1.3-1.6 2.5-3.3 3.1-5.3.3-.8.4-1.7.4-2.5 0-.3.2-.6.5-.6h2l4.4-.1m0-2h-4.5l-2 .1a2.5 2.5 0 00-2.4 2.6l-.3 2a15 15 0 01-2.8 4.6c-1.4 1.9-3 3.8-5 5.1-.8.6-1.8 1-2.7 1.5a54.3 54.3 0 01-9.6 3.4c-5.8 1.5-12 1.8-18 2h-.2c-2.8-1.6-3.8-2.1-6.8-3.4-2.4-1-5.1-2-8-2-1 0-2 .1-2.9.4-1 .3-1.8 1.3-1.8 2.4v1c0 1 .5 2 1.5 2.4 1.8.9 3 1.8 4.7 3l.7.6c1.6 7.8 7 15 14.2 19.1l1.1.7 1 .4a63.1 63.1 0 0045.2-9.8c1.1-.8 2-1.9 2.7-2.8l.2-.3 1-.7h.1a9 9 0 002.8-5.8c.2-1.6 0-3.2 0-4.7l-.1-.6c-.2-2.9-.3-5.8-.1-8.6 0-.6 0-2-1-3v-.5h.1c.8-.7.9-1.5 1-1.9l.4-4.5c0-.7-.3-1.3-.7-1.8-.5-.5-1.1-.8-1.8-.8l-6-.1z" fill="#603913"/><path d="M108.4 99.4a20.7 20.7 0 011-5.8c.3-.2.6-.2.9-.2 3 .2 6-.2 9 0l.3.5c-.1-.5.6-.5.6-.5.1.8-.1-.2-.6.4s-.6.7-1.3 1.1l-1.7 1.3-1.3.9-1.1.3c-1.7 0-3.4-.5-5.1-.5M111.6 100.3c1.5.4 3.2.1 4.6-.5a14 14 0 004-2.5c.3.5.5 1.3-.1 1.5-.2 0-.5.3-.6.5l-.3.4v2.1c.1.1-.2-.1-.1 0 .5.5 1 1 1 1.7 0 .2.2 1 0 1.2 0 .3-1 .3-1.3.4l-5 2.5-.5.2-.4-.2c-.9-.3-1.8-.2-2.7-.5.5-2 .9-4.5.9-6.6" fill="#af6e20"/><path d="M109.7 97.7c1.8 0 4.3.7 6 0 1.8-1 3.2-2.6 5-3.7.5-.3 0-1.2-.5-.8-1.5.9-2.8 2.2-4.3 3-1.9 1.2-4.2.6-6.2.5-.7 0-.7 1 0 1z" fill="#603913"/><path d="M109.7 100c2 .5 4.6 1.2 6.5.6 2-.6 3.8-2.6 5.1-4 .4-.5-.3-1.2-.7-.7-1.2 1.2-2.6 2.8-4.2 3.5-1.9.9-4.5.1-6.4-.3-.6-.1-1 .8-.3 1zM117.1 101.7l-.1 2.7v.2l.2.1c.5 0 1 .1 1.2-.3l.1-.5.2-2.6v-.4c-.2-.2-.4-.3-.7-.2l-.6.2" fill="#603913"/><path d="M86.2 122h-1.8c-4.5 0-8-.7-11.2-1.9-3.5-1.3-6.7-2.5-8.8-5.7-.3-.4-.3-1 0-1.4l.8-1c.2-.2.5-.3.9-.3h.2a57.6 57.6 0 0033.7-4.1l1.4-.5h1.9l8 1a1.1 1.1 0 01.8 1.8c-3.3 4.8-8 8.2-14.3 10.5-3.3 1.1-7 1.7-11.6 1.7z" fill="#af6e20"/><path d="M102.2 107.8h1l8 1c.4.1.5.4.3.6a28 28 0 01-14 10.2 33.4 33.4 0 01-13 1.7c-3.8-.1-7.5-.5-11-1.9-3.4-1.3-6.5-2.4-8.5-5.5-.1 0 0-.3 0-.4l.8-1a.4.4 0 01.3 0 58.3 58.3 0 0034.2-4.2l1.2-.5h.7m0-1.5h-1l-1.4.6a57.8 57.8 0 01-33.7 4c-.6 0-1.1.3-1.5.7l-.8 1c-.5.6-.5 1.5 0 2.2 2.2 3.4 5.7 4.7 9 6h.2a34.8 34.8 0 0013.2 2c4.6 0 8.5-.5 11.8-1.8a29.3 29.3 0 0014.8-10.7c.3-.5.4-1.2.1-1.8-.2-.6-.8-1-1.4-1.1l-8.1-1-1.3-.1z" fill="#603913"/><path d="M71.2 15.3l-.4-.5-.3-6c-.1-3.2 0-3.4.3-3.5 0 0 .2-.2 1-.2.7 0 1 0 1.1.3.1.2.2.4.2 1l.2 9.2-2.1-.3z" fill="#dd952f"/><path d="M71.8 5.6h.7v.9c.2 2.8.2 5.7.3 8.5l-1.3-.1-.2-.3c0-2-.2-3.9-.3-5.9v-3h.8m0-1c-.8 0-1.1 0-1.3.2-.4.3-.6.4-.5 3.9l.2 2.9.1 3v.2l.2.3.1.2.3.4h.4l.7.1.7.1 1.1.2V15l-.2-8.5c0-.8 0-1-.3-1.4-.3-.4-.8-.5-1.5-.5z" fill="#603913"/><path d="M71.1 30.2c-.3 0-.8 0-1.3-.3h-.2l-.6-.4-.2-.2-.4-1.3v-.2-1.9H68c-.6 0-1.3-.2-1.7-.6a7.8 7.8 0 01-1.6-6.3c.7-2.3 3.7-2.8 5.7-3.1 1-.2 1.9-.2 2.7-.2 1.2 0 2.2.1 3.2.4 1 .3 2.5.7 3.5 1.5 1.1 1 1 2.7 1 3.9v.2c-.1 1-.2 2.3-1 3.2-.4.3-.8.5-1.3.5l-.7-.1v.8l-.1 1c-.1.5-.7.8-1 1a3 3 0 01-1.5 1.4c-1.2.6-2.6.6-3.6.7H71z" fill="#dd952f"/><path d="M73.1 16.7c1 0 2 0 3 .3s2.2.7 3 1.4c.8.7.7 2 .7 3.1-.1 1-.1 2-.7 2.7l-.6.2-.9-.2c-.1 0-.3 0-.5.2-.5.4-.3 1.8-.4 2.4 0 .3-.9.4-1 .7 0 .5-.5.9-1 1a8 8 0 01-3.6.7c-.3 0-.6 0-.9-.2l-.5-.3-.3-.8c0-.5 0-2.7-.3-3l-.2-.2-.8.3H68c-.3 0-.8-.2-1-.4a6.8 6.8 0 01-1.3-5.3c.5-1.7 3.1-2.1 4.9-2.4.8-.2 1.7-.2 2.5-.2m0-2c-.9 0-1.8 0-2.8.2-2.2.3-5.7.9-6.5 3.8-.6 2 0 5.4 1.7 7.2.5.6 1.3 1 2 1v.8l-.1.4.1.5.3.8.2.5.3.3c.3.3.5.4 1 .6h.1c.7.3 1.3.4 1.7.4h.5c1.1 0 2.6-.1 4-.8.8-.4 1.4-1 1.8-1.6.4-.2 1.1-.7 1.3-1.6v-.8c.7 0 1.3-.4 1.8-.9 1-1 1.2-2.7 1.2-3.7V21.5c.1-1.2.3-3.4-1.3-4.7-1-.9-2.5-1.3-3.8-1.7-1-.3-2.2-.4-3.5-.4z" fill="#603913"/><path d="M48 36.7c-1 0-1.8-.4-2.3-.8-.6-.4-1-1-1-1.8 0-.6.3-1.2.8-1.6l.1-.1A20 20 0 0156 28.5l1-.1c11.6-2 23.4-3 35-3.1h1c3.6 0 7.9 0 12 1 .8.2 1.8.4 2.6 1 1 .8 1.5 2 1.2 3.2-.2 1-1 1.7-2.2 2-.4.2-.9.2-1.4.2h-1a211.4 211.4 0 00-56.2 4z" fill="#dd952f"/><path d="M93 26.3c4 0 7.9.1 11.8 1 .8.1 1.6.3 2.2.8.6.5 1 1.3.9 2.1-.2.7-.9 1.2-1.6 1.4l-1.1.1h-1a212.6 212.6 0 00-56.2 4c-.7 0-1.2-.3-1.8-.6-.6-.4-.7-1.4 0-1.9h.1c3.2-2.7 6.8-3.2 11-3.9 11.4-2 23.1-3 34.8-3h.9m0-2h-1c-11.7 0-23.5 1-35.1 3l-1 .2c-3.9.7-7.5 1.3-10.9 4v.1a3 3 0 00-1.3 2.6c0 1 .6 2 1.4 2.6.7.4 1.6 1 2.8 1l.9-.2a210.5 210.5 0 0155.3-4l1 .1c.7 0 1.3 0 1.8-.2a4.1 4.1 0 003-2.8 4 4 0 00-1.7-4.2c-1-.7-2-1-3-1.2-4.2-1-8.6-1-12.2-1z" fill="#603913"/><path d="M67.6 25.3a15 15 0 0111.5-.2c.6.2.8-.8.2-1a16 16 0 00-12.2.4c-.6.3 0 1.1.5.8zM48.4 112.1c1.2.3 3 .7 4.2.3 1.1-.4 1-1.8.8-2.7-.1-.5-.9-.3-.8.2.2.6.4 1.5-.5 1.8h-1c-.8 0-1.7-.1-2.5-.3-.5 0-.7.6-.2.7z" fill="#603913"/><path d="M71.7 114.7c-3.9 0-7-.2-10-.8-6-1-11.2-3.4-14.9-6.8a40 40 0 01-8-10.2l-1.1-2c-2-3.2-3.2-5.4-4.9-12.6A87.3 87.3 0 0131.5 69C31.5 56.3 37 43 46 34.4c.3-.2.6-.4 1-.4.5 0 1 .4 1.3 1 .6 1.6 1.5 2.8 2.2 3h.6c1.3 0 2.7-.6 3.7-1.7 1.2-1.2 3.3-4.3 4-6a1.3 1.3 0 012.4 0l.3.4c1.2 2 3.1 5.4 5.3 5.4l.7-.1c3.9-1.2 6.3-5 7.4-7.3a1.2 1.2 0 012.3.4c.5 2.6 3.3 4.7 6.2 4.7h1c3.4-.6 5.7-3.7 7.4-6.3a1.2 1.2 0 011.9-.2c.2.2.4.5.4.9 0 3 .4 3.4 1.8 4.1a5.1 5.1 0 003 .5c2.3-.3 5.6-3.4 6.6-4.5.6-.5.8-.6 1.2-.6h.5l.6.7-.1.4c-4 24.3-2.4 49.5 4.9 73 .1.4.4 1.2 0 2-.2.6-.6 1-.9 1.1-9.6 7.6-22.5 9.1-33.9 9.7l-6 .1z" fill="#fff"/><path d="M92.7 28c.1 0 .3 0 .3.2 0 3 .4 4 2.3 5a6.1 6.1 0 003.6.6c3.3-.5 7.6-5.1 7.7-5.1-4 24.4-2.4 49.7 5 73.3 0 .5.2 1 0 1.4a2 2 0 01-.6.7c-9.2 7.3-21.6 9-33.3 9.5l-6 .1a55 55 0 01-10-.8c-5.1-1-10.3-3-14.2-6.5-3.2-3-5.6-6.2-7.8-10-2.6-4.6-4-5.9-5.9-14.3a86.3 86.3 0 01-1.3-13.2A48.8 48.8 0 0147 35c.1 0 .3.1.3.3.5 1 1.5 3.4 3 3.6l.8.1c1.7 0 3.3-.8 4.5-2a30 30 0 004.1-6.2c.1-.2.2-.2.3-.2l.3.1c1.3 2.2 3.5 6.4 6.5 6.4.3 0 .7 0 1-.2 3.6-1 6.3-4.3 8-7.7l.2-.1c.1 0 .2 0 .3.2.6 3.2 3.8 5.5 7.1 5.5h1c3.7-.6 6.3-3.6 8.3-6.7l.1-.2m0-2c-.7 0-1.4.4-1.8 1-2.4 3.7-4.5 5.5-6.8 5.9h-.8c-2.4 0-4.8-1.8-5.2-4a2.2 2.2 0 00-4.2-.5c-1.7 3.5-4.2 6-6.8 6.7h-.4c-1.6 0-3.5-3.2-4.4-4.8l-.4-.5a2.3 2.3 0 00-4.1.2 28 28 0 01-3.8 5.7c-.9.9-2 1.4-3 1.4h-.4c-.3-.1-.9-.9-1.5-2.4-.4-1-1.2-1.6-2.2-1.6-.7 0-1.3.3-1.7.7A50.5 50.5 0 0030.5 69c0 1.9.4 9.6 1.4 13.6 1.7 7.4 3 9.6 5 13l1 1.9a41 41 0 008.3 10.4c3.8 3.5 9 6 15.2 7.1a56.2 56.2 0 0016.4.7c11.5-.6 24.6-2.2 34.4-9.9.3-.2 1-.7 1.3-1.5.5-1.1.1-2.2 0-2.8a158.6 158.6 0 01-5-72.4l.2-1-.6-.6-.6-.7h-.9c-.8 0-1.3.4-1.8 1-2.8 2.5-4.9 4-6.2 4.2H98c-.6 0-1.3-.2-1.9-.5-1-.5-1.3-.6-1.2-3.2a2.2 2.2 0 00-2.3-2.3z" fill="#808285"/><path d="M84.4 103.4c5.4.6 10.3-1 14-1.5 3.5-.6 7.2-3.9 8.9-6 .7-1 2.2-5 4.5 6.1 0 .5.3 1 0 1.4a2 2 0 01-.6.7c-9.2 7.3-21.6 9-33.3 9.5-5.3.2-10.6.3-15.9-.7-5.2-1-10.3-3-14.2-6.5-3.3-3-5.7-6.2-7.9-10-2.6-4.6-4-5.9-5.8-14.3-1-3.9 14.5 17 24.2 19 13.1 2.5 26 2.3 26.1 2.3z" fill="#d1d3d4"/><path d="M50.4 113c1.3 1 2.1-.2 5.5.6.3 0 1.5.8 1.7 1l1.5 2.1c.6 2.2 1.9 4.2 2.3 4.6.4.4 1.4 1.6 2.7 1.5 1 0 .5.7 1.5.5 1.2-.3 2.3-.8 3.4-1.3l1.7-.9c.6-.2.7 0 1-.5-2.8-1.1-5-3.7-6.6-6.4-.2-.3-1.6-.9-1.7-1-2.5-1.2-4.2-2.7-6.8-3.6l-2.3-1a.3.3 0 00-.4.3c.3 1 1 2.4.6 3-.3.6-.8 1-1.4 1.2l-2 .4-.7-.5z" fill="#dd952f"/><path d="M120.4 116.2c-6.6 5.3-14.8 13-23.7 15.4a57.6 57.6 0 01-17 1.2c-3.2-.2-6.3-2.9-9.3-4-3-1.1-8.3-5.2-9-7.5-.9-2.3-1.9-4.9-4-7.2-.4-.3-2.5-1.6-3-1.7l-.8-.1-3.8.2 2 1.2c.5.2 1 .4 1.3.7.7.3 2.2 1 2.7 1.4 1.7 5.7 3.5 11.5 8.7 15.3a34.3 34.3 0 0016 6.6c5 .7 10.2 0 15.3-1 4.1-.8 8.3-1.9 12.1-3.7a24 24 0 009.5-8c1-1.5 3.8-7.2 3-8.8z" fill="#af6e20"/><path d="M56.6 116.7c2 1.6 2.6 5 3.7 7.2 1.1 2.3 2.4 4.4 4.3 6.1 3.5 3.3 8.4 5.3 13.2 5.7.5 0 .5-.7 0-.7a20.5 20.5 0 01-15.1-8.4 36.5 36.5 0 01-3.3-6.9A8 8 0 0057 116c-.4-.3-.8.4-.4.7z" fill="#603913"/><path d="M53.9 112.7c2.2.3 3.7 2 4.9 3.8l.4-.8h-3.9c-.6 0-.6 1 0 1h3.9c.4 0 .6-.4.4-.7-1.2-2-3-4-5.5-4.3-.6-.1-.9.9-.2 1z" fill="#603913"/><path d="M49.1 113c-.9 0-1.6-.7-1.6-1.6v-2c0-.8.7-1.6 1.6-1.6H53c1 0 1.7.8 1.7 1.7v1.9c0 .9-.8 1.6-1.7 1.6h-3.8z" fill="#dd952f"/><path d="M53 108.3c.5 0 1 .5 1 1.2v1.9c0 .6-.5 1.1-1 1.1H49c-.6 0-1.1-.5-1.1-1.1v-2c0-.6.5-1 1.1-1H53m0-1h-3.8c-1.1 0-2.1.9-2.1 2v2c0 1.2 1 2.1 2.1 2.1H53c1.2 0 2.2-1 2.2-2.1v-2c0-1.1-1-2-2.2-2z" fill="#603913"/><path d="M53.2 108.3c3.1 1.7 6.6 2.8 9.7 4.7 2.7 1.8 4.5 4.7 7.2 6.7.6.3 1-.5.5-.9-2.7-2-4.4-4.9-7.2-6.6-3-2-6.6-3-9.7-4.7-.6-.3-1 .5-.5.8z" fill="#603913"/><path d="M64 132.2c-.8-1-1.6-3-3.6-2.6a6 6 0 00-3.5 3c-.5 1.1.2 5.2.6 6.4a6.6 6.6 0 002.1 3c.6.5 2.7.5 3.4.8 2.3 1 5 2 7 .5l.8-.4c.6 0 1 .5 1.5 1a11 11 0 0010.5 3.6c1.8-.4 3.4-1.2 5-1.6 2-.4 4.2-.3 6.3-.4s4.2-.5 5.8-1.8c.7-.5 1.3-1.3 2.1-1.8 1-.6 2.1-.9 3.2-1.2 2.1-.7 4.2-1.8 5.9-3.2a3 3 0 00.9-1.2c.1-.3.1-.7.3-1 .2-.4.6-.7 1-1 1.8-1.5 3.5-3.2 4.6-5.4 1-2.1 4.6-5.8 2.7-7.3-.8-.6-3.2 1.5-3.7 1.8-5.8 3-11.8 8.4-19 10.2A63 63 0 0191 135c-6.2.8-13 1.3-18.3-1.9-1.3-.7-2.4-1.7-3.8-2.1-1.3-.5-3-.4-4 .7l-1 .6z" fill="#7ad5f3"/><path fill="#a3e8ff" d="M64.6 132.3l.3-.1zM103.3 133.6c3-1 5.4-3 7.9-4.9l6-4.7c-.2-.4-.8-.2-1.2 0-2.9 1.7-6 3.4-8.6 5.4a15 15 0 01-8.1 3.5c-2.5.3-5 1.2-7.5 1.7-1.2.2-2.4.7-3.7 1-4.7 1.2-9.6-.7-14-2.7-2.7-1.1-5.9-2.4-8.5-1.1l-.7.4c-.8.5-1.3 1.3-1.4 2.2l-.3 1.2-.4.9c-.5 1.1-.2 2.5.8 3.3.7.6 2.3 1.2 3.3 1.2s2-.8 1.7-1.7c0-.5.5-.8.3-1.3-.4-1 .1-1.9 1.2-1.8 1.1 0 1.5.6 1.8 1.7.2.9.2 2 1 2.4.3.1 2.1 1.1 2.4 1.1 2.5 0 3.2-.7 5.6-.5.8 0 2.7-1.2 3.5-1.2 1.8.3 2.4-.9 4.3-1.2 3.2-.5 6.6.7 9.7-.2 1.5-.4 2.8-1.3 4.3-1.8l3.1-.7a9.6 9.6 0 004.8-3c.2-.2.4-.6.2-.8-.1-.4-.8-.3-1.1 0-2.6 1.5-5.5 2.4-8.2 3.6-.3.2-.8 0-.8-.3l.1-.4c.7-.8 1.6-1 2.5-1.3zM63.9 132c-.7-.7-1.7-1.3-1.9-1.5-.5-.5-1.7-.3-2.3 0s-1.2.9-1.5 1.5l-.5 2c-.1.7-.3 1.4 0 2l.7.8.8.5c.3.2.6.2.9.2.4 0 .9-.1 1.2-.4.4-.4 1-.7 1.2-1.2.2-1 0-2 .5-2.8l.9-1z"/><g><path d="M85.5 143.6l.8-.8c.7-.7 1.7-1 2.6-1.2 1.4-.4 2.8-.8 4.2-1a22.9 22.9 0 016.3.6c.2.2.2.6 0 .8-.2.2-.5.3-.8.3-3 .8-6.3 1-9.3 2-1 .3-2 .8-3.2.8-.2 0-.4 0-.6-.2-.5-.4 0-1.1.4-1.5" fill="#a3e8ff"/></g><g><path d="M78.1 136.2h-1l.3-.1c-.3.1-.7.3-1 .6-.3.2-.5.6-.4 1 .1.4.5.7.8.9h1.3l1-.1c.4-.2.6-.5.6-.9 0-.2-.2-.3-.3-.5-.3-.4-.8-.8-1.3-.9zM88.6 137.4c.2-.4-.2-.8-.7-.9-1.8-.5-5.1.7-5.1.7-.2 0-.5.2-.5.4 0 .3.3.5.5.6.8.4 1.8.5 2.7.4l2.6-.8c.2 0 .4-.2.5-.4zM92.9 141.8h-1l-3.8.5.3-.2c-.5.1-1 .3-1.3.7l-.3.6c0 .4.7.5 1.1.4a43.2 43.2 0 005.2-1.2c.2-.2 0-.6-.2-.8zM68.1 133.4c-.7-.2-1.3-1.1-2.1-1a3 3 0 00-1.6.6l-.5 1c-.2.8 0 1.9.2 2.7.2.6 1 .9 1.5.7.3-.1.4-.5.4-.9s0-.7.1-1c.4-.8 1.4-.8 2.2-1 .2 0 .4 0 .5-.2.2-.3-.3-.7-.7-.9zM61 131.8c-.5-.2-.8-.2-1.3 0l-.6.5c-.5.6-.7 1.5-.8 2.3 0 .5.4 1 .8 1 .3 0 .5-.3.6-.5l.4-.8c.5-.5 1.5-2.4 1-2.5z" fill="#d7f7ff"/></g><g><path d="M67.9 122.4a23.8 23.8 0 0012.1 5.4 43.2 43.2 0 0019.8-2c2.1-.8 4.2-1.6 6-2.8 3.9-2.3 6.8-5.9 9.1-9.7-1 2-2.1 4-3.6 5.7a23.3 23.3 0 01-11.2 7.6 40.2 40.2 0 01-20.2 1.8 22 22 0 01-12-6z" fill="#603913"/></g><g><path d="M69.7 128.4c3.5 2.8 7.9 4.1 12.2 4.6a31.3 31.3 0 006.5 0 48 48 0 0018.8-5.6c3.8-2.2 6.8-5.7 8.7-9.7a20.5 20.5 0 01-8.2 10.4 46.3 46.3 0 01-25.9 5.6c-4.4-.7-8.8-2.3-12-5.3z" fill="#603913"/></g><g><path d="M105.8 17.2a336 336 0 01-15.7-.4h-.3l-.1-.2c-.5-.7-.4-5 .4-6.7l.1-.2.2-.3c-6.2 1-12 2-18.2 3.2H72a.8.8 0 01-.6-1.3c1.4-1.5.4-3.2-.6-4.4a1 1 0 01-.2-1c.2-.4.5-.6.8-.7a289 289 0 0124.5-3c1 0 1.7 0 2.5.2 1 .2 1.1.8 1.2 1.1 0 .4-.2.6-.3.8-1.3 2.2-2.8 3-4.2 3.6-.7.3-1.4.7-2 1.2h.3l18.7-.1 17.3-.1a1 1 0 01.8 1.5c-.7 1.2-1 3 0 4.2.3.3.3.7.2 1.1-.2.4-.6.7-1 .7-7.4.5-15.6.8-23.7.8z" fill="#fff"/><path d="M96 2.6l2.4.3c.3 0 .7.3.8.6l-.2.6c-2.2 3.6-5 3-6.6 5.3.3.2.7.2 1.1.2h.1l35.9-.2c.4 0 .6.4.4.7-.9 1.4-1.1 3.4 0 4.8.3.4 0 1-.5 1a349.2 349.2 0 01-39.3.4c-.3-.5-.3-4.6.5-6.1.4-1 .4-1.2 2.1-1.7-7 1.1-13.7 2.3-20.6 3.6-.3 0-.4-.3-.3-.4 1.8-2 .4-4.1-.5-5.2-.3-.3 0-.7.3-.8a294 294 0 0124.4-3m0-1h-2.3c-7.2.7-14 1.7-22.3 3-.5.1-1 .5-1.1 1-.2.5-.1 1 .2 1.5 1 1 1.8 2.6.6 3.8-.3.3-.4.9-.2 1.3a1.3 1.3 0 001.4.8l17.2-3c-.7 1.8-.8 5.9-.2 6.8l.2.4h.6a339.8 339.8 0 0039.4-.4 1.6 1.6 0 001.2-2.7c-.8-1-.6-2.5 0-3.5.3-.5.4-1 .1-1.6-.3-.4-.8-.7-1.3-.7l-17.4.1-17.3.1.7-.3c1.3-.6 3-1.4 4.3-3.7.2-.2.4-.6.4-1.1 0-.4-.3-1.2-1.6-1.6-.8-.2-1.6-.3-2.6-.3z" fill="#808285"/></g><text transform="translate(55 96)" fill="#5b2a2a" font-family="OpenSans" font-size="25">2:1</text><g><path d="M72 56c.5-.6.8-1.5.6-2.3a4 4 0 00-.6-1.4c-.7-1.1-1.6-2.2-2.5-3.2l-4.4-5c-.5-.5-1-1-1.5-1.3-1.2-.4-2.5.2-3.6 1-1.5 1-3 2.2-3.8 3.8-.8 1.6.4 5.5 1 6.6 1 1.6 2.3 3 3.7 4.3.6.5 1.2.9 1.9 1.2 1 .3 2 .3 2.9.1 2.5-.3 5-1.5 6.3-3.7zM57 57.3l-.9-1.3-2.1-2.5c-.5-.5-1-1-1.6-1.2-.6-.2-1.2.3-1.2.3-.8.6-1.3 1.5-1.6 2.5a12.5 12.5 0 00-.3 5 4 4 0 002 2.2c1 .5 2 .7 3.1.9.7 0 1.3.2 2 0s1.3-.2 1.7-.7c.7-.7.8-1.8.5-2.8-.3-.9-1-1.7-1.5-2.4zM84.7 58a10 10 0 00-3.1-2.8c-1.3-.6-2.9-.7-4 0l-1.2 1.1c-.7.7-2.3 1.4-2.3 1.4-1 .3-2 .6-2.8 1.2-.8.5-1.5 1.4-1.6 2.4-.2 1.5.7 2.8 1.7 3.8.8.8 1.6 1.4 2.5 2 .7.5 1.5 1 2.3 1.1.8.2 1.7.2 2.4-.2l.9-.6c.7-.3 1.5-.3 2.3-.3.8 0 1.7 0 2.5-.3.5 0 1-.3 1.5-.6l.5-1a6 6 0 00.2-4.4c-.4-1-1.1-2-1.8-2.8zM89.3 49a4.9 4.9 0 00-4-1.6c-.4 0-.8.1-1.2.4l-.8.7c-.9.8-1.7 1.8-2 3-.2.7-.2 1.4.2 1.9.3.4 1 .5 1.5.8l1.7 1c.6.4 1.2.7 2 .7 1 0 1.9-1 2.5-1.8l.7-1c.7-1.4.4-3-.6-4.2zM71.3 49.1a5630.4 5630.4 0 002.8 3.8c.6.6 1.3 1.2 3.1.7 1-.3 2-1.1 2.6-2l.6-1.1.2-1.4a72 72 0 000-3.3c-.1-.4-.4-.6-.7-.9l-1.3-1.1c-1-.7-2.2-1-3.4-1.3a12 12 0 00-2.4-.3c-.8 0-1.6.1-2.3.6 0 0-.7.7-.9 1.6-.2.8 0 1.7.3 2.5l1.4 2.2z" fill="#5b2a2a"/></g></svg>